M48
; DRILL file {KiCad (5.1.8)-1} date 12/27/20 14:04:33
; FORMAT={-:-/ absolute / inch / decimal}
; #@! TF.CreationDate,2020-12-27T14:04:33+01:00
; #@! TF.GenerationSoftware,Kicad,Pcbnew,(5.1.8)-1
; #@! TF.FileFunction,Plated,1,2,PTH
FMAT,2
INCH
T1C0.0157
T2C0.0256
T3C0.0315
T4C0.0394
T5C0.0433
T6C0.1260
T7C0.1496
%
G90
G05
T1
X0.1975Y-0.4525
X0.198Y-0.546
X0.206Y-0.854
X0.254Y-0.89
X0.2924Y-0.3893
X0.294Y-0.5748
X0.3039Y-1.1967
X0.3543Y-0.7087
X0.3726Y-0.9951
X0.376Y-0.956
X0.394Y-0.616
X0.4Y-0.422
X0.405Y-0.4991
X0.464Y-1.19
X0.476Y-0.956
X0.476Y-0.996
X0.4921Y-0.7087
X0.522Y-1.03
X0.5512Y-0.85
X0.566Y-0.29
X0.618Y-0.52
X0.636Y-0.16
X0.675Y-0.464
X0.678Y-0.93
X0.678Y-1.228
X0.68Y-1.34
X0.716Y-0.93
X0.716Y-1.228
X0.7535Y-0.9301
X0.754Y-1.228
X0.791Y-0.93
X0.792Y-1.228
X0.86Y-1.002
X0.902Y-0.86
X0.96Y-0.546
X1.234Y-1.42
X1.2347Y-1.382
X1.2565Y-1.0552
X1.272Y-1.37
X1.294Y-1.056
X1.3245Y-1.1729
X1.35Y-0.896
X1.362Y-1.172
X1.3968Y-0.936
X1.442Y-1.438
X1.46Y-0.49
X1.4955Y-1.2295
X1.532Y-1.2
X2.1524Y-0.7738
X2.2481Y-0.7719
X2.4Y-1.128
X2.5Y-1.1262
T2
X0.68Y-0.066
X0.68Y-0.116
X0.73Y-0.066
X0.73Y-0.116
X0.78Y-0.066
X0.78Y-0.116
X0.83Y-0.066
X0.83Y-0.116
X0.88Y-0.066
X0.88Y-0.116
T3
X1.55Y-0.375
X1.55Y-0.875
X1.65Y-0.375
X1.65Y-0.875
X1.75Y-0.375
X1.75Y-0.875
X1.85Y-0.375
X1.85Y-0.875
X1.95Y-0.375
X1.95Y-0.875
X2.05Y-0.375
X2.05Y-0.875
X2.15Y-0.375
X2.15Y-0.875
X2.25Y-0.375
X2.25Y-0.875
X2.4Y-0.375
X2.4Y-0.875
X2.5Y-0.375
X2.5Y-0.875
X2.6Y-0.375
X2.6Y-0.875
X2.7Y-0.375
X2.7Y-0.875
X2.8Y-0.375
X2.8Y-0.875
X2.9Y-0.375
X2.9Y-0.875
X3.0Y-0.375
X3.0Y-0.875
X3.1Y-0.375
X3.1Y-0.875
X1.55Y-1.025
X1.55Y-1.525
X1.65Y-1.025
X1.65Y-1.525
X1.75Y-1.025
X1.75Y-1.525
X1.85Y-1.025
X1.85Y-1.525
X1.95Y-1.025
X1.95Y-1.525
X2.05Y-1.025
X2.05Y-1.525
X2.15Y-1.025
X2.15Y-1.525
X2.25Y-1.025
X2.25Y-1.525
X2.4Y-1.025
X2.4Y-1.525
X2.5Y-1.025
X2.5Y-1.525
X2.6Y-1.025
X2.6Y-1.525
X2.7Y-1.025
X2.7Y-1.525
X2.8Y-1.025
X2.8Y-1.525
X2.9Y-1.025
X2.9Y-1.525
X3.0Y-1.025
X3.0Y-1.525
X3.1Y-1.025
X3.1Y-1.525
T4
X1.6Y-0.625
X2.1906Y-0.625
X1.075Y-1.525
X1.175Y-1.525
X1.275Y-1.525
X1.375Y-1.525
X2.45Y-0.625
X3.0406Y-0.625
X1.075Y-1.7
X1.075Y-1.8
X1.175Y-1.7
X1.175Y-1.8
X1.275Y-1.7
X1.275Y-1.8
X1.375Y-1.7
X1.375Y-1.8
X1.475Y-1.7
X1.475Y-1.8
X1.575Y-1.7
X1.575Y-1.8
X1.675Y-1.7
X1.675Y-1.8
X1.775Y-1.7
X1.775Y-1.8
X2.4594Y-1.275
X3.05Y-1.275
X1.6094Y-1.275
X2.2Y-1.275
T5
X1.1Y-0.15
X1.2Y-0.15
X2.4Y-1.75
X2.5Y-1.75
X2.6Y-1.75
X2.7Y-1.75
X0.376Y-0.146
X0.476Y-0.146
X1.95Y-1.75
X2.05Y-1.75
X2.15Y-1.75
X2.25Y-1.75
X2.4Y-0.15
X2.5Y-0.15
X2.6Y-0.15
X2.7Y-0.15
X1.95Y-0.15
X2.05Y-0.15
X2.15Y-0.15
X2.25Y-0.15
T6
X0.13Y-1.7913
X3.05Y-1.7913
X0.1378Y-0.1378
X3.0512Y-0.1378
T7
X0.384Y-1.7913
T2
G00X0.1043Y-0.3122
M15
G01X0.0531Y-0.3122
M16
G05
G00X0.1043Y-0.6524
M15
G01X0.0531Y-0.6524
M16
G05
G00X0.249Y-0.3122
M15
G01X0.2096Y-0.3122
M16
G05
G00X0.249Y-0.6524
M15
G01X0.2096Y-0.6524
M16
G05
T0
M30
