%TF.GenerationSoftware,KiCad,Pcbnew,(5.1.8)-1*%
%TF.CreationDate,2020-12-25T17:53:49+01:00*%
%TF.ProjectId,mmStep,6d6d5374-6570-42e6-9b69-6361645f7063,rev?*%
%TF.SameCoordinates,Original*%
%TF.FileFunction,Soldermask,Top*%
%TF.FilePolarity,Negative*%
%FSLAX46Y46*%
G04 Gerber Fmt 4.6, Leading zero omitted, Abs format (unit mm)*
G04 Created by KiCad (PCBNEW (5.1.8)-1) date 2020-12-25 17:53:49*
%MOMM*%
%LPD*%
G01*
G04 APERTURE LIST*
%ADD10O,1.600000X1.600000*%
%ADD11R,1.600000X1.600000*%
%ADD12C,5.600000*%
%ADD13O,2.000000X2.000000*%
%ADD14R,2.000000X2.000000*%
%ADD15C,6.200000*%
%ADD16R,0.300000X1.550000*%
%ADD17R,1.200000X2.750000*%
%ADD18R,0.300000X2.000000*%
%ADD19C,1.600000*%
%ADD20C,1.100000*%
%ADD21O,1.700000X1.700000*%
%ADD22R,1.700000X1.700000*%
%ADD23R,0.450000X1.750000*%
%ADD24C,2.200000*%
%ADD25R,2.200000X2.200000*%
%ADD26O,2.400000X1.200000*%
%ADD27O,2.316000X1.158000*%
%ADD28C,0.630000*%
%ADD29R,2.000000X1.000000*%
%ADD30C,0.600000*%
%ADD31R,1.500000X0.270000*%
%ADD32R,1.500000X0.520000*%
%ADD33R,1.700000X0.900000*%
%ADD34O,1.000000X1.000000*%
%ADD35R,1.000000X1.000000*%
%ADD36R,1.060000X0.650000*%
G04 APERTURE END LIST*
D10*
%TO.C,A4*%
X57150000Y-22225000D03*
X39370000Y-9525000D03*
X54610000Y-22225000D03*
X41910000Y-9525000D03*
X52070000Y-22225000D03*
X44450000Y-9525000D03*
X49530000Y-22225000D03*
X46990000Y-9525000D03*
X46990000Y-22225000D03*
X49530000Y-9525000D03*
X44450000Y-22225000D03*
X52070000Y-9525000D03*
X41910000Y-22225000D03*
X54610000Y-9525000D03*
X39370000Y-22225000D03*
D11*
X57150000Y-9525000D03*
%TD*%
D10*
%TO.C,A3*%
X78740000Y-22225000D03*
X60960000Y-9525000D03*
X76200000Y-22225000D03*
X63500000Y-9525000D03*
X73660000Y-22225000D03*
X66040000Y-9525000D03*
X71120000Y-22225000D03*
X68580000Y-9525000D03*
X68580000Y-22225000D03*
X71120000Y-9525000D03*
X66040000Y-22225000D03*
X73660000Y-9525000D03*
X63500000Y-22225000D03*
X76200000Y-9525000D03*
X60960000Y-22225000D03*
D11*
X78740000Y-9525000D03*
%TD*%
D10*
%TO.C,A1*%
X39370000Y-26035000D03*
X57150000Y-38735000D03*
X41910000Y-26035000D03*
X54610000Y-38735000D03*
X44450000Y-26035000D03*
X52070000Y-38735000D03*
X46990000Y-26035000D03*
X49530000Y-38735000D03*
X49530000Y-26035000D03*
X46990000Y-38735000D03*
X52070000Y-26035000D03*
X44450000Y-38735000D03*
X54610000Y-26035000D03*
X41910000Y-38735000D03*
X57150000Y-26035000D03*
D11*
X39370000Y-38735000D03*
%TD*%
D10*
%TO.C,A2*%
X60960000Y-26035000D03*
X78740000Y-38735000D03*
X63500000Y-26035000D03*
X76200000Y-38735000D03*
X66040000Y-26035000D03*
X73660000Y-38735000D03*
X68580000Y-26035000D03*
X71120000Y-38735000D03*
X71120000Y-26035000D03*
X68580000Y-38735000D03*
X73660000Y-26035000D03*
X66040000Y-38735000D03*
X76200000Y-26035000D03*
X63500000Y-38735000D03*
X78740000Y-26035000D03*
D11*
X60960000Y-38735000D03*
%TD*%
D12*
%TO.C,REF\u002A\u002A*%
X77470000Y-45500000D03*
%TD*%
D13*
%TO.C,C7*%
X55640000Y-15875000D03*
D14*
X40640000Y-15875000D03*
%TD*%
D13*
%TO.C,C6*%
X77230000Y-15875000D03*
D14*
X62230000Y-15875000D03*
%TD*%
D13*
%TO.C,C5*%
X62470000Y-32385000D03*
D14*
X77470000Y-32385000D03*
%TD*%
D13*
%TO.C,C4*%
X40880000Y-32385000D03*
D14*
X55880000Y-32385000D03*
%TD*%
D15*
%TO.C,J3*%
X9753600Y-45500000D03*
D16*
X8753600Y-27780000D03*
X8253600Y-27780000D03*
X7753600Y-27780000D03*
X7253600Y-27780000D03*
X9003600Y-20230000D03*
X8503600Y-20230000D03*
X8003600Y-20230000D03*
X7503600Y-20230000D03*
D17*
X24103600Y-21005000D03*
X3403600Y-21005000D03*
D16*
X23003600Y-20230000D03*
X22753600Y-27780000D03*
X22253600Y-27780000D03*
X21753600Y-27780000D03*
X21253600Y-27780000D03*
X20753600Y-27780000D03*
X20253600Y-27780000D03*
X19753600Y-27780000D03*
X19253600Y-27780000D03*
X18753600Y-27780000D03*
X18253600Y-27780000D03*
X17753600Y-27780000D03*
X17253600Y-27780000D03*
X16753600Y-27780000D03*
X16253600Y-27780000D03*
X15753600Y-27780000D03*
X15253600Y-27780000D03*
X14753600Y-27780000D03*
X14253600Y-27780000D03*
X13753600Y-27780000D03*
X13253600Y-27780000D03*
X12753600Y-27780000D03*
X12253600Y-27780000D03*
X9753600Y-27780000D03*
X9253600Y-27780000D03*
X6753600Y-27780000D03*
X6253600Y-27780000D03*
X5753600Y-27780000D03*
X5253600Y-27780000D03*
D18*
X4753600Y-28000000D03*
D16*
X22503600Y-20230000D03*
X22003600Y-20230000D03*
X21503600Y-20230000D03*
X21003600Y-20230000D03*
X20503600Y-20230000D03*
X20003600Y-20230000D03*
X19503600Y-20230000D03*
X19003600Y-20230000D03*
X18503600Y-20230000D03*
X18003600Y-20230000D03*
X17503600Y-20230000D03*
X17003600Y-20230000D03*
X16503600Y-20230000D03*
X16003600Y-20230000D03*
X15503600Y-20230000D03*
X15003600Y-20230000D03*
X14503600Y-20230000D03*
X14003600Y-20230000D03*
X13503600Y-20230000D03*
X13003600Y-20230000D03*
X12503600Y-20230000D03*
X10003600Y-20230000D03*
X9503600Y-20230000D03*
X7003600Y-20230000D03*
X6503600Y-20230000D03*
X6003600Y-20230000D03*
X5503600Y-20230000D03*
X5003600Y-20230000D03*
X4503600Y-20230000D03*
D19*
X23753600Y-25505000D03*
D20*
X3753600Y-25505000D03*
%TD*%
%TO.C,R4*%
G36*
G01*
X27729601Y-34611000D02*
X26829599Y-34611000D01*
G75*
G02*
X26579600Y-34361001I0J249999D01*
G01*
X26579600Y-33710999D01*
G75*
G02*
X26829599Y-33461000I249999J0D01*
G01*
X27729601Y-33461000D01*
G75*
G02*
X27979600Y-33710999I0J-249999D01*
G01*
X27979600Y-34361001D01*
G75*
G02*
X27729601Y-34611000I-249999J0D01*
G01*
G37*
G36*
G01*
X27729601Y-36661000D02*
X26829599Y-36661000D01*
G75*
G02*
X26579600Y-36411001I0J249999D01*
G01*
X26579600Y-35760999D01*
G75*
G02*
X26829599Y-35511000I249999J0D01*
G01*
X27729601Y-35511000D01*
G75*
G02*
X27979600Y-35760999I0J-249999D01*
G01*
X27979600Y-36411001D01*
G75*
G02*
X27729601Y-36661000I-249999J0D01*
G01*
G37*
%TD*%
%TO.C,R3*%
G36*
G01*
X30320401Y-34611000D02*
X29420399Y-34611000D01*
G75*
G02*
X29170400Y-34361001I0J249999D01*
G01*
X29170400Y-33710999D01*
G75*
G02*
X29420399Y-33461000I249999J0D01*
G01*
X30320401Y-33461000D01*
G75*
G02*
X30570400Y-33710999I0J-249999D01*
G01*
X30570400Y-34361001D01*
G75*
G02*
X30320401Y-34611000I-249999J0D01*
G01*
G37*
G36*
G01*
X30320401Y-36661000D02*
X29420399Y-36661000D01*
G75*
G02*
X29170400Y-36411001I0J249999D01*
G01*
X29170400Y-35760999D01*
G75*
G02*
X29420399Y-35511000I249999J0D01*
G01*
X30320401Y-35511000D01*
G75*
G02*
X30570400Y-35760999I0J-249999D01*
G01*
X30570400Y-36411001D01*
G75*
G02*
X30320401Y-36661000I-249999J0D01*
G01*
G37*
%TD*%
D21*
%TO.C,J5*%
X34925000Y-38735000D03*
X32385000Y-38735000D03*
X29845000Y-38735000D03*
D22*
X27305000Y-38735000D03*
%TD*%
D21*
%TO.C,J1*%
X45085000Y-43180000D03*
X45085000Y-45720000D03*
X42545000Y-43180000D03*
X42545000Y-45720000D03*
X40005000Y-43180000D03*
X40005000Y-45720000D03*
X37465000Y-43180000D03*
X37465000Y-45720000D03*
X34925000Y-43180000D03*
X34925000Y-45720000D03*
X32385000Y-43180000D03*
X32385000Y-45720000D03*
X29845000Y-43180000D03*
X29845000Y-45720000D03*
X27305000Y-43180000D03*
D22*
X27305000Y-45720000D03*
%TD*%
D23*
%TO.C,U2*%
X26890000Y-21165000D03*
X27540000Y-21165000D03*
X28190000Y-21165000D03*
X28840000Y-21165000D03*
X29490000Y-21165000D03*
X30140000Y-21165000D03*
X30790000Y-21165000D03*
X31440000Y-21165000D03*
X32090000Y-21165000D03*
X32740000Y-21165000D03*
X33390000Y-21165000D03*
X34040000Y-21165000D03*
X34690000Y-21165000D03*
X35340000Y-21165000D03*
X35340000Y-28365000D03*
X34690000Y-28365000D03*
X34040000Y-28365000D03*
X33390000Y-28365000D03*
X32740000Y-28365000D03*
X32090000Y-28365000D03*
X31440000Y-28365000D03*
X30790000Y-28365000D03*
X30140000Y-28365000D03*
X29490000Y-28365000D03*
X28840000Y-28365000D03*
X28190000Y-28365000D03*
X27540000Y-28365000D03*
X26890000Y-28365000D03*
%TD*%
D20*
%TO.C,J11*%
X27940000Y-1270000D03*
D24*
X27940000Y-3810000D03*
D20*
X30480000Y-1270000D03*
D25*
X30480000Y-3810000D03*
%TD*%
D24*
%TO.C,J9*%
X60960000Y-3810000D03*
X63500000Y-3810000D03*
X66040000Y-3810000D03*
D25*
X68580000Y-3810000D03*
%TD*%
D24*
%TO.C,J10*%
X49530000Y-3810000D03*
X52070000Y-3810000D03*
X54610000Y-3810000D03*
D25*
X57150000Y-3810000D03*
%TD*%
D24*
%TO.C,J8*%
X57150000Y-44450000D03*
X54610000Y-44450000D03*
X52070000Y-44450000D03*
D25*
X49530000Y-44450000D03*
%TD*%
D24*
%TO.C,J7*%
X68580000Y-44450000D03*
X66040000Y-44450000D03*
X63500000Y-44450000D03*
D25*
X60960000Y-44450000D03*
%TD*%
D26*
%TO.C,J2*%
X2000000Y-16570000D03*
X2000000Y-7930000D03*
D27*
X5825000Y-16570000D03*
X5825000Y-7930000D03*
D28*
X5100000Y-9250000D03*
D29*
X2000000Y-13650000D03*
X2000000Y-10850000D03*
D28*
X5100000Y-15250000D03*
D30*
X5100000Y-15250000D03*
D31*
X6400000Y-13500000D03*
X6400000Y-13000000D03*
X6400000Y-12500000D03*
X6400000Y-12000000D03*
X6400000Y-11500000D03*
X6400000Y-11000000D03*
X6400000Y-14000000D03*
X6400000Y-10500000D03*
D32*
X6400000Y-14600000D03*
X6400000Y-9900000D03*
X6400000Y-15350000D03*
X6400000Y-9150000D03*
%TD*%
D12*
%TO.C,REF\u002A\u002A*%
X3500000Y-3500000D03*
%TD*%
%TO.C,REF\u002A\u002A*%
X77500000Y-3500000D03*
%TD*%
%TO.C,REF\u002A\u002A*%
X3302000Y-45500000D03*
%TD*%
%TO.C,R5*%
G36*
G01*
X17837999Y-14318400D02*
X18738001Y-14318400D01*
G75*
G02*
X18988000Y-14568399I0J-249999D01*
G01*
X18988000Y-15218401D01*
G75*
G02*
X18738001Y-15468400I-249999J0D01*
G01*
X17837999Y-15468400D01*
G75*
G02*
X17588000Y-15218401I0J249999D01*
G01*
X17588000Y-14568399D01*
G75*
G02*
X17837999Y-14318400I249999J0D01*
G01*
G37*
G36*
G01*
X17837999Y-12268400D02*
X18738001Y-12268400D01*
G75*
G02*
X18988000Y-12518399I0J-249999D01*
G01*
X18988000Y-13168401D01*
G75*
G02*
X18738001Y-13418400I-249999J0D01*
G01*
X17837999Y-13418400D01*
G75*
G02*
X17588000Y-13168401I0J249999D01*
G01*
X17588000Y-12518399D01*
G75*
G02*
X17837999Y-12268400I249999J0D01*
G01*
G37*
%TD*%
%TO.C,D1*%
G36*
G01*
X21444800Y-13418399D02*
X21444800Y-14318401D01*
G75*
G02*
X21194801Y-14568400I-249999J0D01*
G01*
X20544799Y-14568400D01*
G75*
G02*
X20294800Y-14318401I0J249999D01*
G01*
X20294800Y-13418399D01*
G75*
G02*
X20544799Y-13168400I249999J0D01*
G01*
X21194801Y-13168400D01*
G75*
G02*
X21444800Y-13418399I0J-249999D01*
G01*
G37*
G36*
G01*
X23494800Y-13418399D02*
X23494800Y-14318401D01*
G75*
G02*
X23244801Y-14568400I-249999J0D01*
G01*
X22594799Y-14568400D01*
G75*
G02*
X22344800Y-14318401I0J249999D01*
G01*
X22344800Y-13418399D01*
G75*
G02*
X22594799Y-13168400I249999J0D01*
G01*
X23244801Y-13168400D01*
G75*
G02*
X23494800Y-13418399I0J-249999D01*
G01*
G37*
%TD*%
D33*
%TO.C,SW2*%
X22250400Y-6682000D03*
X22250400Y-10082000D03*
%TD*%
%TO.C,SW1*%
X18288000Y-6658400D03*
X18288000Y-10058400D03*
%TD*%
D34*
%TO.C,J4*%
X22352000Y-1676400D03*
X22352000Y-2946400D03*
X21082000Y-1676400D03*
X21082000Y-2946400D03*
X19812000Y-1676400D03*
X19812000Y-2946400D03*
X18542000Y-1676400D03*
X18542000Y-2946400D03*
X17272000Y-1676400D03*
D35*
X17272000Y-2946400D03*
%TD*%
%TO.C,R2*%
G36*
G01*
X9100001Y-9025000D02*
X8199999Y-9025000D01*
G75*
G02*
X7950000Y-8775001I0J249999D01*
G01*
X7950000Y-8124999D01*
G75*
G02*
X8199999Y-7875000I249999J0D01*
G01*
X9100001Y-7875000D01*
G75*
G02*
X9350000Y-8124999I0J-249999D01*
G01*
X9350000Y-8775001D01*
G75*
G02*
X9100001Y-9025000I-249999J0D01*
G01*
G37*
G36*
G01*
X9100001Y-11075000D02*
X8199999Y-11075000D01*
G75*
G02*
X7950000Y-10825001I0J249999D01*
G01*
X7950000Y-10174999D01*
G75*
G02*
X8199999Y-9925000I249999J0D01*
G01*
X9100001Y-9925000D01*
G75*
G02*
X9350000Y-10174999I0J-249999D01*
G01*
X9350000Y-10825001D01*
G75*
G02*
X9100001Y-11075000I-249999J0D01*
G01*
G37*
%TD*%
%TO.C,R1*%
G36*
G01*
X8199999Y-15071400D02*
X9100001Y-15071400D01*
G75*
G02*
X9350000Y-15321399I0J-249999D01*
G01*
X9350000Y-15971401D01*
G75*
G02*
X9100001Y-16221400I-249999J0D01*
G01*
X8199999Y-16221400D01*
G75*
G02*
X7950000Y-15971401I0J249999D01*
G01*
X7950000Y-15321399D01*
G75*
G02*
X8199999Y-15071400I249999J0D01*
G01*
G37*
G36*
G01*
X8199999Y-13021400D02*
X9100001Y-13021400D01*
G75*
G02*
X9350000Y-13271399I0J-249999D01*
G01*
X9350000Y-13921401D01*
G75*
G02*
X9100001Y-14171400I-249999J0D01*
G01*
X8199999Y-14171400D01*
G75*
G02*
X7950000Y-13921401I0J249999D01*
G01*
X7950000Y-13271399D01*
G75*
G02*
X8199999Y-13021400I249999J0D01*
G01*
G37*
%TD*%
D20*
%TO.C,J6*%
X9550400Y-1168400D03*
D24*
X9550400Y-3708400D03*
D20*
X12090400Y-1168400D03*
D25*
X12090400Y-3708400D03*
%TD*%
D36*
%TO.C,U1*%
X13444400Y-11734000D03*
X13444400Y-13634000D03*
X11244400Y-13634000D03*
X11244400Y-12684000D03*
X11244400Y-11734000D03*
%TD*%
%TO.C,C3*%
G36*
G01*
X15047199Y-14244400D02*
X16347201Y-14244400D01*
G75*
G02*
X16597200Y-14494399I0J-249999D01*
G01*
X16597200Y-15319401D01*
G75*
G02*
X16347201Y-15569400I-249999J0D01*
G01*
X15047199Y-15569400D01*
G75*
G02*
X14797200Y-15319401I0J249999D01*
G01*
X14797200Y-14494399D01*
G75*
G02*
X15047199Y-14244400I249999J0D01*
G01*
G37*
G36*
G01*
X15047199Y-11119400D02*
X16347201Y-11119400D01*
G75*
G02*
X16597200Y-11369399I0J-249999D01*
G01*
X16597200Y-12194401D01*
G75*
G02*
X16347201Y-12444400I-249999J0D01*
G01*
X15047199Y-12444400D01*
G75*
G02*
X14797200Y-12194401I0J249999D01*
G01*
X14797200Y-11369399D01*
G75*
G02*
X15047199Y-11119400I249999J0D01*
G01*
G37*
%TD*%
%TO.C,C2*%
G36*
G01*
X11843600Y-15180399D02*
X11843600Y-16080401D01*
G75*
G02*
X11593601Y-16330400I-249999J0D01*
G01*
X10943599Y-16330400D01*
G75*
G02*
X10693600Y-16080401I0J249999D01*
G01*
X10693600Y-15180399D01*
G75*
G02*
X10943599Y-14930400I249999J0D01*
G01*
X11593601Y-14930400D01*
G75*
G02*
X11843600Y-15180399I0J-249999D01*
G01*
G37*
G36*
G01*
X13893600Y-15180399D02*
X13893600Y-16080401D01*
G75*
G02*
X13643601Y-16330400I-249999J0D01*
G01*
X12993599Y-16330400D01*
G75*
G02*
X12743600Y-16080401I0J249999D01*
G01*
X12743600Y-15180399D01*
G75*
G02*
X12993599Y-14930400I249999J0D01*
G01*
X13643601Y-14930400D01*
G75*
G02*
X13893600Y-15180399I0J-249999D01*
G01*
G37*
%TD*%
%TO.C,C1*%
G36*
G01*
X13713900Y-10098801D02*
X13713900Y-8798799D01*
G75*
G02*
X13963899Y-8548800I249999J0D01*
G01*
X14788901Y-8548800D01*
G75*
G02*
X15038900Y-8798799I0J-249999D01*
G01*
X15038900Y-10098801D01*
G75*
G02*
X14788901Y-10348800I-249999J0D01*
G01*
X13963899Y-10348800D01*
G75*
G02*
X13713900Y-10098801I0J249999D01*
G01*
G37*
G36*
G01*
X10588900Y-10098801D02*
X10588900Y-8798799D01*
G75*
G02*
X10838899Y-8548800I249999J0D01*
G01*
X11663901Y-8548800D01*
G75*
G02*
X11913900Y-8798799I0J-249999D01*
G01*
X11913900Y-10098801D01*
G75*
G02*
X11663901Y-10348800I-249999J0D01*
G01*
X10838899Y-10348800D01*
G75*
G02*
X10588900Y-10098801I0J249999D01*
G01*
G37*
%TD*%
M02*
