G04 #@! TF.GenerationSoftware,KiCad,Pcbnew,(5.1.8)-1*
G04 #@! TF.CreationDate,2020-12-27T14:08:24+01:00*
G04 #@! TF.ProjectId,mmStep,6d6d5374-6570-42e6-9b69-6361645f7063,rev?*
G04 #@! TF.SameCoordinates,Original*
G04 #@! TF.FileFunction,Legend,Top*
G04 #@! TF.FilePolarity,Positive*
%FSLAX46Y46*%
G04 Gerber Fmt 4.6, Leading zero omitted, Abs format (unit mm)*
G04 Created by KiCad (PCBNEW (5.1.8)-1) date 2020-12-27 14:08:24*
%MOMM*%
%LPD*%
G01*
G04 APERTURE LIST*
%ADD10C,0.152400*%
%ADD11C,0.120000*%
%ADD12C,0.127000*%
%ADD13C,0.150000*%
%ADD14C,0.250000*%
%ADD15C,0.200000*%
G04 APERTURE END LIST*
D10*
X16205200Y-3551766D02*
X15697200Y-3551766D01*
X15951200Y-3551766D02*
X15951200Y-2662766D01*
X15866533Y-2789766D01*
X15781866Y-2874433D01*
X15697200Y-2916766D01*
X25196800Y-42676233D02*
X25239133Y-42633900D01*
X25323800Y-42591566D01*
X25535466Y-42591566D01*
X25620133Y-42633900D01*
X25662466Y-42676233D01*
X25704800Y-42760900D01*
X25704800Y-42845566D01*
X25662466Y-42972566D01*
X25154466Y-43480566D01*
X25704800Y-43480566D01*
X32463014Y-36889871D02*
X32463014Y-35746871D01*
X32952871Y-35855728D02*
X33007300Y-35801300D01*
X33116157Y-35746871D01*
X33388300Y-35746871D01*
X33497157Y-35801300D01*
X33551585Y-35855728D01*
X33606014Y-35964585D01*
X33606014Y-36073442D01*
X33551585Y-36236728D01*
X32898442Y-36889871D01*
X33606014Y-36889871D01*
X34749014Y-36781014D02*
X34694585Y-36835442D01*
X34531300Y-36889871D01*
X34422442Y-36889871D01*
X34259157Y-36835442D01*
X34150300Y-36726585D01*
X34095871Y-36617728D01*
X34041442Y-36400014D01*
X34041442Y-36236728D01*
X34095871Y-36019014D01*
X34150300Y-35910157D01*
X34259157Y-35801300D01*
X34422442Y-35746871D01*
X34531300Y-35746871D01*
X34694585Y-35801300D01*
X34749014Y-35855728D01*
X25446566Y-6129866D02*
X25404233Y-6214533D01*
X25361900Y-6256866D01*
X25277233Y-6299200D01*
X25234900Y-6299200D01*
X25150233Y-6256866D01*
X25107900Y-6214533D01*
X25065566Y-6129866D01*
X25065566Y-5960533D01*
X25107900Y-5875866D01*
X25150233Y-5833533D01*
X25234900Y-5791200D01*
X25277233Y-5791200D01*
X25361900Y-5833533D01*
X25404233Y-5875866D01*
X25446566Y-5960533D01*
X25446566Y-6129866D01*
X25488900Y-6214533D01*
X25531233Y-6256866D01*
X25615900Y-6299200D01*
X25785233Y-6299200D01*
X25869900Y-6256866D01*
X25912233Y-6214533D01*
X25954566Y-6129866D01*
X25954566Y-5960533D01*
X25912233Y-5875866D01*
X25869900Y-5833533D01*
X25785233Y-5791200D01*
X25615900Y-5791200D01*
X25531233Y-5833533D01*
X25488900Y-5875866D01*
X25446566Y-5960533D01*
X25615900Y-5410200D02*
X25615900Y-4732866D01*
X25065566Y-4394200D02*
X25065566Y-3843866D01*
X25404233Y-4140200D01*
X25404233Y-4013200D01*
X25446566Y-3928533D01*
X25488900Y-3886200D01*
X25573566Y-3843866D01*
X25785233Y-3843866D01*
X25869900Y-3886200D01*
X25912233Y-3928533D01*
X25954566Y-4013200D01*
X25954566Y-4267200D01*
X25912233Y-4351866D01*
X25869900Y-4394200D01*
X25065566Y-3039533D02*
X25065566Y-3462866D01*
X25488900Y-3505200D01*
X25446566Y-3462866D01*
X25404233Y-3378200D01*
X25404233Y-3166533D01*
X25446566Y-3081866D01*
X25488900Y-3039533D01*
X25573566Y-2997200D01*
X25785233Y-2997200D01*
X25869900Y-3039533D01*
X25912233Y-3081866D01*
X25954566Y-3166533D01*
X25954566Y-3378200D01*
X25912233Y-3462866D01*
X25869900Y-3505200D01*
X25065566Y-2743200D02*
X25954566Y-2446866D01*
X25065566Y-2150533D01*
D11*
X24917400Y-1168400D02*
X26187400Y-1168400D01*
D12*
X26187400Y-1168400D02*
G75*
G03*
X26187400Y-1168400I-635000J0D01*
G01*
D11*
X25552400Y-533400D02*
X25552400Y-1778000D01*
X32766000Y-1270000D02*
X33934400Y-1270000D01*
D12*
X34010600Y-1066800D02*
G75*
G03*
X34010600Y-1066800I-635000J0D01*
G01*
D11*
X33375600Y-431800D02*
X33375600Y-1270000D01*
D10*
X25603200Y-39060966D02*
X25095200Y-39060966D01*
X25349200Y-39060966D02*
X25349200Y-38171966D01*
X25264533Y-38298966D01*
X25179866Y-38383633D01*
X25095200Y-38425966D01*
X47493766Y-43196933D02*
X47493766Y-43704933D01*
X47493766Y-43450933D02*
X46604766Y-43450933D01*
X46731766Y-43535600D01*
X46816433Y-43620266D01*
X46858766Y-43704933D01*
X46604766Y-42434933D02*
X46604766Y-42604266D01*
X46647100Y-42688933D01*
X46689433Y-42731266D01*
X46816433Y-42815933D01*
X46985766Y-42858266D01*
X47324433Y-42858266D01*
X47409100Y-42815933D01*
X47451433Y-42773600D01*
X47493766Y-42688933D01*
X47493766Y-42519600D01*
X47451433Y-42434933D01*
X47409100Y-42392600D01*
X47324433Y-42350266D01*
X47112766Y-42350266D01*
X47028100Y-42392600D01*
X46985766Y-42434933D01*
X46943433Y-42519600D01*
X46943433Y-42688933D01*
X46985766Y-42773600D01*
X47028100Y-42815933D01*
X47112766Y-42858266D01*
X47544566Y-45889333D02*
X47544566Y-46397333D01*
X47544566Y-46143333D02*
X46655566Y-46143333D01*
X46782566Y-46228000D01*
X46867233Y-46312666D01*
X46909566Y-46397333D01*
X46655566Y-45085000D02*
X46655566Y-45508333D01*
X47078900Y-45550666D01*
X47036566Y-45508333D01*
X46994233Y-45423666D01*
X46994233Y-45212000D01*
X47036566Y-45127333D01*
X47078900Y-45085000D01*
X47163566Y-45042666D01*
X47375233Y-45042666D01*
X47459900Y-45085000D01*
X47502233Y-45127333D01*
X47544566Y-45212000D01*
X47544566Y-45423666D01*
X47502233Y-45508333D01*
X47459900Y-45550666D01*
X25704800Y-46172966D02*
X25196800Y-46172966D01*
X25450800Y-46172966D02*
X25450800Y-45283966D01*
X25366133Y-45410966D01*
X25281466Y-45495633D01*
X25196800Y-45537966D01*
X24163866Y-14118166D02*
X24163866Y-13229166D01*
X24502533Y-13229166D01*
X24587200Y-13271500D01*
X24629533Y-13313833D01*
X24671866Y-13398500D01*
X24671866Y-13525500D01*
X24629533Y-13610166D01*
X24587200Y-13652500D01*
X24502533Y-13694833D01*
X24163866Y-13694833D01*
X24968200Y-13229166D02*
X25179866Y-14118166D01*
X25349200Y-13483166D01*
X25518533Y-14118166D01*
X25730200Y-13229166D01*
X26576866Y-14118166D02*
X26280533Y-13694833D01*
X26068866Y-14118166D02*
X26068866Y-13229166D01*
X26407533Y-13229166D01*
X26492200Y-13271500D01*
X26534533Y-13313833D01*
X26576866Y-13398500D01*
X26576866Y-13525500D01*
X26534533Y-13610166D01*
X26492200Y-13652500D01*
X26407533Y-13694833D01*
X26068866Y-13694833D01*
D11*
X6527800Y-1524000D02*
X7797800Y-1524000D01*
X7162800Y-889000D02*
X7162800Y-2133600D01*
D12*
X7797800Y-1524000D02*
G75*
G03*
X7797800Y-1524000I-635000J0D01*
G01*
D11*
X14681200Y-787400D02*
X14681200Y-1625600D01*
X14071600Y-1625600D02*
X15240000Y-1625600D01*
D12*
X15316200Y-1422400D02*
G75*
G03*
X15316200Y-1422400I-635000J0D01*
G01*
D10*
X24472900Y-9690100D02*
X24515233Y-9563100D01*
X24557566Y-9520766D01*
X24642233Y-9478433D01*
X24769233Y-9478433D01*
X24853900Y-9520766D01*
X24896233Y-9563100D01*
X24938566Y-9647766D01*
X24938566Y-9986433D01*
X24049566Y-9986433D01*
X24049566Y-9690100D01*
X24091900Y-9605433D01*
X24134233Y-9563100D01*
X24218900Y-9520766D01*
X24303566Y-9520766D01*
X24388233Y-9563100D01*
X24430566Y-9605433D01*
X24472900Y-9690100D01*
X24472900Y-9986433D01*
X24049566Y-8928100D02*
X24049566Y-8758766D01*
X24091900Y-8674100D01*
X24176566Y-8589433D01*
X24345900Y-8547100D01*
X24642233Y-8547100D01*
X24811566Y-8589433D01*
X24896233Y-8674100D01*
X24938566Y-8758766D01*
X24938566Y-8928100D01*
X24896233Y-9012766D01*
X24811566Y-9097433D01*
X24642233Y-9139766D01*
X24345900Y-9139766D01*
X24176566Y-9097433D01*
X24091900Y-9012766D01*
X24049566Y-8928100D01*
X24049566Y-7996766D02*
X24049566Y-7827433D01*
X24091900Y-7742766D01*
X24176566Y-7658100D01*
X24345900Y-7615766D01*
X24642233Y-7615766D01*
X24811566Y-7658100D01*
X24896233Y-7742766D01*
X24938566Y-7827433D01*
X24938566Y-7996766D01*
X24896233Y-8081433D01*
X24811566Y-8166100D01*
X24642233Y-8208433D01*
X24345900Y-8208433D01*
X24176566Y-8166100D01*
X24091900Y-8081433D01*
X24049566Y-7996766D01*
X24049566Y-7361766D02*
X24049566Y-6853766D01*
X24938566Y-7107766D02*
X24049566Y-7107766D01*
X16607366Y-9622366D02*
X16184033Y-9918699D01*
X16607366Y-10130366D02*
X15718366Y-10130366D01*
X15718366Y-9791699D01*
X15760700Y-9707033D01*
X15803033Y-9664699D01*
X15887700Y-9622366D01*
X16014700Y-9622366D01*
X16099366Y-9664699D01*
X16141700Y-9707033D01*
X16184033Y-9791699D01*
X16184033Y-10130366D01*
X16141700Y-9241366D02*
X16141700Y-8945033D01*
X16607366Y-8818033D02*
X16607366Y-9241366D01*
X15718366Y-9241366D01*
X15718366Y-8818033D01*
X16565033Y-8479366D02*
X16607366Y-8352366D01*
X16607366Y-8140700D01*
X16565033Y-8056033D01*
X16522700Y-8013700D01*
X16438033Y-7971366D01*
X16353366Y-7971366D01*
X16268700Y-8013700D01*
X16226366Y-8056033D01*
X16184033Y-8140700D01*
X16141700Y-8310033D01*
X16099366Y-8394700D01*
X16057033Y-8437033D01*
X15972366Y-8479366D01*
X15887700Y-8479366D01*
X15803033Y-8437033D01*
X15760700Y-8394700D01*
X15718366Y-8310033D01*
X15718366Y-8098366D01*
X15760700Y-7971366D01*
X16141700Y-7590366D02*
X16141700Y-7294033D01*
X16607366Y-7167033D02*
X16607366Y-7590366D01*
X15718366Y-7590366D01*
X15718366Y-7167033D01*
X15718366Y-6913033D02*
X15718366Y-6405033D01*
X16607366Y-6659033D02*
X15718366Y-6659033D01*
D11*
X20523200Y-4419600D02*
X20523200Y-4114800D01*
X19151600Y-4419600D02*
X20523200Y-4419600D01*
X19151600Y-4114800D02*
X19151600Y-4419600D01*
D10*
X6972300Y-6239933D02*
X7564966Y-6239933D01*
X6633633Y-6451600D02*
X7268633Y-6663266D01*
X7268633Y-6112933D01*
X6675966Y-5901266D02*
X7564966Y-5604933D01*
X6675966Y-5308600D01*
X7226300Y-5012266D02*
X7226300Y-4334933D01*
X6675966Y-3530600D02*
X6675966Y-3699933D01*
X6718300Y-3784600D01*
X6760633Y-3826933D01*
X6887633Y-3911600D01*
X7056966Y-3953933D01*
X7395633Y-3953933D01*
X7480300Y-3911600D01*
X7522633Y-3869266D01*
X7564966Y-3784600D01*
X7564966Y-3615266D01*
X7522633Y-3530600D01*
X7480300Y-3488266D01*
X7395633Y-3445933D01*
X7183966Y-3445933D01*
X7099300Y-3488266D01*
X7056966Y-3530600D01*
X7014633Y-3615266D01*
X7014633Y-3784600D01*
X7056966Y-3869266D01*
X7099300Y-3911600D01*
X7183966Y-3953933D01*
X6675966Y-3191933D02*
X7564966Y-2895600D01*
X6675966Y-2599266D01*
D13*
X15853833Y-5490633D02*
X15980833Y-5532966D01*
X16192500Y-5532966D01*
X16277166Y-5490633D01*
X16319500Y-5448300D01*
X16361833Y-5363633D01*
X16361833Y-5278966D01*
X16319500Y-5194300D01*
X16277166Y-5151966D01*
X16192500Y-5109633D01*
X16023166Y-5067300D01*
X15938500Y-5024966D01*
X15896166Y-4982633D01*
X15853833Y-4897966D01*
X15853833Y-4813300D01*
X15896166Y-4728633D01*
X15938500Y-4686300D01*
X16023166Y-4643966D01*
X16234833Y-4643966D01*
X16361833Y-4686300D01*
X16658166Y-4643966D02*
X16869833Y-5532966D01*
X17039166Y-4897966D01*
X17208500Y-5532966D01*
X17420166Y-4643966D01*
X17758833Y-5532966D02*
X17758833Y-4643966D01*
X17970500Y-4643966D01*
X18097500Y-4686300D01*
X18182166Y-4770966D01*
X18224500Y-4855633D01*
X18266833Y-5024966D01*
X18266833Y-5151966D01*
X18224500Y-5321300D01*
X18182166Y-5405966D01*
X18097500Y-5490633D01*
X17970500Y-5532966D01*
X17758833Y-5532966D01*
X18647833Y-5194300D02*
X19325166Y-5194300D01*
X19748500Y-5532966D02*
X19748500Y-4643966D01*
X19960166Y-4643966D01*
X20087166Y-4686300D01*
X20171833Y-4770966D01*
X20214166Y-4855633D01*
X20256500Y-5024966D01*
X20256500Y-5151966D01*
X20214166Y-5321300D01*
X20171833Y-5405966D01*
X20087166Y-5490633D01*
X19960166Y-5532966D01*
X19748500Y-5532966D01*
X20637500Y-5067300D02*
X20933833Y-5067300D01*
X21060833Y-5532966D02*
X20637500Y-5532966D01*
X20637500Y-4643966D01*
X21060833Y-4643966D01*
X21738166Y-5067300D02*
X21865166Y-5109633D01*
X21907500Y-5151966D01*
X21949833Y-5236633D01*
X21949833Y-5363633D01*
X21907500Y-5448300D01*
X21865166Y-5490633D01*
X21780500Y-5532966D01*
X21441833Y-5532966D01*
X21441833Y-4643966D01*
X21738166Y-4643966D01*
X21822833Y-4686300D01*
X21865166Y-4728633D01*
X21907500Y-4813300D01*
X21907500Y-4897966D01*
X21865166Y-4982633D01*
X21822833Y-5024966D01*
X21738166Y-5067300D01*
X21441833Y-5067300D01*
X22330833Y-4643966D02*
X22330833Y-5363633D01*
X22373166Y-5448300D01*
X22415500Y-5490633D01*
X22500166Y-5532966D01*
X22669500Y-5532966D01*
X22754166Y-5490633D01*
X22796500Y-5448300D01*
X22838833Y-5363633D01*
X22838833Y-4643966D01*
X23727833Y-4686300D02*
X23643166Y-4643966D01*
X23516166Y-4643966D01*
X23389166Y-4686300D01*
X23304500Y-4770966D01*
X23262166Y-4855633D01*
X23219833Y-5024966D01*
X23219833Y-5151966D01*
X23262166Y-5321300D01*
X23304500Y-5405966D01*
X23389166Y-5490633D01*
X23516166Y-5532966D01*
X23600833Y-5532966D01*
X23727833Y-5490633D01*
X23770166Y-5448300D01*
X23770166Y-5151966D01*
X23600833Y-5151966D01*
D11*
X3753600Y-29000000D02*
G75*
G02*
X3253600Y-29500000I-500000J0D01*
G01*
X2753600Y-30000000D02*
G75*
G02*
X3253600Y-29500000I500000J0D01*
G01*
X24253600Y-29500000D02*
G75*
G02*
X23753600Y-29000000I0J500000D01*
G01*
X24253600Y-29500000D02*
G75*
G02*
X24753600Y-30000000I0J-500000D01*
G01*
X3253600Y-45500000D02*
G75*
G02*
X2753600Y-45000000I0J500000D01*
G01*
X24753600Y-45000000D02*
G75*
G02*
X24253600Y-45500000I-500000J0D01*
G01*
D14*
X4628600Y-18655000D02*
G75*
G03*
X4628600Y-18655000I-125000J0D01*
G01*
D13*
X10528600Y-20155000D02*
X11978600Y-20155000D01*
X24753600Y-28105000D02*
X24753600Y-26680000D01*
X24753600Y-24330000D02*
X24753600Y-22755000D01*
X2753600Y-28105000D02*
X4228600Y-28105000D01*
X10278600Y-28105000D02*
X11728600Y-28105000D01*
X23278600Y-28105000D02*
X24753600Y-28105000D01*
X2753600Y-28105000D02*
X2753600Y-22755000D01*
D11*
X3753600Y-29000000D02*
X3753600Y-28100000D01*
X12753600Y-45500000D02*
G75*
G03*
X12753600Y-45500000I-3000000J0D01*
G01*
X3253600Y-45500000D02*
X24253600Y-45500000D01*
X24753600Y-45000000D02*
X24753600Y-30000000D01*
X23753600Y-29000000D02*
X23753600Y-28100000D01*
X2753600Y-45000000D02*
X2753600Y-30000000D01*
X58550000Y-20955000D02*
X37970000Y-20955000D01*
X55880000Y-10795000D02*
X37970000Y-10795000D01*
X58550000Y-9525000D02*
X58550000Y-8125000D01*
X58550000Y-8125000D02*
X57150000Y-8125000D01*
X58550000Y-10795000D02*
X55880000Y-10795000D01*
X55880000Y-10795000D02*
X55880000Y-8125000D01*
X55880000Y-8125000D02*
X37970000Y-8125000D01*
X37970000Y-8125000D02*
X37970000Y-23625000D01*
X37970000Y-23625000D02*
X58550000Y-23625000D01*
X58550000Y-23625000D02*
X58550000Y-10795000D01*
X80140000Y-20955000D02*
X59560000Y-20955000D01*
X77470000Y-10795000D02*
X59560000Y-10795000D01*
X80140000Y-9525000D02*
X80140000Y-8125000D01*
X80140000Y-8125000D02*
X78740000Y-8125000D01*
X80140000Y-10795000D02*
X77470000Y-10795000D01*
X77470000Y-10795000D02*
X77470000Y-8125000D01*
X77470000Y-8125000D02*
X59560000Y-8125000D01*
X59560000Y-8125000D02*
X59560000Y-23625000D01*
X59560000Y-23625000D02*
X80140000Y-23625000D01*
X80140000Y-23625000D02*
X80140000Y-10795000D01*
X37970000Y-27305000D02*
X58550000Y-27305000D01*
X40640000Y-37465000D02*
X58550000Y-37465000D01*
X37970000Y-38735000D02*
X37970000Y-40135000D01*
X37970000Y-40135000D02*
X39370000Y-40135000D01*
X37970000Y-37465000D02*
X40640000Y-37465000D01*
X40640000Y-37465000D02*
X40640000Y-40135000D01*
X40640000Y-40135000D02*
X58550000Y-40135000D01*
X58550000Y-40135000D02*
X58550000Y-24635000D01*
X58550000Y-24635000D02*
X37970000Y-24635000D01*
X37970000Y-24635000D02*
X37970000Y-37465000D01*
X59560000Y-27305000D02*
X80140000Y-27305000D01*
X62230000Y-37465000D02*
X80140000Y-37465000D01*
X59560000Y-38735000D02*
X59560000Y-40135000D01*
X59560000Y-40135000D02*
X60960000Y-40135000D01*
X59560000Y-37465000D02*
X62230000Y-37465000D01*
X62230000Y-37465000D02*
X62230000Y-40135000D01*
X62230000Y-40135000D02*
X80140000Y-40135000D01*
X80140000Y-40135000D02*
X80140000Y-24635000D01*
X80140000Y-24635000D02*
X59560000Y-24635000D01*
X59560000Y-24635000D02*
X59560000Y-37465000D01*
X26569600Y-35322252D02*
X26569600Y-34799748D01*
X27989600Y-35322252D02*
X27989600Y-34799748D01*
X29160400Y-35322252D02*
X29160400Y-34799748D01*
X30580400Y-35322252D02*
X30580400Y-34799748D01*
X36255000Y-40065000D02*
X36255000Y-37405000D01*
X28575000Y-40065000D02*
X36255000Y-40065000D01*
X28575000Y-37405000D02*
X36255000Y-37405000D01*
X28575000Y-40065000D02*
X28575000Y-37405000D01*
X27305000Y-40065000D02*
X25975000Y-40065000D01*
X25975000Y-40065000D02*
X25975000Y-38735000D01*
X46415000Y-47050000D02*
X46415000Y-41850000D01*
X28575000Y-47050000D02*
X46415000Y-47050000D01*
X25975000Y-41850000D02*
X46415000Y-41850000D01*
X28575000Y-47050000D02*
X28575000Y-44450000D01*
X28575000Y-44450000D02*
X25975000Y-44450000D01*
X25975000Y-44450000D02*
X25975000Y-41850000D01*
X27305000Y-47050000D02*
X25975000Y-47050000D01*
X25975000Y-47050000D02*
X25975000Y-45720000D01*
D13*
X26365000Y-27640000D02*
X26365000Y-29240000D01*
X36440000Y-27640000D02*
X36440000Y-21890000D01*
X25790000Y-27640000D02*
X25790000Y-21890000D01*
X36440000Y-27640000D02*
X35790000Y-27640000D01*
X36440000Y-21890000D02*
X35790000Y-21890000D01*
X25790000Y-21890000D02*
X26440000Y-21890000D01*
X25790000Y-27640000D02*
X26365000Y-27640000D01*
D11*
X32280000Y-410000D02*
X31780000Y-410000D01*
X32280000Y-1150000D02*
X32280000Y-410000D01*
X26380000Y-6970000D02*
X26380000Y-650000D01*
X32040000Y-6970000D02*
X32040000Y-650000D01*
X27150000Y-650000D02*
X26380000Y-650000D01*
X29690000Y-650000D02*
X28730000Y-650000D01*
X32040000Y-650000D02*
X31270000Y-650000D01*
X32040000Y-6970000D02*
X26380000Y-6970000D01*
X32040000Y-6510000D02*
X26380000Y-6510000D01*
X27150000Y-1210000D02*
X26380000Y-1210000D01*
X29690000Y-1210000D02*
X28730000Y-1210000D01*
X32040000Y-1210000D02*
X31270000Y-1210000D01*
X70380000Y-410000D02*
X69880000Y-410000D01*
X70380000Y-1150000D02*
X70380000Y-410000D01*
X59400000Y-6970000D02*
X59400000Y-650000D01*
X70140000Y-6970000D02*
X70140000Y-650000D01*
X70140000Y-650000D02*
X59400000Y-650000D01*
X70140000Y-6970000D02*
X59400000Y-6970000D01*
X70140000Y-6510000D02*
X59400000Y-6510000D01*
X70140000Y-1210000D02*
X59400000Y-1210000D01*
X58950000Y-410000D02*
X58450000Y-410000D01*
X58950000Y-1150000D02*
X58950000Y-410000D01*
X47970000Y-6970000D02*
X47970000Y-650000D01*
X58710000Y-6970000D02*
X58710000Y-650000D01*
X58710000Y-650000D02*
X47970000Y-650000D01*
X58710000Y-6970000D02*
X47970000Y-6970000D01*
X58710000Y-6510000D02*
X47970000Y-6510000D01*
X58710000Y-1210000D02*
X47970000Y-1210000D01*
X47730000Y-47850000D02*
X48230000Y-47850000D01*
X47730000Y-47110000D02*
X47730000Y-47850000D01*
X58710000Y-41290000D02*
X58710000Y-47610000D01*
X47970000Y-41290000D02*
X47970000Y-47610000D01*
X47970000Y-47610000D02*
X58710000Y-47610000D01*
X47970000Y-41290000D02*
X58710000Y-41290000D01*
X47970000Y-41750000D02*
X58710000Y-41750000D01*
X47970000Y-47050000D02*
X58710000Y-47050000D01*
X59160000Y-47850000D02*
X59660000Y-47850000D01*
X59160000Y-47110000D02*
X59160000Y-47850000D01*
X70140000Y-41290000D02*
X70140000Y-47610000D01*
X59400000Y-41290000D02*
X59400000Y-47610000D01*
X59400000Y-47610000D02*
X70140000Y-47610000D01*
X59400000Y-41290000D02*
X70140000Y-41290000D01*
X59400000Y-41750000D02*
X70140000Y-41750000D01*
X59400000Y-47050000D02*
X70140000Y-47050000D01*
D15*
X7700000Y-9150000D02*
G75*
G03*
X7700000Y-9150000I-100000J0D01*
G01*
D12*
X4295000Y-7780000D02*
X3530000Y-7780000D01*
X50000Y-7780000D02*
X470000Y-7780000D01*
X50000Y-16720000D02*
X50000Y-7780000D01*
X470000Y-16720000D02*
X50000Y-16720000D01*
X4295000Y-16720000D02*
X3530000Y-16720000D01*
D11*
X17578000Y-13607148D02*
X17578000Y-14129652D01*
X18998000Y-13607148D02*
X18998000Y-14129652D01*
X23754800Y-12908400D02*
X20894800Y-12908400D01*
X23754800Y-14828400D02*
X23754800Y-12908400D01*
X20894800Y-14828400D02*
X23754800Y-14828400D01*
X23350400Y-10032000D02*
X23650400Y-10032000D01*
X23650400Y-10032000D02*
X23650400Y-6732000D01*
X23650400Y-6732000D02*
X23350400Y-6732000D01*
X21150400Y-10032000D02*
X20850400Y-10032000D01*
X20850400Y-10032000D02*
X20850400Y-6732000D01*
X20850400Y-6732000D02*
X21150400Y-6732000D01*
X19388000Y-10008400D02*
X19688000Y-10008400D01*
X19688000Y-10008400D02*
X19688000Y-6708400D01*
X19688000Y-6708400D02*
X19388000Y-6708400D01*
X17188000Y-10008400D02*
X16888000Y-10008400D01*
X16888000Y-10008400D02*
X16888000Y-6708400D01*
X16888000Y-6708400D02*
X17188000Y-6708400D01*
X23047000Y-4076400D02*
X23047000Y-3253930D01*
X23047000Y-1368870D02*
X23047000Y-546400D01*
X23047000Y-2638870D02*
X23047000Y-1983930D01*
X18032000Y-4076400D02*
X23047000Y-4076400D01*
X16577000Y-546400D02*
X23047000Y-546400D01*
X18032000Y-4076400D02*
X18032000Y-3509871D01*
X18032000Y-2382929D02*
X18032000Y-2239871D01*
X17978529Y-2186400D02*
X17835471Y-2186400D01*
X16708529Y-2186400D02*
X16577000Y-2186400D01*
X16577000Y-2186400D02*
X16577000Y-1983930D01*
X16577000Y-1368870D02*
X16577000Y-546400D01*
X17272000Y-4076400D02*
X16512000Y-4076400D01*
X16512000Y-4076400D02*
X16512000Y-2946400D01*
X7940000Y-9736252D02*
X7940000Y-9213748D01*
X9360000Y-9736252D02*
X9360000Y-9213748D01*
X9360000Y-14360148D02*
X9360000Y-14882652D01*
X7940000Y-14360148D02*
X7940000Y-14882652D01*
X13650400Y-1108400D02*
X12880400Y-1108400D01*
X11300400Y-1108400D02*
X10340400Y-1108400D01*
X8760400Y-1108400D02*
X7990400Y-1108400D01*
X13650400Y-6408400D02*
X7990400Y-6408400D01*
X13650400Y-6868400D02*
X7990400Y-6868400D01*
X13650400Y-548400D02*
X12880400Y-548400D01*
X11300400Y-548400D02*
X10340400Y-548400D01*
X8760400Y-548400D02*
X7990400Y-548400D01*
X13650400Y-6868400D02*
X13650400Y-548400D01*
X7990400Y-6868400D02*
X7990400Y-548400D01*
X13890400Y-1048400D02*
X13890400Y-308400D01*
X13890400Y-308400D02*
X13390400Y-308400D01*
X11444400Y-14294000D02*
X13244400Y-14294000D01*
X13244400Y-11074000D02*
X10794400Y-11074000D01*
X16607200Y-12633148D02*
X16607200Y-14055652D01*
X14787200Y-12633148D02*
X14787200Y-14055652D01*
X12554852Y-16340400D02*
X12032348Y-16340400D01*
X12554852Y-14920400D02*
X12032348Y-14920400D01*
X12102648Y-8538800D02*
X13525152Y-8538800D01*
X12102648Y-10358800D02*
X13525152Y-10358800D01*
D10*
X1494366Y-24835273D02*
X2129366Y-24835273D01*
X2256366Y-24877606D01*
X2341033Y-24962273D01*
X2383366Y-25089273D01*
X2383366Y-25173940D01*
X1494366Y-24496606D02*
X1494366Y-23946273D01*
X1833033Y-24242606D01*
X1833033Y-24115606D01*
X1875366Y-24030940D01*
X1917700Y-23988606D01*
X2002366Y-23946273D01*
X2214033Y-23946273D01*
X2298700Y-23988606D01*
X2341033Y-24030940D01*
X2383366Y-24115606D01*
X2383366Y-24369606D01*
X2341033Y-24454273D01*
X2298700Y-24496606D01*
D13*
X36115714Y-15305066D02*
X36591904Y-15305066D01*
X36020476Y-15590780D02*
X36353809Y-14590780D01*
X36687142Y-15590780D01*
X37449047Y-14924114D02*
X37449047Y-15590780D01*
X37210952Y-14543161D02*
X36972857Y-15257447D01*
X37591904Y-15257447D01*
X78686114Y-7227866D02*
X79162304Y-7227866D01*
X78590876Y-7513580D02*
X78924209Y-6513580D01*
X79257542Y-7513580D01*
X79495638Y-6513580D02*
X80114685Y-6513580D01*
X79781352Y-6894533D01*
X79924209Y-6894533D01*
X80019447Y-6942152D01*
X80067066Y-6989771D01*
X80114685Y-7085009D01*
X80114685Y-7323104D01*
X80067066Y-7418342D01*
X80019447Y-7465961D01*
X79924209Y-7513580D01*
X79638495Y-7513580D01*
X79543257Y-7465961D01*
X79495638Y-7418342D01*
X36115714Y-33237466D02*
X36591904Y-33237466D01*
X36020476Y-33523180D02*
X36353809Y-32523180D01*
X36687142Y-33523180D01*
X37544285Y-33523180D02*
X36972857Y-33523180D01*
X37258571Y-33523180D02*
X37258571Y-32523180D01*
X37163333Y-32666038D01*
X37068095Y-32761276D01*
X36972857Y-32808895D01*
X78889314Y-41670266D02*
X79365504Y-41670266D01*
X78794076Y-41955980D02*
X79127409Y-40955980D01*
X79460742Y-41955980D01*
X79746457Y-41051219D02*
X79794076Y-41003600D01*
X79889314Y-40955980D01*
X80127409Y-40955980D01*
X80222647Y-41003600D01*
X80270266Y-41051219D01*
X80317885Y-41146457D01*
X80317885Y-41241695D01*
X80270266Y-41384552D01*
X79698838Y-41955980D01*
X80317885Y-41955980D01*
X27189133Y-32906180D02*
X26855800Y-32429990D01*
X26617704Y-32906180D02*
X26617704Y-31906180D01*
X26998657Y-31906180D01*
X27093895Y-31953800D01*
X27141514Y-32001419D01*
X27189133Y-32096657D01*
X27189133Y-32239514D01*
X27141514Y-32334752D01*
X27093895Y-32382371D01*
X26998657Y-32429990D01*
X26617704Y-32429990D01*
X28046276Y-32239514D02*
X28046276Y-32906180D01*
X27808180Y-31858561D02*
X27570085Y-32572847D01*
X28189133Y-32572847D01*
X29729133Y-32906180D02*
X29395800Y-32429990D01*
X29157704Y-32906180D02*
X29157704Y-31906180D01*
X29538657Y-31906180D01*
X29633895Y-31953800D01*
X29681514Y-32001419D01*
X29729133Y-32096657D01*
X29729133Y-32239514D01*
X29681514Y-32334752D01*
X29633895Y-32382371D01*
X29538657Y-32429990D01*
X29157704Y-32429990D01*
X30062466Y-31906180D02*
X30681514Y-31906180D01*
X30348180Y-32287133D01*
X30491038Y-32287133D01*
X30586276Y-32334752D01*
X30633895Y-32382371D01*
X30681514Y-32477609D01*
X30681514Y-32715704D01*
X30633895Y-32810942D01*
X30586276Y-32858561D01*
X30491038Y-32906180D01*
X30205323Y-32906180D01*
X30110085Y-32858561D01*
X30062466Y-32810942D01*
X36434780Y-38941333D02*
X37149066Y-38941333D01*
X37291923Y-38988952D01*
X37387161Y-39084190D01*
X37434780Y-39227047D01*
X37434780Y-39322285D01*
X36434780Y-37988952D02*
X36434780Y-38465142D01*
X36910971Y-38512761D01*
X36863352Y-38465142D01*
X36815733Y-38369904D01*
X36815733Y-38131809D01*
X36863352Y-38036571D01*
X36910971Y-37988952D01*
X37006209Y-37941333D01*
X37244304Y-37941333D01*
X37339542Y-37988952D01*
X37387161Y-38036571D01*
X37434780Y-38131809D01*
X37434780Y-38369904D01*
X37387161Y-38465142D01*
X37339542Y-38512761D01*
X24101466Y-46950380D02*
X24101466Y-47664666D01*
X24053847Y-47807523D01*
X23958609Y-47902761D01*
X23815752Y-47950380D01*
X23720514Y-47950380D01*
X25101466Y-47950380D02*
X24530038Y-47950380D01*
X24815752Y-47950380D02*
X24815752Y-46950380D01*
X24720514Y-47093238D01*
X24625276Y-47188476D01*
X24530038Y-47236095D01*
X29845095Y-18502380D02*
X29845095Y-19311904D01*
X29892714Y-19407142D01*
X29940333Y-19454761D01*
X30035571Y-19502380D01*
X30226047Y-19502380D01*
X30321285Y-19454761D01*
X30368904Y-19407142D01*
X30416523Y-19311904D01*
X30416523Y-18502380D01*
X30845095Y-18597619D02*
X30892714Y-18550000D01*
X30987952Y-18502380D01*
X31226047Y-18502380D01*
X31321285Y-18550000D01*
X31368904Y-18597619D01*
X31416523Y-18692857D01*
X31416523Y-18788095D01*
X31368904Y-18930952D01*
X30797476Y-19502380D01*
X31416523Y-19502380D01*
X28400476Y-7422380D02*
X28400476Y-8136666D01*
X28352857Y-8279523D01*
X28257619Y-8374761D01*
X28114761Y-8422380D01*
X28019523Y-8422380D01*
X29400476Y-8422380D02*
X28829047Y-8422380D01*
X29114761Y-8422380D02*
X29114761Y-7422380D01*
X29019523Y-7565238D01*
X28924285Y-7660476D01*
X28829047Y-7708095D01*
X30352857Y-8422380D02*
X29781428Y-8422380D01*
X30067142Y-8422380D02*
X30067142Y-7422380D01*
X29971904Y-7565238D01*
X29876666Y-7660476D01*
X29781428Y-7708095D01*
X70623180Y-4143333D02*
X71337466Y-4143333D01*
X71480323Y-4190952D01*
X71575561Y-4286190D01*
X71623180Y-4429047D01*
X71623180Y-4524285D01*
X71623180Y-3619523D02*
X71623180Y-3429047D01*
X71575561Y-3333809D01*
X71527942Y-3286190D01*
X71385085Y-3190952D01*
X71194609Y-3143333D01*
X70813657Y-3143333D01*
X70718419Y-3190952D01*
X70670800Y-3238571D01*
X70623180Y-3333809D01*
X70623180Y-3524285D01*
X70670800Y-3619523D01*
X70718419Y-3667142D01*
X70813657Y-3714761D01*
X71051752Y-3714761D01*
X71146990Y-3667142D01*
X71194609Y-3619523D01*
X71242228Y-3524285D01*
X71242228Y-3333809D01*
X71194609Y-3238571D01*
X71146990Y-3190952D01*
X71051752Y-3143333D01*
X46129676Y-3211580D02*
X46129676Y-3925866D01*
X46082057Y-4068723D01*
X45986819Y-4163961D01*
X45843961Y-4211580D01*
X45748723Y-4211580D01*
X47129676Y-4211580D02*
X46558247Y-4211580D01*
X46843961Y-4211580D02*
X46843961Y-3211580D01*
X46748723Y-3354438D01*
X46653485Y-3449676D01*
X46558247Y-3497295D01*
X47748723Y-3211580D02*
X47843961Y-3211580D01*
X47939200Y-3259200D01*
X47986819Y-3306819D01*
X48034438Y-3402057D01*
X48082057Y-3592533D01*
X48082057Y-3830628D01*
X48034438Y-4021104D01*
X47986819Y-4116342D01*
X47939200Y-4163961D01*
X47843961Y-4211580D01*
X47748723Y-4211580D01*
X47653485Y-4163961D01*
X47605866Y-4116342D01*
X47558247Y-4021104D01*
X47510628Y-3830628D01*
X47510628Y-3592533D01*
X47558247Y-3402057D01*
X47605866Y-3306819D01*
X47653485Y-3259200D01*
X47748723Y-3211580D01*
X46351866Y-47509180D02*
X46351866Y-48223466D01*
X46304247Y-48366323D01*
X46209009Y-48461561D01*
X46066152Y-48509180D01*
X45970914Y-48509180D01*
X46970914Y-47937752D02*
X46875676Y-47890133D01*
X46828057Y-47842514D01*
X46780438Y-47747276D01*
X46780438Y-47699657D01*
X46828057Y-47604419D01*
X46875676Y-47556800D01*
X46970914Y-47509180D01*
X47161390Y-47509180D01*
X47256628Y-47556800D01*
X47304247Y-47604419D01*
X47351866Y-47699657D01*
X47351866Y-47747276D01*
X47304247Y-47842514D01*
X47256628Y-47890133D01*
X47161390Y-47937752D01*
X46970914Y-47937752D01*
X46875676Y-47985371D01*
X46828057Y-48032990D01*
X46780438Y-48128228D01*
X46780438Y-48318704D01*
X46828057Y-48413942D01*
X46875676Y-48461561D01*
X46970914Y-48509180D01*
X47161390Y-48509180D01*
X47256628Y-48461561D01*
X47304247Y-48413942D01*
X47351866Y-48318704D01*
X47351866Y-48128228D01*
X47304247Y-48032990D01*
X47256628Y-47985371D01*
X47161390Y-47937752D01*
X70837466Y-43902380D02*
X70837466Y-44616666D01*
X70789847Y-44759523D01*
X70694609Y-44854761D01*
X70551752Y-44902380D01*
X70456514Y-44902380D01*
X71218419Y-43902380D02*
X71885085Y-43902380D01*
X71456514Y-44902380D01*
D10*
X770466Y-6015566D02*
X770466Y-6650566D01*
X728133Y-6777566D01*
X643466Y-6862233D01*
X516466Y-6904566D01*
X431800Y-6904566D01*
X1151466Y-6100233D02*
X1193800Y-6057900D01*
X1278466Y-6015566D01*
X1490133Y-6015566D01*
X1574800Y-6057900D01*
X1617133Y-6100233D01*
X1659466Y-6184900D01*
X1659466Y-6269566D01*
X1617133Y-6396566D01*
X1109133Y-6904566D01*
X1659466Y-6904566D01*
D13*
X18070533Y-17013180D02*
X17737200Y-16536990D01*
X17499104Y-17013180D02*
X17499104Y-16013180D01*
X17880057Y-16013180D01*
X17975295Y-16060800D01*
X18022914Y-16108419D01*
X18070533Y-16203657D01*
X18070533Y-16346514D01*
X18022914Y-16441752D01*
X17975295Y-16489371D01*
X17880057Y-16536990D01*
X17499104Y-16536990D01*
X18975295Y-16013180D02*
X18499104Y-16013180D01*
X18451485Y-16489371D01*
X18499104Y-16441752D01*
X18594342Y-16394133D01*
X18832438Y-16394133D01*
X18927676Y-16441752D01*
X18975295Y-16489371D01*
X19022914Y-16584609D01*
X19022914Y-16822704D01*
X18975295Y-16917942D01*
X18927676Y-16965561D01*
X18832438Y-17013180D01*
X18594342Y-17013180D01*
X18499104Y-16965561D01*
X18451485Y-16917942D01*
X21156704Y-16098780D02*
X21156704Y-15098780D01*
X21394800Y-15098780D01*
X21537657Y-15146400D01*
X21632895Y-15241638D01*
X21680514Y-15336876D01*
X21728133Y-15527352D01*
X21728133Y-15670209D01*
X21680514Y-15860685D01*
X21632895Y-15955923D01*
X21537657Y-16051161D01*
X21394800Y-16098780D01*
X21156704Y-16098780D01*
X22680514Y-16098780D02*
X22109085Y-16098780D01*
X22394800Y-16098780D02*
X22394800Y-15098780D01*
X22299561Y-15241638D01*
X22204323Y-15336876D01*
X22109085Y-15384495D01*
D10*
X21166666Y-11789833D02*
X21293666Y-11832166D01*
X21505333Y-11832166D01*
X21590000Y-11789833D01*
X21632333Y-11747500D01*
X21674666Y-11662833D01*
X21674666Y-11578166D01*
X21632333Y-11493500D01*
X21590000Y-11451166D01*
X21505333Y-11408833D01*
X21336000Y-11366500D01*
X21251333Y-11324166D01*
X21209000Y-11281833D01*
X21166666Y-11197166D01*
X21166666Y-11112500D01*
X21209000Y-11027833D01*
X21251333Y-10985500D01*
X21336000Y-10943166D01*
X21547666Y-10943166D01*
X21674666Y-10985500D01*
X21971000Y-10943166D02*
X22182666Y-11832166D01*
X22352000Y-11197166D01*
X22521333Y-11832166D01*
X22733000Y-10943166D01*
X23029333Y-11027833D02*
X23071666Y-10985500D01*
X23156333Y-10943166D01*
X23368000Y-10943166D01*
X23452666Y-10985500D01*
X23495000Y-11027833D01*
X23537333Y-11112500D01*
X23537333Y-11197166D01*
X23495000Y-11324166D01*
X22987000Y-11832166D01*
X23537333Y-11832166D01*
X17255066Y-11739033D02*
X17382066Y-11781366D01*
X17593733Y-11781366D01*
X17678400Y-11739033D01*
X17720733Y-11696700D01*
X17763066Y-11612033D01*
X17763066Y-11527366D01*
X17720733Y-11442700D01*
X17678400Y-11400366D01*
X17593733Y-11358033D01*
X17424400Y-11315700D01*
X17339733Y-11273366D01*
X17297400Y-11231033D01*
X17255066Y-11146366D01*
X17255066Y-11061700D01*
X17297400Y-10977033D01*
X17339733Y-10934700D01*
X17424400Y-10892366D01*
X17636066Y-10892366D01*
X17763066Y-10934700D01*
X18059400Y-10892366D02*
X18271066Y-11781366D01*
X18440400Y-11146366D01*
X18609733Y-11781366D01*
X18821400Y-10892366D01*
X19625733Y-11781366D02*
X19117733Y-11781366D01*
X19371733Y-11781366D02*
X19371733Y-10892366D01*
X19287066Y-11019366D01*
X19202400Y-11104033D01*
X19117733Y-11146366D01*
D13*
X23328380Y-2771733D02*
X24042666Y-2771733D01*
X24185523Y-2819352D01*
X24280761Y-2914590D01*
X24328380Y-3057447D01*
X24328380Y-3152685D01*
X23661714Y-1866971D02*
X24328380Y-1866971D01*
X23280761Y-2105066D02*
X23995047Y-2343161D01*
X23995047Y-1724114D01*
D10*
X10215033Y-8072966D02*
X9918700Y-7649633D01*
X9707033Y-8072966D02*
X9707033Y-7183966D01*
X10045700Y-7183966D01*
X10130366Y-7226300D01*
X10172700Y-7268633D01*
X10215033Y-7353300D01*
X10215033Y-7480300D01*
X10172700Y-7564966D01*
X10130366Y-7607300D01*
X10045700Y-7649633D01*
X9707033Y-7649633D01*
X10553700Y-7268633D02*
X10596033Y-7226300D01*
X10680700Y-7183966D01*
X10892366Y-7183966D01*
X10977033Y-7226300D01*
X11019366Y-7268633D01*
X11061700Y-7353300D01*
X11061700Y-7437966D01*
X11019366Y-7564966D01*
X10511366Y-8072966D01*
X11061700Y-8072966D01*
X8589433Y-17674166D02*
X8293100Y-17250833D01*
X8081433Y-17674166D02*
X8081433Y-16785166D01*
X8420100Y-16785166D01*
X8504766Y-16827500D01*
X8547100Y-16869833D01*
X8589433Y-16954500D01*
X8589433Y-17081500D01*
X8547100Y-17166166D01*
X8504766Y-17208500D01*
X8420100Y-17250833D01*
X8081433Y-17250833D01*
X9436100Y-17674166D02*
X8928100Y-17674166D01*
X9182100Y-17674166D02*
X9182100Y-16785166D01*
X9097433Y-16912166D01*
X9012766Y-16996833D01*
X8928100Y-17039166D01*
X14334066Y-5609166D02*
X14334066Y-6244166D01*
X14291733Y-6371166D01*
X14207066Y-6455833D01*
X14080066Y-6498166D01*
X13995400Y-6498166D01*
X15138400Y-5609166D02*
X14969066Y-5609166D01*
X14884400Y-5651500D01*
X14842066Y-5693833D01*
X14757400Y-5820833D01*
X14715066Y-5990166D01*
X14715066Y-6328833D01*
X14757400Y-6413500D01*
X14799733Y-6455833D01*
X14884400Y-6498166D01*
X15053733Y-6498166D01*
X15138400Y-6455833D01*
X15180733Y-6413500D01*
X15223066Y-6328833D01*
X15223066Y-6117166D01*
X15180733Y-6032500D01*
X15138400Y-5990166D01*
X15053733Y-5947833D01*
X14884400Y-5947833D01*
X14799733Y-5990166D01*
X14757400Y-6032500D01*
X14715066Y-6117166D01*
X8873066Y-11552766D02*
X8873066Y-12272433D01*
X8915400Y-12357100D01*
X8957733Y-12399433D01*
X9042400Y-12441766D01*
X9211733Y-12441766D01*
X9296400Y-12399433D01*
X9338733Y-12357100D01*
X9381066Y-12272433D01*
X9381066Y-11552766D01*
X10270066Y-12441766D02*
X9762066Y-12441766D01*
X10016066Y-12441766D02*
X10016066Y-11552766D01*
X9931400Y-11679766D01*
X9846733Y-11764433D01*
X9762066Y-11806766D01*
X15549033Y-16827500D02*
X15506700Y-16869833D01*
X15379700Y-16912166D01*
X15295033Y-16912166D01*
X15168033Y-16869833D01*
X15083366Y-16785166D01*
X15041033Y-16700500D01*
X14998700Y-16531166D01*
X14998700Y-16404166D01*
X15041033Y-16234833D01*
X15083366Y-16150166D01*
X15168033Y-16065500D01*
X15295033Y-16023166D01*
X15379700Y-16023166D01*
X15506700Y-16065500D01*
X15549033Y-16107833D01*
X15845366Y-16023166D02*
X16395700Y-16023166D01*
X16099366Y-16361833D01*
X16226366Y-16361833D01*
X16311033Y-16404166D01*
X16353366Y-16446500D01*
X16395700Y-16531166D01*
X16395700Y-16742833D01*
X16353366Y-16827500D01*
X16311033Y-16869833D01*
X16226366Y-16912166D01*
X15972366Y-16912166D01*
X15887700Y-16869833D01*
X15845366Y-16827500D01*
X12145433Y-17538700D02*
X12103100Y-17581033D01*
X11976100Y-17623366D01*
X11891433Y-17623366D01*
X11764433Y-17581033D01*
X11679766Y-17496366D01*
X11637433Y-17411700D01*
X11595100Y-17242366D01*
X11595100Y-17115366D01*
X11637433Y-16946033D01*
X11679766Y-16861366D01*
X11764433Y-16776700D01*
X11891433Y-16734366D01*
X11976100Y-16734366D01*
X12103100Y-16776700D01*
X12145433Y-16819033D01*
X12484100Y-16819033D02*
X12526433Y-16776700D01*
X12611100Y-16734366D01*
X12822766Y-16734366D01*
X12907433Y-16776700D01*
X12949766Y-16819033D01*
X12992100Y-16903700D01*
X12992100Y-16988366D01*
X12949766Y-17115366D01*
X12441766Y-17623366D01*
X12992100Y-17623366D01*
X12653433Y-7988300D02*
X12611100Y-8030633D01*
X12484100Y-8072966D01*
X12399433Y-8072966D01*
X12272433Y-8030633D01*
X12187766Y-7945966D01*
X12145433Y-7861300D01*
X12103100Y-7691966D01*
X12103100Y-7564966D01*
X12145433Y-7395633D01*
X12187766Y-7310966D01*
X12272433Y-7226300D01*
X12399433Y-7183966D01*
X12484100Y-7183966D01*
X12611100Y-7226300D01*
X12653433Y-7268633D01*
X13500100Y-8072966D02*
X12992100Y-8072966D01*
X13246100Y-8072966D02*
X13246100Y-7183966D01*
X13161433Y-7310966D01*
X13076766Y-7395633D01*
X12992100Y-7437966D01*
M02*
