G04 #@! TF.GenerationSoftware,KiCad,Pcbnew,(5.1.8)-1*
G04 #@! TF.CreationDate,2020-12-27T14:08:24+01:00*
G04 #@! TF.ProjectId,mmStep,6d6d5374-6570-42e6-9b69-6361645f7063,rev?*
G04 #@! TF.SameCoordinates,Original*
G04 #@! TF.FileFunction,Soldermask,Top*
G04 #@! TF.FilePolarity,Negative*
%FSLAX46Y46*%
G04 Gerber Fmt 4.6, Leading zero omitted, Abs format (unit mm)*
G04 Created by KiCad (PCBNEW (5.1.8)-1) date 2020-12-27 14:08:24*
%MOMM*%
%LPD*%
G01*
G04 APERTURE LIST*
%ADD10C,6.200000*%
%ADD11R,0.300000X2.000000*%
%ADD12R,1.200000X3.000000*%
%ADD13C,1.600000*%
%ADD14C,1.100000*%
%ADD15O,1.600000X1.600000*%
%ADD16R,1.600000X1.600000*%
%ADD17C,5.600000*%
%ADD18O,2.000000X2.000000*%
%ADD19R,2.000000X2.000000*%
%ADD20O,1.700000X1.700000*%
%ADD21R,1.700000X1.700000*%
%ADD22R,0.450000X1.750000*%
%ADD23C,2.200000*%
%ADD24R,2.200000X2.200000*%
%ADD25O,2.400000X1.200000*%
%ADD26O,2.316000X1.158000*%
%ADD27C,0.630000*%
%ADD28R,2.000000X1.000000*%
%ADD29C,0.600000*%
%ADD30R,1.500000X0.270000*%
%ADD31R,1.500000X0.520000*%
%ADD32R,1.700000X0.900000*%
%ADD33O,1.000000X1.000000*%
%ADD34R,1.000000X1.000000*%
%ADD35R,1.060000X0.650000*%
G04 APERTURE END LIST*
D10*
X9753600Y-45500000D03*
D11*
X8753600Y-27980000D03*
X8253600Y-27980000D03*
X7753600Y-27980000D03*
X7253600Y-27980000D03*
X9003600Y-20030000D03*
X8503600Y-20030000D03*
X8003600Y-20030000D03*
X7503600Y-20030000D03*
D12*
X24103600Y-20500000D03*
X3403600Y-20500000D03*
D11*
X23003600Y-20030000D03*
X22753600Y-27980000D03*
X22253600Y-27980000D03*
X21753600Y-27980000D03*
X21253600Y-27980000D03*
X20753600Y-27980000D03*
X20253600Y-27980000D03*
X19753600Y-27980000D03*
X19253600Y-27980000D03*
X18753600Y-27980000D03*
X18253600Y-27980000D03*
X17753600Y-27980000D03*
X17253600Y-27980000D03*
X16753600Y-27980000D03*
X16253600Y-27980000D03*
X15753600Y-27980000D03*
X15253600Y-27980000D03*
X14753600Y-27980000D03*
X14253600Y-27980000D03*
X13753600Y-27980000D03*
X13253600Y-27980000D03*
X12753600Y-27980000D03*
X12253600Y-27980000D03*
X9753600Y-27980000D03*
X9253600Y-27980000D03*
X6753600Y-27980000D03*
X6253600Y-27980000D03*
X5753600Y-27980000D03*
X5253600Y-27980000D03*
X4753600Y-27980000D03*
X22503600Y-20030000D03*
X22003600Y-20030000D03*
X21503600Y-20030000D03*
X21003600Y-20030000D03*
X20503600Y-20030000D03*
X20003600Y-20030000D03*
X19503600Y-20030000D03*
X19003600Y-20030000D03*
X18503600Y-20030000D03*
X18003600Y-20030000D03*
X17503600Y-20030000D03*
X17003600Y-20030000D03*
X16503600Y-20030000D03*
X16003600Y-20030000D03*
X15503600Y-20030000D03*
X15003600Y-20030000D03*
X14503600Y-20030000D03*
X14003600Y-20030000D03*
X13503600Y-20030000D03*
X13003600Y-20030000D03*
X12503600Y-20030000D03*
X10003600Y-20030000D03*
X9503600Y-20030000D03*
X7003600Y-20030000D03*
X6503600Y-20030000D03*
X6003600Y-20030000D03*
X5503600Y-20030000D03*
X5003600Y-20030000D03*
X4503600Y-20030000D03*
D13*
X23753600Y-25505000D03*
D14*
X3753600Y-25505000D03*
D15*
X57150000Y-22225000D03*
X39370000Y-9525000D03*
X54610000Y-22225000D03*
X41910000Y-9525000D03*
X52070000Y-22225000D03*
X44450000Y-9525000D03*
X49530000Y-22225000D03*
X46990000Y-9525000D03*
X46990000Y-22225000D03*
X49530000Y-9525000D03*
X44450000Y-22225000D03*
X52070000Y-9525000D03*
X41910000Y-22225000D03*
X54610000Y-9525000D03*
X39370000Y-22225000D03*
D16*
X57150000Y-9525000D03*
D15*
X78740000Y-22225000D03*
X60960000Y-9525000D03*
X76200000Y-22225000D03*
X63500000Y-9525000D03*
X73660000Y-22225000D03*
X66040000Y-9525000D03*
X71120000Y-22225000D03*
X68580000Y-9525000D03*
X68580000Y-22225000D03*
X71120000Y-9525000D03*
X66040000Y-22225000D03*
X73660000Y-9525000D03*
X63500000Y-22225000D03*
X76200000Y-9525000D03*
X60960000Y-22225000D03*
D16*
X78740000Y-9525000D03*
D15*
X39370000Y-26035000D03*
X57150000Y-38735000D03*
X41910000Y-26035000D03*
X54610000Y-38735000D03*
X44450000Y-26035000D03*
X52070000Y-38735000D03*
X46990000Y-26035000D03*
X49530000Y-38735000D03*
X49530000Y-26035000D03*
X46990000Y-38735000D03*
X52070000Y-26035000D03*
X44450000Y-38735000D03*
X54610000Y-26035000D03*
X41910000Y-38735000D03*
X57150000Y-26035000D03*
D16*
X39370000Y-38735000D03*
D15*
X60960000Y-26035000D03*
X78740000Y-38735000D03*
X63500000Y-26035000D03*
X76200000Y-38735000D03*
X66040000Y-26035000D03*
X73660000Y-38735000D03*
X68580000Y-26035000D03*
X71120000Y-38735000D03*
X71120000Y-26035000D03*
X68580000Y-38735000D03*
X73660000Y-26035000D03*
X66040000Y-38735000D03*
X76200000Y-26035000D03*
X63500000Y-38735000D03*
X78740000Y-26035000D03*
D16*
X60960000Y-38735000D03*
D17*
X77470000Y-45500000D03*
D18*
X55640000Y-15875000D03*
D19*
X40640000Y-15875000D03*
D18*
X77230000Y-15875000D03*
D19*
X62230000Y-15875000D03*
D18*
X62470000Y-32385000D03*
D19*
X77470000Y-32385000D03*
D18*
X40880000Y-32385000D03*
D19*
X55880000Y-32385000D03*
G36*
G01*
X27729601Y-34611000D02*
X26829599Y-34611000D01*
G75*
G02*
X26579600Y-34361001I0J249999D01*
G01*
X26579600Y-33710999D01*
G75*
G02*
X26829599Y-33461000I249999J0D01*
G01*
X27729601Y-33461000D01*
G75*
G02*
X27979600Y-33710999I0J-249999D01*
G01*
X27979600Y-34361001D01*
G75*
G02*
X27729601Y-34611000I-249999J0D01*
G01*
G37*
G36*
G01*
X27729601Y-36661000D02*
X26829599Y-36661000D01*
G75*
G02*
X26579600Y-36411001I0J249999D01*
G01*
X26579600Y-35760999D01*
G75*
G02*
X26829599Y-35511000I249999J0D01*
G01*
X27729601Y-35511000D01*
G75*
G02*
X27979600Y-35760999I0J-249999D01*
G01*
X27979600Y-36411001D01*
G75*
G02*
X27729601Y-36661000I-249999J0D01*
G01*
G37*
G36*
G01*
X30320401Y-34611000D02*
X29420399Y-34611000D01*
G75*
G02*
X29170400Y-34361001I0J249999D01*
G01*
X29170400Y-33710999D01*
G75*
G02*
X29420399Y-33461000I249999J0D01*
G01*
X30320401Y-33461000D01*
G75*
G02*
X30570400Y-33710999I0J-249999D01*
G01*
X30570400Y-34361001D01*
G75*
G02*
X30320401Y-34611000I-249999J0D01*
G01*
G37*
G36*
G01*
X30320401Y-36661000D02*
X29420399Y-36661000D01*
G75*
G02*
X29170400Y-36411001I0J249999D01*
G01*
X29170400Y-35760999D01*
G75*
G02*
X29420399Y-35511000I249999J0D01*
G01*
X30320401Y-35511000D01*
G75*
G02*
X30570400Y-35760999I0J-249999D01*
G01*
X30570400Y-36411001D01*
G75*
G02*
X30320401Y-36661000I-249999J0D01*
G01*
G37*
D20*
X34925000Y-38735000D03*
X32385000Y-38735000D03*
X29845000Y-38735000D03*
D21*
X27305000Y-38735000D03*
D20*
X45085000Y-43180000D03*
X45085000Y-45720000D03*
X42545000Y-43180000D03*
X42545000Y-45720000D03*
X40005000Y-43180000D03*
X40005000Y-45720000D03*
X37465000Y-43180000D03*
X37465000Y-45720000D03*
X34925000Y-43180000D03*
X34925000Y-45720000D03*
X32385000Y-43180000D03*
X32385000Y-45720000D03*
X29845000Y-43180000D03*
X29845000Y-45720000D03*
X27305000Y-43180000D03*
D21*
X27305000Y-45720000D03*
D22*
X26890000Y-21165000D03*
X27540000Y-21165000D03*
X28190000Y-21165000D03*
X28840000Y-21165000D03*
X29490000Y-21165000D03*
X30140000Y-21165000D03*
X30790000Y-21165000D03*
X31440000Y-21165000D03*
X32090000Y-21165000D03*
X32740000Y-21165000D03*
X33390000Y-21165000D03*
X34040000Y-21165000D03*
X34690000Y-21165000D03*
X35340000Y-21165000D03*
X35340000Y-28365000D03*
X34690000Y-28365000D03*
X34040000Y-28365000D03*
X33390000Y-28365000D03*
X32740000Y-28365000D03*
X32090000Y-28365000D03*
X31440000Y-28365000D03*
X30790000Y-28365000D03*
X30140000Y-28365000D03*
X29490000Y-28365000D03*
X28840000Y-28365000D03*
X28190000Y-28365000D03*
X27540000Y-28365000D03*
X26890000Y-28365000D03*
D14*
X27940000Y-1270000D03*
D23*
X27940000Y-3810000D03*
D14*
X30480000Y-1270000D03*
D24*
X30480000Y-3810000D03*
D23*
X60960000Y-3810000D03*
X63500000Y-3810000D03*
X66040000Y-3810000D03*
D24*
X68580000Y-3810000D03*
D23*
X49530000Y-3810000D03*
X52070000Y-3810000D03*
X54610000Y-3810000D03*
D24*
X57150000Y-3810000D03*
D23*
X57150000Y-44450000D03*
X54610000Y-44450000D03*
X52070000Y-44450000D03*
D24*
X49530000Y-44450000D03*
D23*
X68580000Y-44450000D03*
X66040000Y-44450000D03*
X63500000Y-44450000D03*
D24*
X60960000Y-44450000D03*
D25*
X2000000Y-16570000D03*
X2000000Y-7930000D03*
D26*
X5825000Y-16570000D03*
X5825000Y-7930000D03*
D27*
X5100000Y-9250000D03*
D28*
X2000000Y-13650000D03*
X2000000Y-10850000D03*
D27*
X5100000Y-15250000D03*
D29*
X5100000Y-15250000D03*
D30*
X6400000Y-13500000D03*
X6400000Y-13000000D03*
X6400000Y-12500000D03*
X6400000Y-12000000D03*
X6400000Y-11500000D03*
X6400000Y-11000000D03*
X6400000Y-14000000D03*
X6400000Y-10500000D03*
D31*
X6400000Y-14600000D03*
X6400000Y-9900000D03*
X6400000Y-15350000D03*
X6400000Y-9150000D03*
D17*
X3500000Y-3500000D03*
X77500000Y-3500000D03*
X3302000Y-45500000D03*
G36*
G01*
X17837999Y-14318400D02*
X18738001Y-14318400D01*
G75*
G02*
X18988000Y-14568399I0J-249999D01*
G01*
X18988000Y-15218401D01*
G75*
G02*
X18738001Y-15468400I-249999J0D01*
G01*
X17837999Y-15468400D01*
G75*
G02*
X17588000Y-15218401I0J249999D01*
G01*
X17588000Y-14568399D01*
G75*
G02*
X17837999Y-14318400I249999J0D01*
G01*
G37*
G36*
G01*
X17837999Y-12268400D02*
X18738001Y-12268400D01*
G75*
G02*
X18988000Y-12518399I0J-249999D01*
G01*
X18988000Y-13168401D01*
G75*
G02*
X18738001Y-13418400I-249999J0D01*
G01*
X17837999Y-13418400D01*
G75*
G02*
X17588000Y-13168401I0J249999D01*
G01*
X17588000Y-12518399D01*
G75*
G02*
X17837999Y-12268400I249999J0D01*
G01*
G37*
G36*
G01*
X21444800Y-13418399D02*
X21444800Y-14318401D01*
G75*
G02*
X21194801Y-14568400I-249999J0D01*
G01*
X20544799Y-14568400D01*
G75*
G02*
X20294800Y-14318401I0J249999D01*
G01*
X20294800Y-13418399D01*
G75*
G02*
X20544799Y-13168400I249999J0D01*
G01*
X21194801Y-13168400D01*
G75*
G02*
X21444800Y-13418399I0J-249999D01*
G01*
G37*
G36*
G01*
X23494800Y-13418399D02*
X23494800Y-14318401D01*
G75*
G02*
X23244801Y-14568400I-249999J0D01*
G01*
X22594799Y-14568400D01*
G75*
G02*
X22344800Y-14318401I0J249999D01*
G01*
X22344800Y-13418399D01*
G75*
G02*
X22594799Y-13168400I249999J0D01*
G01*
X23244801Y-13168400D01*
G75*
G02*
X23494800Y-13418399I0J-249999D01*
G01*
G37*
D32*
X22250400Y-6682000D03*
X22250400Y-10082000D03*
X18288000Y-6658400D03*
X18288000Y-10058400D03*
D33*
X22352000Y-1676400D03*
X22352000Y-2946400D03*
X21082000Y-1676400D03*
X21082000Y-2946400D03*
X19812000Y-1676400D03*
X19812000Y-2946400D03*
X18542000Y-1676400D03*
X18542000Y-2946400D03*
X17272000Y-1676400D03*
D34*
X17272000Y-2946400D03*
G36*
G01*
X9100001Y-9025000D02*
X8199999Y-9025000D01*
G75*
G02*
X7950000Y-8775001I0J249999D01*
G01*
X7950000Y-8124999D01*
G75*
G02*
X8199999Y-7875000I249999J0D01*
G01*
X9100001Y-7875000D01*
G75*
G02*
X9350000Y-8124999I0J-249999D01*
G01*
X9350000Y-8775001D01*
G75*
G02*
X9100001Y-9025000I-249999J0D01*
G01*
G37*
G36*
G01*
X9100001Y-11075000D02*
X8199999Y-11075000D01*
G75*
G02*
X7950000Y-10825001I0J249999D01*
G01*
X7950000Y-10174999D01*
G75*
G02*
X8199999Y-9925000I249999J0D01*
G01*
X9100001Y-9925000D01*
G75*
G02*
X9350000Y-10174999I0J-249999D01*
G01*
X9350000Y-10825001D01*
G75*
G02*
X9100001Y-11075000I-249999J0D01*
G01*
G37*
G36*
G01*
X8199999Y-15071400D02*
X9100001Y-15071400D01*
G75*
G02*
X9350000Y-15321399I0J-249999D01*
G01*
X9350000Y-15971401D01*
G75*
G02*
X9100001Y-16221400I-249999J0D01*
G01*
X8199999Y-16221400D01*
G75*
G02*
X7950000Y-15971401I0J249999D01*
G01*
X7950000Y-15321399D01*
G75*
G02*
X8199999Y-15071400I249999J0D01*
G01*
G37*
G36*
G01*
X8199999Y-13021400D02*
X9100001Y-13021400D01*
G75*
G02*
X9350000Y-13271399I0J-249999D01*
G01*
X9350000Y-13921401D01*
G75*
G02*
X9100001Y-14171400I-249999J0D01*
G01*
X8199999Y-14171400D01*
G75*
G02*
X7950000Y-13921401I0J249999D01*
G01*
X7950000Y-13271399D01*
G75*
G02*
X8199999Y-13021400I249999J0D01*
G01*
G37*
D14*
X9550400Y-1168400D03*
D23*
X9550400Y-3708400D03*
D14*
X12090400Y-1168400D03*
D24*
X12090400Y-3708400D03*
D35*
X13444400Y-11734000D03*
X13444400Y-13634000D03*
X11244400Y-13634000D03*
X11244400Y-12684000D03*
X11244400Y-11734000D03*
G36*
G01*
X15047198Y-14244400D02*
X16347202Y-14244400D01*
G75*
G02*
X16597200Y-14494398I0J-249998D01*
G01*
X16597200Y-15319402D01*
G75*
G02*
X16347202Y-15569400I-249998J0D01*
G01*
X15047198Y-15569400D01*
G75*
G02*
X14797200Y-15319402I0J249998D01*
G01*
X14797200Y-14494398D01*
G75*
G02*
X15047198Y-14244400I249998J0D01*
G01*
G37*
G36*
G01*
X15047198Y-11119400D02*
X16347202Y-11119400D01*
G75*
G02*
X16597200Y-11369398I0J-249998D01*
G01*
X16597200Y-12194402D01*
G75*
G02*
X16347202Y-12444400I-249998J0D01*
G01*
X15047198Y-12444400D01*
G75*
G02*
X14797200Y-12194402I0J249998D01*
G01*
X14797200Y-11369398D01*
G75*
G02*
X15047198Y-11119400I249998J0D01*
G01*
G37*
G36*
G01*
X11843600Y-15180399D02*
X11843600Y-16080401D01*
G75*
G02*
X11593601Y-16330400I-249999J0D01*
G01*
X10943599Y-16330400D01*
G75*
G02*
X10693600Y-16080401I0J249999D01*
G01*
X10693600Y-15180399D01*
G75*
G02*
X10943599Y-14930400I249999J0D01*
G01*
X11593601Y-14930400D01*
G75*
G02*
X11843600Y-15180399I0J-249999D01*
G01*
G37*
G36*
G01*
X13893600Y-15180399D02*
X13893600Y-16080401D01*
G75*
G02*
X13643601Y-16330400I-249999J0D01*
G01*
X12993599Y-16330400D01*
G75*
G02*
X12743600Y-16080401I0J249999D01*
G01*
X12743600Y-15180399D01*
G75*
G02*
X12993599Y-14930400I249999J0D01*
G01*
X13643601Y-14930400D01*
G75*
G02*
X13893600Y-15180399I0J-249999D01*
G01*
G37*
G36*
G01*
X13713900Y-10098802D02*
X13713900Y-8798798D01*
G75*
G02*
X13963898Y-8548800I249998J0D01*
G01*
X14788902Y-8548800D01*
G75*
G02*
X15038900Y-8798798I0J-249998D01*
G01*
X15038900Y-10098802D01*
G75*
G02*
X14788902Y-10348800I-249998J0D01*
G01*
X13963898Y-10348800D01*
G75*
G02*
X13713900Y-10098802I0J249998D01*
G01*
G37*
G36*
G01*
X10588900Y-10098802D02*
X10588900Y-8798798D01*
G75*
G02*
X10838898Y-8548800I249998J0D01*
G01*
X11663902Y-8548800D01*
G75*
G02*
X11913900Y-8798798I0J-249998D01*
G01*
X11913900Y-10098802D01*
G75*
G02*
X11663902Y-10348800I-249998J0D01*
G01*
X10838898Y-10348800D01*
G75*
G02*
X10588900Y-10098802I0J249998D01*
G01*
G37*
M02*
