%TF.GenerationSoftware,KiCad,Pcbnew,(5.1.8)-1*%
%TF.CreationDate,2020-12-25T17:53:49+01:00*%
%TF.ProjectId,mmStep,6d6d5374-6570-42e6-9b69-6361645f7063,rev?*%
%TF.SameCoordinates,Original*%
%TF.FileFunction,Legend,Bot*%
%TF.FilePolarity,Positive*%
%FSLAX46Y46*%
G04 Gerber Fmt 4.6, Leading zero omitted, Abs format (unit mm)*
G04 Created by KiCad (PCBNEW (5.1.8)-1) date 2020-12-25 17:53:49*
%MOMM*%
%LPD*%
G01*
G04 APERTURE LIST*
%ADD10C,0.127000*%
%ADD11C,0.120000*%
%ADD12C,0.152400*%
%ADD13C,0.010000*%
%ADD14C,0.150000*%
G04 APERTURE END LIST*
D10*
X16991692Y-9706428D02*
X16919121Y-9742714D01*
X16773978Y-9742714D01*
X16701407Y-9706428D01*
X16665121Y-9633857D01*
X16665121Y-9597571D01*
X16701407Y-9525000D01*
X16773978Y-9488714D01*
X16882835Y-9488714D01*
X16955407Y-9452428D01*
X16991692Y-9379857D01*
X16991692Y-9343571D01*
X16955407Y-9271000D01*
X16882835Y-9234714D01*
X16773978Y-9234714D01*
X16701407Y-9271000D01*
X16048264Y-9706428D02*
X16120835Y-9742714D01*
X16265978Y-9742714D01*
X16338550Y-9706428D01*
X16374835Y-9633857D01*
X16374835Y-9343571D01*
X16338550Y-9271000D01*
X16265978Y-9234714D01*
X16120835Y-9234714D01*
X16048264Y-9271000D01*
X16011978Y-9343571D01*
X16011978Y-9416142D01*
X16374835Y-9488714D01*
X15576550Y-9742714D02*
X15649121Y-9706428D01*
X15685407Y-9633857D01*
X15685407Y-8980714D01*
X14995978Y-9706428D02*
X15068550Y-9742714D01*
X15213692Y-9742714D01*
X15286264Y-9706428D01*
X15322550Y-9633857D01*
X15322550Y-9343571D01*
X15286264Y-9271000D01*
X15213692Y-9234714D01*
X15068550Y-9234714D01*
X14995978Y-9271000D01*
X14959692Y-9343571D01*
X14959692Y-9416142D01*
X15322550Y-9488714D01*
X14306550Y-9706428D02*
X14379121Y-9742714D01*
X14524264Y-9742714D01*
X14596835Y-9706428D01*
X14633121Y-9670142D01*
X14669407Y-9597571D01*
X14669407Y-9379857D01*
X14633121Y-9307285D01*
X14596835Y-9271000D01*
X14524264Y-9234714D01*
X14379121Y-9234714D01*
X14306550Y-9271000D01*
X14088835Y-9234714D02*
X13798550Y-9234714D01*
X13979978Y-8980714D02*
X13979978Y-9633857D01*
X13943692Y-9706428D01*
X13871121Y-9742714D01*
X13798550Y-9742714D01*
X13072835Y-8980714D02*
X12818835Y-9742714D01*
X12564835Y-8980714D01*
X12492264Y-9815285D02*
X11911692Y-9815285D01*
X11730264Y-9742714D02*
X11730264Y-8980714D01*
X11367407Y-9742714D02*
X11367407Y-8980714D01*
X10931978Y-9742714D01*
X10931978Y-8980714D01*
X18515692Y-10250714D02*
X18515692Y-10867571D01*
X18479407Y-10940142D01*
X18443121Y-10976428D01*
X18370550Y-11012714D01*
X18225407Y-11012714D01*
X18152835Y-10976428D01*
X18116550Y-10940142D01*
X18080264Y-10867571D01*
X18080264Y-10250714D01*
X17753692Y-10976428D02*
X17644835Y-11012714D01*
X17463407Y-11012714D01*
X17390835Y-10976428D01*
X17354550Y-10940142D01*
X17318264Y-10867571D01*
X17318264Y-10795000D01*
X17354550Y-10722428D01*
X17390835Y-10686142D01*
X17463407Y-10649857D01*
X17608550Y-10613571D01*
X17681121Y-10577285D01*
X17717407Y-10541000D01*
X17753692Y-10468428D01*
X17753692Y-10395857D01*
X17717407Y-10323285D01*
X17681121Y-10287000D01*
X17608550Y-10250714D01*
X17427121Y-10250714D01*
X17318264Y-10287000D01*
X16737692Y-10613571D02*
X16628835Y-10649857D01*
X16592550Y-10686142D01*
X16556264Y-10758714D01*
X16556264Y-10867571D01*
X16592550Y-10940142D01*
X16628835Y-10976428D01*
X16701407Y-11012714D01*
X16991692Y-11012714D01*
X16991692Y-10250714D01*
X16737692Y-10250714D01*
X16665121Y-10287000D01*
X16628835Y-10323285D01*
X16592550Y-10395857D01*
X16592550Y-10468428D01*
X16628835Y-10541000D01*
X16665121Y-10577285D01*
X16737692Y-10613571D01*
X16991692Y-10613571D01*
X15685407Y-10214428D02*
X16338550Y-11194142D01*
X15540264Y-10250714D02*
X15104835Y-10250714D01*
X15322549Y-11012714D02*
X15322549Y-10250714D01*
X14560549Y-10976428D02*
X14633121Y-11012714D01*
X14778264Y-11012714D01*
X14850835Y-10976428D01*
X14887121Y-10903857D01*
X14887121Y-10613571D01*
X14850835Y-10541000D01*
X14778264Y-10504714D01*
X14633121Y-10504714D01*
X14560549Y-10541000D01*
X14524264Y-10613571D01*
X14524264Y-10686142D01*
X14887121Y-10758714D01*
X14197692Y-11012714D02*
X14197692Y-10504714D01*
X14197692Y-10649857D02*
X14161407Y-10577285D01*
X14125121Y-10541000D01*
X14052549Y-10504714D01*
X13979978Y-10504714D01*
X13725978Y-11012714D02*
X13725978Y-10504714D01*
X13725978Y-10577285D02*
X13689692Y-10541000D01*
X13617121Y-10504714D01*
X13508264Y-10504714D01*
X13435692Y-10541000D01*
X13399407Y-10613571D01*
X13399407Y-11012714D01*
X13399407Y-10613571D02*
X13363121Y-10541000D01*
X13290549Y-10504714D01*
X13181692Y-10504714D01*
X13109121Y-10541000D01*
X13072835Y-10613571D01*
X13072835Y-11012714D01*
X12709978Y-11012714D02*
X12709978Y-10504714D01*
X12709978Y-10250714D02*
X12746264Y-10287000D01*
X12709978Y-10323285D01*
X12673692Y-10287000D01*
X12709978Y-10250714D01*
X12709978Y-10323285D01*
X12347121Y-10504714D02*
X12347121Y-11012714D01*
X12347121Y-10577285D02*
X12310835Y-10541000D01*
X12238264Y-10504714D01*
X12129407Y-10504714D01*
X12056835Y-10541000D01*
X12020549Y-10613571D01*
X12020549Y-11012714D01*
X11331121Y-11012714D02*
X11331121Y-10613571D01*
X11367407Y-10541000D01*
X11439978Y-10504714D01*
X11585121Y-10504714D01*
X11657692Y-10541000D01*
X11331121Y-10976428D02*
X11403692Y-11012714D01*
X11585121Y-11012714D01*
X11657692Y-10976428D01*
X11693978Y-10903857D01*
X11693978Y-10831285D01*
X11657692Y-10758714D01*
X11585121Y-10722428D01*
X11403692Y-10722428D01*
X11331121Y-10686142D01*
X10859407Y-11012714D02*
X10931978Y-10976428D01*
X10968264Y-10903857D01*
X10968264Y-10250714D01*
X15903121Y-12246428D02*
X15794264Y-12282714D01*
X15612835Y-12282714D01*
X15540264Y-12246428D01*
X15503978Y-12210142D01*
X15467692Y-12137571D01*
X15467692Y-12065000D01*
X15503978Y-11992428D01*
X15540264Y-11956142D01*
X15612835Y-11919857D01*
X15757978Y-11883571D01*
X15830550Y-11847285D01*
X15866835Y-11811000D01*
X15903121Y-11738428D01*
X15903121Y-11665857D01*
X15866835Y-11593285D01*
X15830550Y-11557000D01*
X15757978Y-11520714D01*
X15576550Y-11520714D01*
X15467692Y-11557000D01*
X15249978Y-11520714D02*
X14814550Y-11520714D01*
X15032264Y-12282714D02*
X15032264Y-11520714D01*
X14560550Y-12282714D02*
X14560550Y-11520714D01*
X14379121Y-11520714D01*
X14270264Y-11557000D01*
X14197692Y-11629571D01*
X14161407Y-11702142D01*
X14125121Y-11847285D01*
X14125121Y-11956142D01*
X14161407Y-12101285D01*
X14197692Y-12173857D01*
X14270264Y-12246428D01*
X14379121Y-12282714D01*
X14560550Y-12282714D01*
X13798550Y-12210142D02*
X13762264Y-12246428D01*
X13798550Y-12282714D01*
X13834835Y-12246428D01*
X13798550Y-12210142D01*
X13798550Y-12282714D01*
X13798550Y-11811000D02*
X13762264Y-11847285D01*
X13798550Y-11883571D01*
X13834835Y-11847285D01*
X13798550Y-11811000D01*
X13798550Y-11883571D01*
X12855121Y-11520714D02*
X12855121Y-12137571D01*
X12818835Y-12210142D01*
X12782550Y-12246428D01*
X12709978Y-12282714D01*
X12564835Y-12282714D01*
X12492264Y-12246428D01*
X12455978Y-12210142D01*
X12419692Y-12137571D01*
X12419692Y-11520714D01*
X12093121Y-12246428D02*
X11984264Y-12282714D01*
X11802835Y-12282714D01*
X11730264Y-12246428D01*
X11693978Y-12210142D01*
X11657692Y-12137571D01*
X11657692Y-12065000D01*
X11693978Y-11992428D01*
X11730264Y-11956142D01*
X11802835Y-11919857D01*
X11947978Y-11883571D01*
X12020550Y-11847285D01*
X12056835Y-11811000D01*
X12093121Y-11738428D01*
X12093121Y-11665857D01*
X12056835Y-11593285D01*
X12020550Y-11557000D01*
X11947978Y-11520714D01*
X11766550Y-11520714D01*
X11657692Y-11557000D01*
X11077121Y-11883571D02*
X10968264Y-11919857D01*
X10931978Y-11956142D01*
X10895692Y-12028714D01*
X10895692Y-12137571D01*
X10931978Y-12210142D01*
X10968264Y-12246428D01*
X11040835Y-12282714D01*
X11331121Y-12282714D01*
X11331121Y-11520714D01*
X11077121Y-11520714D01*
X11004550Y-11557000D01*
X10968264Y-11593285D01*
X10931978Y-11665857D01*
X10931978Y-11738428D01*
X10968264Y-11811000D01*
X11004550Y-11847285D01*
X11077121Y-11883571D01*
X11331121Y-11883571D01*
D11*
X28575000Y-47625000D02*
X43815000Y-47625000D01*
X27940000Y-41275000D02*
X43815000Y-41275000D01*
D12*
X13800666Y-23939500D02*
X13800666Y-24532166D01*
X14012333Y-23600833D02*
X14224000Y-24235833D01*
X13673666Y-24235833D01*
X10456333Y-23643166D02*
X9906000Y-23643166D01*
X10202333Y-23981833D01*
X10075333Y-23981833D01*
X9990666Y-24024166D01*
X9948333Y-24066500D01*
X9906000Y-24151166D01*
X9906000Y-24362833D01*
X9948333Y-24447500D01*
X9990666Y-24489833D01*
X10075333Y-24532166D01*
X10329333Y-24532166D01*
X10414000Y-24489833D01*
X10456333Y-24447500D01*
X6604000Y-23727833D02*
X6561666Y-23685500D01*
X6477000Y-23643166D01*
X6265333Y-23643166D01*
X6180666Y-23685500D01*
X6138333Y-23727833D01*
X6096000Y-23812500D01*
X6096000Y-23897166D01*
X6138333Y-24024166D01*
X6646333Y-24532166D01*
X6096000Y-24532166D01*
X2286000Y-24532166D02*
X2794000Y-24532166D01*
X2540000Y-24532166D02*
X2540000Y-23643166D01*
X2624666Y-23770166D01*
X2709333Y-23854833D01*
X2794000Y-23897166D01*
X3159880Y-20607261D02*
X3159880Y-19972261D01*
X2887738Y-20032738D02*
X2857500Y-20002500D01*
X2797023Y-19972261D01*
X2645833Y-19972261D01*
X2585357Y-20002500D01*
X2555119Y-20032738D01*
X2524880Y-20093214D01*
X2524880Y-20153690D01*
X2555119Y-20244404D01*
X2917976Y-20607261D01*
X2524880Y-20607261D01*
X1889880Y-20546785D02*
X1920119Y-20577023D01*
X2010833Y-20607261D01*
X2071309Y-20607261D01*
X2162023Y-20577023D01*
X2222500Y-20516547D01*
X2252738Y-20456071D01*
X2282976Y-20335119D01*
X2282976Y-20244404D01*
X2252738Y-20123452D01*
X2222500Y-20062976D01*
X2162023Y-20002500D01*
X2071309Y-19972261D01*
X2010833Y-19972261D01*
X1920119Y-20002500D01*
X1889880Y-20032738D01*
X6969880Y-20607261D02*
X6969880Y-19972261D01*
X6697738Y-20032738D02*
X6667500Y-20002500D01*
X6607023Y-19972261D01*
X6455833Y-19972261D01*
X6395357Y-20002500D01*
X6365119Y-20032738D01*
X6334880Y-20093214D01*
X6334880Y-20153690D01*
X6365119Y-20244404D01*
X6727976Y-20607261D01*
X6334880Y-20607261D01*
X5699880Y-20546785D02*
X5730119Y-20577023D01*
X5820833Y-20607261D01*
X5881309Y-20607261D01*
X5972023Y-20577023D01*
X6032500Y-20516547D01*
X6062738Y-20456071D01*
X6092976Y-20335119D01*
X6092976Y-20244404D01*
X6062738Y-20123452D01*
X6032500Y-20062976D01*
X5972023Y-20002500D01*
X5881309Y-19972261D01*
X5820833Y-19972261D01*
X5730119Y-20002500D01*
X5699880Y-20032738D01*
X3619500Y-22584833D02*
X3492500Y-22627166D01*
X3280833Y-22627166D01*
X3196166Y-22584833D01*
X3153833Y-22542500D01*
X3111500Y-22457833D01*
X3111500Y-22373166D01*
X3153833Y-22288500D01*
X3196166Y-22246166D01*
X3280833Y-22203833D01*
X3450166Y-22161500D01*
X3534833Y-22119166D01*
X3577166Y-22076833D01*
X3619500Y-21992166D01*
X3619500Y-21907500D01*
X3577166Y-21822833D01*
X3534833Y-21780500D01*
X3450166Y-21738166D01*
X3238500Y-21738166D01*
X3111500Y-21780500D01*
X2730500Y-22627166D02*
X2730500Y-21738166D01*
X2518833Y-21738166D01*
X2391833Y-21780500D01*
X2307166Y-21865166D01*
X2264833Y-21949833D01*
X2222500Y-22119166D01*
X2222500Y-22246166D01*
X2264833Y-22415500D01*
X2307166Y-22500166D01*
X2391833Y-22584833D01*
X2518833Y-22627166D01*
X2730500Y-22627166D01*
X1883833Y-22373166D02*
X1460500Y-22373166D01*
X1968500Y-22627166D02*
X1672166Y-21738166D01*
X1375833Y-22627166D01*
X7408333Y-22584833D02*
X7281333Y-22627166D01*
X7069666Y-22627166D01*
X6985000Y-22584833D01*
X6942666Y-22542500D01*
X6900333Y-22457833D01*
X6900333Y-22373166D01*
X6942666Y-22288500D01*
X6985000Y-22246166D01*
X7069666Y-22203833D01*
X7239000Y-22161500D01*
X7323666Y-22119166D01*
X7366000Y-22076833D01*
X7408333Y-21992166D01*
X7408333Y-21907500D01*
X7366000Y-21822833D01*
X7323666Y-21780500D01*
X7239000Y-21738166D01*
X7027333Y-21738166D01*
X6900333Y-21780500D01*
X6011333Y-22542500D02*
X6053666Y-22584833D01*
X6180666Y-22627166D01*
X6265333Y-22627166D01*
X6392333Y-22584833D01*
X6477000Y-22500166D01*
X6519333Y-22415500D01*
X6561666Y-22246166D01*
X6561666Y-22119166D01*
X6519333Y-21949833D01*
X6477000Y-21865166D01*
X6392333Y-21780500D01*
X6265333Y-21738166D01*
X6180666Y-21738166D01*
X6053666Y-21780500D01*
X6011333Y-21822833D01*
X5207000Y-22627166D02*
X5630333Y-22627166D01*
X5630333Y-21738166D01*
X11260666Y-21103166D02*
X10710333Y-21103166D01*
X11006666Y-21441833D01*
X10879666Y-21441833D01*
X10795000Y-21484166D01*
X10752666Y-21526500D01*
X10710333Y-21611166D01*
X10710333Y-21822833D01*
X10752666Y-21907500D01*
X10795000Y-21949833D01*
X10879666Y-21992166D01*
X11133666Y-21992166D01*
X11218333Y-21949833D01*
X11260666Y-21907500D01*
X10456333Y-21103166D02*
X10160000Y-21992166D01*
X9863666Y-21103166D01*
X9652000Y-21103166D02*
X9101666Y-21103166D01*
X9398000Y-21441833D01*
X9271000Y-21441833D01*
X9186333Y-21484166D01*
X9144000Y-21526500D01*
X9101666Y-21611166D01*
X9101666Y-21822833D01*
X9144000Y-21907500D01*
X9186333Y-21949833D01*
X9271000Y-21992166D01*
X9525000Y-21992166D01*
X9609666Y-21949833D01*
X9652000Y-21907500D01*
X14647333Y-21145500D02*
X14732000Y-21103166D01*
X14859000Y-21103166D01*
X14986000Y-21145500D01*
X15070666Y-21230166D01*
X15113000Y-21314833D01*
X15155333Y-21484166D01*
X15155333Y-21611166D01*
X15113000Y-21780500D01*
X15070666Y-21865166D01*
X14986000Y-21949833D01*
X14859000Y-21992166D01*
X14774333Y-21992166D01*
X14647333Y-21949833D01*
X14605000Y-21907500D01*
X14605000Y-21611166D01*
X14774333Y-21611166D01*
X14224000Y-21992166D02*
X14224000Y-21103166D01*
X13716000Y-21992166D01*
X13716000Y-21103166D01*
X13292666Y-21992166D02*
X13292666Y-21103166D01*
X13081000Y-21103166D01*
X12954000Y-21145500D01*
X12869333Y-21230166D01*
X12827000Y-21314833D01*
X12784666Y-21484166D01*
X12784666Y-21611166D01*
X12827000Y-21780500D01*
X12869333Y-21865166D01*
X12954000Y-21949833D01*
X13081000Y-21992166D01*
X13292666Y-21992166D01*
D11*
X12065000Y-19685000D02*
X15875000Y-19685000D01*
X8255000Y-19685000D02*
X12065000Y-19685000D01*
X4445000Y-23495000D02*
X8255000Y-23495000D01*
X635000Y-19685000D02*
X4445000Y-19685000D01*
X635000Y-23495000D02*
X635000Y-19685000D01*
X4445000Y-23495000D02*
X635000Y-23495000D01*
X4445000Y-19685000D02*
X4445000Y-23495000D01*
X8255000Y-19685000D02*
X4445000Y-19685000D01*
X8255000Y-23495000D02*
X8255000Y-19685000D01*
X12065000Y-23495000D02*
X8255000Y-23495000D01*
X12065000Y-23495000D02*
X12065000Y-19685000D01*
X15875000Y-23495000D02*
X12065000Y-23495000D01*
X15875000Y-19685000D02*
X15875000Y-23495000D01*
D12*
X2794000Y-26267833D02*
X2751666Y-26225500D01*
X2667000Y-26183166D01*
X2455333Y-26183166D01*
X2370666Y-26225500D01*
X2328333Y-26267833D01*
X2286000Y-26352500D01*
X2286000Y-26437166D01*
X2328333Y-26564166D01*
X2836333Y-27072166D01*
X2286000Y-27072166D01*
X6180666Y-26479500D02*
X6180666Y-27072166D01*
X6392333Y-26140833D02*
X6604000Y-26775833D01*
X6053666Y-26775833D01*
X9990666Y-26183166D02*
X10160000Y-26183166D01*
X10244666Y-26225500D01*
X10287000Y-26267833D01*
X10371666Y-26394833D01*
X10414000Y-26564166D01*
X10414000Y-26902833D01*
X10371666Y-26987500D01*
X10329333Y-27029833D01*
X10244666Y-27072166D01*
X10075333Y-27072166D01*
X9990666Y-27029833D01*
X9948333Y-26987500D01*
X9906000Y-26902833D01*
X9906000Y-26691166D01*
X9948333Y-26606500D01*
X9990666Y-26564166D01*
X10075333Y-26521833D01*
X10244666Y-26521833D01*
X10329333Y-26564166D01*
X10371666Y-26606500D01*
X10414000Y-26691166D01*
X14054666Y-26564166D02*
X14139333Y-26521833D01*
X14181666Y-26479500D01*
X14224000Y-26394833D01*
X14224000Y-26352500D01*
X14181666Y-26267833D01*
X14139333Y-26225500D01*
X14054666Y-26183166D01*
X13885333Y-26183166D01*
X13800666Y-26225500D01*
X13758333Y-26267833D01*
X13716000Y-26352500D01*
X13716000Y-26394833D01*
X13758333Y-26479500D01*
X13800666Y-26521833D01*
X13885333Y-26564166D01*
X14054666Y-26564166D01*
X14139333Y-26606500D01*
X14181666Y-26648833D01*
X14224000Y-26733500D01*
X14224000Y-26902833D01*
X14181666Y-26987500D01*
X14139333Y-27029833D01*
X14054666Y-27072166D01*
X13885333Y-27072166D01*
X13800666Y-27029833D01*
X13758333Y-26987500D01*
X13716000Y-26902833D01*
X13716000Y-26733500D01*
X13758333Y-26648833D01*
X13800666Y-26606500D01*
X13885333Y-26564166D01*
X17949333Y-27072166D02*
X18457333Y-27072166D01*
X18203333Y-27072166D02*
X18203333Y-26183166D01*
X18288000Y-26310166D01*
X18372666Y-26394833D01*
X18457333Y-26437166D01*
X17399000Y-26183166D02*
X17314333Y-26183166D01*
X17229666Y-26225500D01*
X17187333Y-26267833D01*
X17145000Y-26352500D01*
X17102666Y-26521833D01*
X17102666Y-26733500D01*
X17145000Y-26902833D01*
X17187333Y-26987500D01*
X17229666Y-27029833D01*
X17314333Y-27072166D01*
X17399000Y-27072166D01*
X17483666Y-27029833D01*
X17526000Y-26987500D01*
X17568333Y-26902833D01*
X17610666Y-26733500D01*
X17610666Y-26521833D01*
X17568333Y-26352500D01*
X17526000Y-26267833D01*
X17483666Y-26225500D01*
X17399000Y-26183166D01*
X21759333Y-27072166D02*
X22267333Y-27072166D01*
X22013333Y-27072166D02*
X22013333Y-26183166D01*
X22098000Y-26310166D01*
X22182666Y-26394833D01*
X22267333Y-26437166D01*
X21463000Y-26183166D02*
X20912666Y-26183166D01*
X21209000Y-26521833D01*
X21082000Y-26521833D01*
X20997333Y-26564166D01*
X20955000Y-26606500D01*
X20912666Y-26691166D01*
X20912666Y-26902833D01*
X20955000Y-26987500D01*
X20997333Y-27029833D01*
X21082000Y-27072166D01*
X21336000Y-27072166D01*
X21420666Y-27029833D01*
X21463000Y-26987500D01*
X25569333Y-27072166D02*
X26077333Y-27072166D01*
X25823333Y-27072166D02*
X25823333Y-26183166D01*
X25908000Y-26310166D01*
X25992666Y-26394833D01*
X26077333Y-26437166D01*
X24807333Y-26479500D02*
X24807333Y-27072166D01*
X25019000Y-26140833D02*
X25230666Y-26775833D01*
X24680333Y-26775833D01*
X29379333Y-27072166D02*
X29887333Y-27072166D01*
X29633333Y-27072166D02*
X29633333Y-26183166D01*
X29718000Y-26310166D01*
X29802666Y-26394833D01*
X29887333Y-26437166D01*
X28617333Y-26183166D02*
X28786666Y-26183166D01*
X28871333Y-26225500D01*
X28913666Y-26267833D01*
X28998333Y-26394833D01*
X29040666Y-26564166D01*
X29040666Y-26902833D01*
X28998333Y-26987500D01*
X28956000Y-27029833D01*
X28871333Y-27072166D01*
X28702000Y-27072166D01*
X28617333Y-27029833D01*
X28575000Y-26987500D01*
X28532666Y-26902833D01*
X28532666Y-26691166D01*
X28575000Y-26606500D01*
X28617333Y-26564166D01*
X28702000Y-26521833D01*
X28871333Y-26521833D01*
X28956000Y-26564166D01*
X28998333Y-26606500D01*
X29040666Y-26691166D01*
X29379333Y-36597166D02*
X29887333Y-36597166D01*
X29633333Y-36597166D02*
X29633333Y-35708166D01*
X29718000Y-35835166D01*
X29802666Y-35919833D01*
X29887333Y-35962166D01*
X28575000Y-35708166D02*
X28998333Y-35708166D01*
X29040666Y-36131500D01*
X28998333Y-36089166D01*
X28913666Y-36046833D01*
X28702000Y-36046833D01*
X28617333Y-36089166D01*
X28575000Y-36131500D01*
X28532666Y-36216166D01*
X28532666Y-36427833D01*
X28575000Y-36512500D01*
X28617333Y-36554833D01*
X28702000Y-36597166D01*
X28913666Y-36597166D01*
X28998333Y-36554833D01*
X29040666Y-36512500D01*
X25569333Y-36597166D02*
X26077333Y-36597166D01*
X25823333Y-36597166D02*
X25823333Y-35708166D01*
X25908000Y-35835166D01*
X25992666Y-35919833D01*
X26077333Y-35962166D01*
X25273000Y-35708166D02*
X24722666Y-35708166D01*
X25019000Y-36046833D01*
X24892000Y-36046833D01*
X24807333Y-36089166D01*
X24765000Y-36131500D01*
X24722666Y-36216166D01*
X24722666Y-36427833D01*
X24765000Y-36512500D01*
X24807333Y-36554833D01*
X24892000Y-36597166D01*
X25146000Y-36597166D01*
X25230666Y-36554833D01*
X25273000Y-36512500D01*
X21759333Y-36597166D02*
X22267333Y-36597166D01*
X22013333Y-36597166D02*
X22013333Y-35708166D01*
X22098000Y-35835166D01*
X22182666Y-35919833D01*
X22267333Y-35962166D01*
X20912666Y-36597166D02*
X21420666Y-36597166D01*
X21166666Y-36597166D02*
X21166666Y-35708166D01*
X21251333Y-35835166D01*
X21336000Y-35919833D01*
X21420666Y-35962166D01*
X17949333Y-36597166D02*
X17780000Y-36597166D01*
X17695333Y-36554833D01*
X17653000Y-36512500D01*
X17568333Y-36385500D01*
X17526000Y-36216166D01*
X17526000Y-35877500D01*
X17568333Y-35792833D01*
X17610666Y-35750500D01*
X17695333Y-35708166D01*
X17864666Y-35708166D01*
X17949333Y-35750500D01*
X17991666Y-35792833D01*
X18034000Y-35877500D01*
X18034000Y-36089166D01*
X17991666Y-36173833D01*
X17949333Y-36216166D01*
X17864666Y-36258500D01*
X17695333Y-36258500D01*
X17610666Y-36216166D01*
X17568333Y-36173833D01*
X17526000Y-36089166D01*
X14266333Y-35708166D02*
X13673666Y-35708166D01*
X14054666Y-36597166D01*
X9948333Y-35708166D02*
X10371666Y-35708166D01*
X10414000Y-36131500D01*
X10371666Y-36089166D01*
X10287000Y-36046833D01*
X10075333Y-36046833D01*
X9990666Y-36089166D01*
X9948333Y-36131500D01*
X9906000Y-36216166D01*
X9906000Y-36427833D01*
X9948333Y-36512500D01*
X9990666Y-36554833D01*
X10075333Y-36597166D01*
X10287000Y-36597166D01*
X10371666Y-36554833D01*
X10414000Y-36512500D01*
X6646333Y-35708166D02*
X6096000Y-35708166D01*
X6392333Y-36046833D01*
X6265333Y-36046833D01*
X6180666Y-36089166D01*
X6138333Y-36131500D01*
X6096000Y-36216166D01*
X6096000Y-36427833D01*
X6138333Y-36512500D01*
X6180666Y-36554833D01*
X6265333Y-36597166D01*
X6519333Y-36597166D01*
X6604000Y-36554833D01*
X6646333Y-36512500D01*
X2286000Y-36597166D02*
X2794000Y-36597166D01*
X2540000Y-36597166D02*
X2540000Y-35708166D01*
X2624666Y-35835166D01*
X2709333Y-35919833D01*
X2794000Y-35962166D01*
X30882166Y-34057166D02*
X30882166Y-33168166D01*
X30543500Y-33168166D01*
X30458833Y-33210500D01*
X30416500Y-33252833D01*
X30374166Y-33337500D01*
X30374166Y-33464500D01*
X30416500Y-33549166D01*
X30458833Y-33591500D01*
X30543500Y-33633833D01*
X30882166Y-33633833D01*
X30077833Y-33168166D02*
X29866166Y-34057166D01*
X29696833Y-33422166D01*
X29527500Y-34057166D01*
X29315833Y-33168166D01*
X28977166Y-34057166D02*
X28977166Y-33168166D01*
X28680833Y-33803166D01*
X28384500Y-33168166D01*
X28384500Y-34057166D01*
X27495500Y-34057166D02*
X28003500Y-34057166D01*
X27749500Y-34057166D02*
X27749500Y-33168166D01*
X27834166Y-33295166D01*
X27918833Y-33379833D01*
X28003500Y-33422166D01*
X26013833Y-33210500D02*
X26098500Y-33168166D01*
X26225500Y-33168166D01*
X26352500Y-33210500D01*
X26437166Y-33295166D01*
X26479500Y-33379833D01*
X26521833Y-33549166D01*
X26521833Y-33676166D01*
X26479500Y-33845500D01*
X26437166Y-33930166D01*
X26352500Y-34014833D01*
X26225500Y-34057166D01*
X26140833Y-34057166D01*
X26013833Y-34014833D01*
X25971500Y-33972500D01*
X25971500Y-33676166D01*
X26140833Y-33676166D01*
X25124833Y-34057166D02*
X25632833Y-34057166D01*
X25378833Y-34057166D02*
X25378833Y-33168166D01*
X25463500Y-33295166D01*
X25548166Y-33379833D01*
X25632833Y-33422166D01*
X24278166Y-34057166D02*
X24786166Y-34057166D01*
X24532166Y-34057166D02*
X24532166Y-33168166D01*
X24616833Y-33295166D01*
X24701500Y-33379833D01*
X24786166Y-33422166D01*
X22246166Y-34057166D02*
X22246166Y-33168166D01*
X22034500Y-33168166D01*
X21907500Y-33210500D01*
X21822833Y-33295166D01*
X21780500Y-33379833D01*
X21738166Y-33549166D01*
X21738166Y-33676166D01*
X21780500Y-33845500D01*
X21822833Y-33930166D01*
X21907500Y-34014833D01*
X22034500Y-34057166D01*
X22246166Y-34057166D01*
X21187833Y-33168166D02*
X21103166Y-33168166D01*
X21018500Y-33210500D01*
X20976166Y-33252833D01*
X20933833Y-33337500D01*
X20891500Y-33506833D01*
X20891500Y-33718500D01*
X20933833Y-33887833D01*
X20976166Y-33972500D01*
X21018500Y-34014833D01*
X21103166Y-34057166D01*
X21187833Y-34057166D01*
X21272500Y-34014833D01*
X21314833Y-33972500D01*
X21357166Y-33887833D01*
X21399500Y-33718500D01*
X21399500Y-33506833D01*
X21357166Y-33337500D01*
X21314833Y-33252833D01*
X21272500Y-33210500D01*
X21187833Y-33168166D01*
X18436166Y-34057166D02*
X18436166Y-33168166D01*
X18224500Y-33168166D01*
X18097500Y-33210500D01*
X18012833Y-33295166D01*
X17970500Y-33379833D01*
X17928166Y-33549166D01*
X17928166Y-33676166D01*
X17970500Y-33845500D01*
X18012833Y-33930166D01*
X18097500Y-34014833D01*
X18224500Y-34057166D01*
X18436166Y-34057166D01*
X17081500Y-34057166D02*
X17589500Y-34057166D01*
X17335500Y-34057166D02*
X17335500Y-33168166D01*
X17420166Y-33295166D01*
X17504833Y-33379833D01*
X17589500Y-33422166D01*
X14160500Y-33210500D02*
X14245166Y-33168166D01*
X14372166Y-33168166D01*
X14499166Y-33210500D01*
X14583833Y-33295166D01*
X14626166Y-33379833D01*
X14668500Y-33549166D01*
X14668500Y-33676166D01*
X14626166Y-33845500D01*
X14583833Y-33930166D01*
X14499166Y-34014833D01*
X14372166Y-34057166D01*
X14287500Y-34057166D01*
X14160500Y-34014833D01*
X14118166Y-33972500D01*
X14118166Y-33676166D01*
X14287500Y-33676166D01*
X13567833Y-33168166D02*
X13483166Y-33168166D01*
X13398500Y-33210500D01*
X13356166Y-33252833D01*
X13313833Y-33337500D01*
X13271500Y-33506833D01*
X13271500Y-33718500D01*
X13313833Y-33887833D01*
X13356166Y-33972500D01*
X13398500Y-34014833D01*
X13483166Y-34057166D01*
X13567833Y-34057166D01*
X13652500Y-34014833D01*
X13694833Y-33972500D01*
X13737166Y-33887833D01*
X13779500Y-33718500D01*
X13779500Y-33506833D01*
X13737166Y-33337500D01*
X13694833Y-33252833D01*
X13652500Y-33210500D01*
X13567833Y-33168166D01*
X29845000Y-31432500D02*
X29905476Y-31402261D01*
X29996190Y-31402261D01*
X30086904Y-31432500D01*
X30147380Y-31492976D01*
X30177619Y-31553452D01*
X30207857Y-31674404D01*
X30207857Y-31765119D01*
X30177619Y-31886071D01*
X30147380Y-31946547D01*
X30086904Y-32007023D01*
X29996190Y-32037261D01*
X29935714Y-32037261D01*
X29845000Y-32007023D01*
X29814761Y-31976785D01*
X29814761Y-31765119D01*
X29935714Y-31765119D01*
X29542619Y-32037261D02*
X29542619Y-31402261D01*
X29300714Y-31402261D01*
X29240238Y-31432500D01*
X29210000Y-31462738D01*
X29179761Y-31523214D01*
X29179761Y-31613928D01*
X29210000Y-31674404D01*
X29240238Y-31704642D01*
X29300714Y-31734880D01*
X29542619Y-31734880D01*
X28907619Y-32037261D02*
X28907619Y-31402261D01*
X28484285Y-31402261D02*
X28363333Y-31402261D01*
X28302857Y-31432500D01*
X28242380Y-31492976D01*
X28212142Y-31613928D01*
X28212142Y-31825595D01*
X28242380Y-31946547D01*
X28302857Y-32007023D01*
X28363333Y-32037261D01*
X28484285Y-32037261D01*
X28544761Y-32007023D01*
X28605238Y-31946547D01*
X28635476Y-31825595D01*
X28635476Y-31613928D01*
X28605238Y-31492976D01*
X28544761Y-31432500D01*
X28484285Y-31402261D01*
X26035000Y-31432500D02*
X26095476Y-31402261D01*
X26186190Y-31402261D01*
X26276904Y-31432500D01*
X26337380Y-31492976D01*
X26367619Y-31553452D01*
X26397857Y-31674404D01*
X26397857Y-31765119D01*
X26367619Y-31886071D01*
X26337380Y-31946547D01*
X26276904Y-32007023D01*
X26186190Y-32037261D01*
X26125714Y-32037261D01*
X26035000Y-32007023D01*
X26004761Y-31976785D01*
X26004761Y-31765119D01*
X26125714Y-31765119D01*
X25732619Y-32037261D02*
X25732619Y-31402261D01*
X25490714Y-31402261D01*
X25430238Y-31432500D01*
X25400000Y-31462738D01*
X25369761Y-31523214D01*
X25369761Y-31613928D01*
X25400000Y-31674404D01*
X25430238Y-31704642D01*
X25490714Y-31734880D01*
X25732619Y-31734880D01*
X25097619Y-32037261D02*
X25097619Y-31402261D01*
X24674285Y-31402261D02*
X24553333Y-31402261D01*
X24492857Y-31432500D01*
X24432380Y-31492976D01*
X24402142Y-31613928D01*
X24402142Y-31825595D01*
X24432380Y-31946547D01*
X24492857Y-32007023D01*
X24553333Y-32037261D01*
X24674285Y-32037261D01*
X24734761Y-32007023D01*
X24795238Y-31946547D01*
X24825476Y-31825595D01*
X24825476Y-31613928D01*
X24795238Y-31492976D01*
X24734761Y-31432500D01*
X24674285Y-31402261D01*
X22225000Y-31432500D02*
X22285476Y-31402261D01*
X22376190Y-31402261D01*
X22466904Y-31432500D01*
X22527380Y-31492976D01*
X22557619Y-31553452D01*
X22587857Y-31674404D01*
X22587857Y-31765119D01*
X22557619Y-31886071D01*
X22527380Y-31946547D01*
X22466904Y-32007023D01*
X22376190Y-32037261D01*
X22315714Y-32037261D01*
X22225000Y-32007023D01*
X22194761Y-31976785D01*
X22194761Y-31765119D01*
X22315714Y-31765119D01*
X21922619Y-32037261D02*
X21922619Y-31402261D01*
X21680714Y-31402261D01*
X21620238Y-31432500D01*
X21590000Y-31462738D01*
X21559761Y-31523214D01*
X21559761Y-31613928D01*
X21590000Y-31674404D01*
X21620238Y-31704642D01*
X21680714Y-31734880D01*
X21922619Y-31734880D01*
X21287619Y-32037261D02*
X21287619Y-31402261D01*
X20864285Y-31402261D02*
X20743333Y-31402261D01*
X20682857Y-31432500D01*
X20622380Y-31492976D01*
X20592142Y-31613928D01*
X20592142Y-31825595D01*
X20622380Y-31946547D01*
X20682857Y-32007023D01*
X20743333Y-32037261D01*
X20864285Y-32037261D01*
X20924761Y-32007023D01*
X20985238Y-31946547D01*
X21015476Y-31825595D01*
X21015476Y-31613928D01*
X20985238Y-31492976D01*
X20924761Y-31432500D01*
X20864285Y-31402261D01*
X18415000Y-31432500D02*
X18475476Y-31402261D01*
X18566190Y-31402261D01*
X18656904Y-31432500D01*
X18717380Y-31492976D01*
X18747619Y-31553452D01*
X18777857Y-31674404D01*
X18777857Y-31765119D01*
X18747619Y-31886071D01*
X18717380Y-31946547D01*
X18656904Y-32007023D01*
X18566190Y-32037261D01*
X18505714Y-32037261D01*
X18415000Y-32007023D01*
X18384761Y-31976785D01*
X18384761Y-31765119D01*
X18505714Y-31765119D01*
X18112619Y-32037261D02*
X18112619Y-31402261D01*
X17870714Y-31402261D01*
X17810238Y-31432500D01*
X17780000Y-31462738D01*
X17749761Y-31523214D01*
X17749761Y-31613928D01*
X17780000Y-31674404D01*
X17810238Y-31704642D01*
X17870714Y-31734880D01*
X18112619Y-31734880D01*
X17477619Y-32037261D02*
X17477619Y-31402261D01*
X17054285Y-31402261D02*
X16933333Y-31402261D01*
X16872857Y-31432500D01*
X16812380Y-31492976D01*
X16782142Y-31613928D01*
X16782142Y-31825595D01*
X16812380Y-31946547D01*
X16872857Y-32007023D01*
X16933333Y-32037261D01*
X17054285Y-32037261D01*
X17114761Y-32007023D01*
X17175238Y-31946547D01*
X17205476Y-31825595D01*
X17205476Y-31613928D01*
X17175238Y-31492976D01*
X17114761Y-31432500D01*
X17054285Y-31402261D01*
X14605000Y-31432500D02*
X14665476Y-31402261D01*
X14756190Y-31402261D01*
X14846904Y-31432500D01*
X14907380Y-31492976D01*
X14937619Y-31553452D01*
X14967857Y-31674404D01*
X14967857Y-31765119D01*
X14937619Y-31886071D01*
X14907380Y-31946547D01*
X14846904Y-32007023D01*
X14756190Y-32037261D01*
X14695714Y-32037261D01*
X14605000Y-32007023D01*
X14574761Y-31976785D01*
X14574761Y-31765119D01*
X14695714Y-31765119D01*
X14302619Y-32037261D02*
X14302619Y-31402261D01*
X14060714Y-31402261D01*
X14000238Y-31432500D01*
X13970000Y-31462738D01*
X13939761Y-31523214D01*
X13939761Y-31613928D01*
X13970000Y-31674404D01*
X14000238Y-31704642D01*
X14060714Y-31734880D01*
X14302619Y-31734880D01*
X13667619Y-32037261D02*
X13667619Y-31402261D01*
X13244285Y-31402261D02*
X13123333Y-31402261D01*
X13062857Y-31432500D01*
X13002380Y-31492976D01*
X12972142Y-31613928D01*
X12972142Y-31825595D01*
X13002380Y-31946547D01*
X13062857Y-32007023D01*
X13123333Y-32037261D01*
X13244285Y-32037261D01*
X13304761Y-32007023D01*
X13365238Y-31946547D01*
X13395476Y-31825595D01*
X13395476Y-31613928D01*
X13365238Y-31492976D01*
X13304761Y-31432500D01*
X13244285Y-31402261D01*
X6836833Y-33972500D02*
X6879166Y-34014833D01*
X7006166Y-34057166D01*
X7090833Y-34057166D01*
X7217833Y-34014833D01*
X7302500Y-33930166D01*
X7344833Y-33845500D01*
X7387166Y-33676166D01*
X7387166Y-33549166D01*
X7344833Y-33379833D01*
X7302500Y-33295166D01*
X7217833Y-33210500D01*
X7090833Y-33168166D01*
X7006166Y-33168166D01*
X6879166Y-33210500D01*
X6836833Y-33252833D01*
X6582833Y-33168166D02*
X6074833Y-33168166D01*
X6328833Y-34057166D02*
X6328833Y-33168166D01*
X5820833Y-34014833D02*
X5693833Y-34057166D01*
X5482166Y-34057166D01*
X5397500Y-34014833D01*
X5355166Y-33972500D01*
X5312833Y-33887833D01*
X5312833Y-33803166D01*
X5355166Y-33718500D01*
X5397500Y-33676166D01*
X5482166Y-33633833D01*
X5651500Y-33591500D01*
X5736166Y-33549166D01*
X5778500Y-33506833D01*
X5820833Y-33422166D01*
X5820833Y-33337500D01*
X5778500Y-33252833D01*
X5736166Y-33210500D01*
X5651500Y-33168166D01*
X5439833Y-33168166D01*
X5312833Y-33210500D01*
X3026833Y-34057166D02*
X3323166Y-33633833D01*
X3534833Y-34057166D02*
X3534833Y-33168166D01*
X3196166Y-33168166D01*
X3111500Y-33210500D01*
X3069166Y-33252833D01*
X3026833Y-33337500D01*
X3026833Y-33464500D01*
X3069166Y-33549166D01*
X3111500Y-33591500D01*
X3196166Y-33633833D01*
X3534833Y-33633833D01*
X2772833Y-33168166D02*
X2264833Y-33168166D01*
X2518833Y-34057166D02*
X2518833Y-33168166D01*
X2010833Y-34014833D02*
X1883833Y-34057166D01*
X1672166Y-34057166D01*
X1587500Y-34014833D01*
X1545166Y-33972500D01*
X1502833Y-33887833D01*
X1502833Y-33803166D01*
X1545166Y-33718500D01*
X1587500Y-33676166D01*
X1672166Y-33633833D01*
X1841500Y-33591500D01*
X1926166Y-33549166D01*
X1968500Y-33506833D01*
X2010833Y-33422166D01*
X2010833Y-33337500D01*
X1968500Y-33252833D01*
X1926166Y-33210500D01*
X1841500Y-33168166D01*
X1629833Y-33168166D01*
X1502833Y-33210500D01*
X3552976Y-31402261D02*
X3552976Y-31916309D01*
X3522738Y-31976785D01*
X3492500Y-32007023D01*
X3432023Y-32037261D01*
X3311071Y-32037261D01*
X3250595Y-32007023D01*
X3220357Y-31976785D01*
X3190119Y-31916309D01*
X3190119Y-31402261D01*
X2917976Y-31855833D02*
X2615595Y-31855833D01*
X2978452Y-32037261D02*
X2766785Y-31402261D01*
X2555119Y-32037261D01*
X1980595Y-32037261D02*
X2192261Y-31734880D01*
X2343452Y-32037261D02*
X2343452Y-31402261D01*
X2101547Y-31402261D01*
X2041071Y-31432500D01*
X2010833Y-31462738D01*
X1980595Y-31523214D01*
X1980595Y-31613928D01*
X2010833Y-31674404D01*
X2041071Y-31704642D01*
X2101547Y-31734880D01*
X2343452Y-31734880D01*
X1799166Y-31402261D02*
X1436309Y-31402261D01*
X1617738Y-32037261D02*
X1617738Y-31402261D01*
X7362976Y-31402261D02*
X7362976Y-31916309D01*
X7332738Y-31976785D01*
X7302500Y-32007023D01*
X7242023Y-32037261D01*
X7121071Y-32037261D01*
X7060595Y-32007023D01*
X7030357Y-31976785D01*
X7000119Y-31916309D01*
X7000119Y-31402261D01*
X6727976Y-31855833D02*
X6425595Y-31855833D01*
X6788452Y-32037261D02*
X6576785Y-31402261D01*
X6365119Y-32037261D01*
X5790595Y-32037261D02*
X6002261Y-31734880D01*
X6153452Y-32037261D02*
X6153452Y-31402261D01*
X5911547Y-31402261D01*
X5851071Y-31432500D01*
X5820833Y-31462738D01*
X5790595Y-31523214D01*
X5790595Y-31613928D01*
X5820833Y-31674404D01*
X5851071Y-31704642D01*
X5911547Y-31734880D01*
X6153452Y-31734880D01*
X5609166Y-31402261D02*
X5246309Y-31402261D01*
X5427738Y-32037261D02*
X5427738Y-31402261D01*
X10795000Y-33803166D02*
X10371666Y-33803166D01*
X10879666Y-34057166D02*
X10583333Y-33168166D01*
X10287000Y-34057166D01*
X9821333Y-33168166D02*
X9736666Y-33168166D01*
X9652000Y-33210500D01*
X9609666Y-33252833D01*
X9567333Y-33337500D01*
X9525000Y-33506833D01*
X9525000Y-33718500D01*
X9567333Y-33887833D01*
X9609666Y-33972500D01*
X9652000Y-34014833D01*
X9736666Y-34057166D01*
X9821333Y-34057166D01*
X9906000Y-34014833D01*
X9948333Y-33972500D01*
X9990666Y-33887833D01*
X10033000Y-33718500D01*
X10033000Y-33506833D01*
X9990666Y-33337500D01*
X9948333Y-33252833D01*
X9906000Y-33210500D01*
X9821333Y-33168166D01*
X11823095Y-31855833D02*
X11520714Y-31855833D01*
X11883571Y-32037261D02*
X11671904Y-31402261D01*
X11460238Y-32037261D01*
X11248571Y-32037261D02*
X11248571Y-31402261D01*
X10885714Y-32037261D01*
X10885714Y-31402261D01*
X10613571Y-31855833D02*
X10311190Y-31855833D01*
X10674047Y-32037261D02*
X10462380Y-31402261D01*
X10250714Y-32037261D01*
X9736666Y-32037261D02*
X10039047Y-32037261D01*
X10039047Y-31402261D01*
X9404047Y-31402261D02*
X9283095Y-31402261D01*
X9222619Y-31432500D01*
X9162142Y-31492976D01*
X9131904Y-31613928D01*
X9131904Y-31825595D01*
X9162142Y-31946547D01*
X9222619Y-32007023D01*
X9283095Y-32037261D01*
X9404047Y-32037261D01*
X9464523Y-32007023D01*
X9525000Y-31946547D01*
X9555238Y-31825595D01*
X9555238Y-31613928D01*
X9525000Y-31492976D01*
X9464523Y-31432500D01*
X9404047Y-31402261D01*
X8527142Y-31432500D02*
X8587619Y-31402261D01*
X8678333Y-31402261D01*
X8769047Y-31432500D01*
X8829523Y-31492976D01*
X8859761Y-31553452D01*
X8890000Y-31674404D01*
X8890000Y-31765119D01*
X8859761Y-31886071D01*
X8829523Y-31946547D01*
X8769047Y-32007023D01*
X8678333Y-32037261D01*
X8617857Y-32037261D01*
X8527142Y-32007023D01*
X8496904Y-31976785D01*
X8496904Y-31765119D01*
X8617857Y-31765119D01*
X11823095Y-28045833D02*
X11520714Y-28045833D01*
X11883571Y-28227261D02*
X11671904Y-27592261D01*
X11460238Y-28227261D01*
X11248571Y-28227261D02*
X11248571Y-27592261D01*
X10885714Y-28227261D01*
X10885714Y-27592261D01*
X10613571Y-28045833D02*
X10311190Y-28045833D01*
X10674047Y-28227261D02*
X10462380Y-27592261D01*
X10250714Y-28227261D01*
X9736666Y-28227261D02*
X10039047Y-28227261D01*
X10039047Y-27592261D01*
X9404047Y-27592261D02*
X9283095Y-27592261D01*
X9222619Y-27622500D01*
X9162142Y-27682976D01*
X9131904Y-27803928D01*
X9131904Y-28015595D01*
X9162142Y-28136547D01*
X9222619Y-28197023D01*
X9283095Y-28227261D01*
X9404047Y-28227261D01*
X9464523Y-28197023D01*
X9525000Y-28136547D01*
X9555238Y-28015595D01*
X9555238Y-27803928D01*
X9525000Y-27682976D01*
X9464523Y-27622500D01*
X9404047Y-27592261D01*
X8527142Y-27622500D02*
X8587619Y-27592261D01*
X8678333Y-27592261D01*
X8769047Y-27622500D01*
X8829523Y-27682976D01*
X8859761Y-27743452D01*
X8890000Y-27864404D01*
X8890000Y-27955119D01*
X8859761Y-28076071D01*
X8829523Y-28136547D01*
X8769047Y-28197023D01*
X8678333Y-28227261D01*
X8617857Y-28227261D01*
X8527142Y-28197023D01*
X8496904Y-28166785D01*
X8496904Y-27955119D01*
X8617857Y-27955119D01*
X7362976Y-27592261D02*
X7362976Y-28106309D01*
X7332738Y-28166785D01*
X7302500Y-28197023D01*
X7242023Y-28227261D01*
X7121071Y-28227261D01*
X7060595Y-28197023D01*
X7030357Y-28166785D01*
X7000119Y-28106309D01*
X7000119Y-27592261D01*
X6727976Y-28045833D02*
X6425595Y-28045833D01*
X6788452Y-28227261D02*
X6576785Y-27592261D01*
X6365119Y-28227261D01*
X5790595Y-28227261D02*
X6002261Y-27924880D01*
X6153452Y-28227261D02*
X6153452Y-27592261D01*
X5911547Y-27592261D01*
X5851071Y-27622500D01*
X5820833Y-27652738D01*
X5790595Y-27713214D01*
X5790595Y-27803928D01*
X5820833Y-27864404D01*
X5851071Y-27894642D01*
X5911547Y-27924880D01*
X6153452Y-27924880D01*
X5609166Y-27592261D02*
X5246309Y-27592261D01*
X5427738Y-28227261D02*
X5427738Y-27592261D01*
X3552976Y-27592261D02*
X3552976Y-28106309D01*
X3522738Y-28166785D01*
X3492500Y-28197023D01*
X3432023Y-28227261D01*
X3311071Y-28227261D01*
X3250595Y-28197023D01*
X3220357Y-28166785D01*
X3190119Y-28106309D01*
X3190119Y-27592261D01*
X2917976Y-28045833D02*
X2615595Y-28045833D01*
X2978452Y-28227261D02*
X2766785Y-27592261D01*
X2555119Y-28227261D01*
X1980595Y-28227261D02*
X2192261Y-27924880D01*
X2343452Y-28227261D02*
X2343452Y-27592261D01*
X2101547Y-27592261D01*
X2041071Y-27622500D01*
X2010833Y-27652738D01*
X1980595Y-27713214D01*
X1980595Y-27803928D01*
X2010833Y-27864404D01*
X2041071Y-27894642D01*
X2101547Y-27924880D01*
X2343452Y-27924880D01*
X1799166Y-27592261D02*
X1436309Y-27592261D01*
X1617738Y-28227261D02*
X1617738Y-27592261D01*
X3132666Y-30247166D02*
X3429000Y-29823833D01*
X3640666Y-30247166D02*
X3640666Y-29358166D01*
X3302000Y-29358166D01*
X3217333Y-29400500D01*
X3175000Y-29442833D01*
X3132666Y-29527500D01*
X3132666Y-29654500D01*
X3175000Y-29739166D01*
X3217333Y-29781500D01*
X3302000Y-29823833D01*
X3640666Y-29823833D01*
X2836333Y-29358166D02*
X2243666Y-30247166D01*
X2243666Y-29358166D02*
X2836333Y-30247166D01*
X1905000Y-30247166D02*
X1905000Y-29358166D01*
X1693333Y-29358166D01*
X1566333Y-29400500D01*
X1481666Y-29485166D01*
X1439333Y-29569833D01*
X1397000Y-29739166D01*
X1397000Y-29866166D01*
X1439333Y-30035500D01*
X1481666Y-30120166D01*
X1566333Y-30204833D01*
X1693333Y-30247166D01*
X1905000Y-30247166D01*
X7471833Y-29358166D02*
X6963833Y-29358166D01*
X7217833Y-30247166D02*
X7217833Y-29358166D01*
X6752166Y-29358166D02*
X6159500Y-30247166D01*
X6159500Y-29358166D02*
X6752166Y-30247166D01*
X5820833Y-30247166D02*
X5820833Y-29358166D01*
X5609166Y-29358166D01*
X5482166Y-29400500D01*
X5397500Y-29485166D01*
X5355166Y-29569833D01*
X5312833Y-29739166D01*
X5312833Y-29866166D01*
X5355166Y-30035500D01*
X5397500Y-30120166D01*
X5482166Y-30204833D01*
X5609166Y-30247166D01*
X5820833Y-30247166D01*
X10795000Y-29993166D02*
X10371666Y-29993166D01*
X10879666Y-30247166D02*
X10583333Y-29358166D01*
X10287000Y-30247166D01*
X9525000Y-30247166D02*
X10033000Y-30247166D01*
X9779000Y-30247166D02*
X9779000Y-29358166D01*
X9863666Y-29485166D01*
X9948333Y-29569833D01*
X10033000Y-29612166D01*
X15070666Y-28723166D02*
X14520333Y-28723166D01*
X14816666Y-29061833D01*
X14689666Y-29061833D01*
X14605000Y-29104166D01*
X14562666Y-29146500D01*
X14520333Y-29231166D01*
X14520333Y-29442833D01*
X14562666Y-29527500D01*
X14605000Y-29569833D01*
X14689666Y-29612166D01*
X14943666Y-29612166D01*
X15028333Y-29569833D01*
X15070666Y-29527500D01*
X14266333Y-28723166D02*
X13970000Y-29612166D01*
X13673666Y-28723166D01*
X13462000Y-28723166D02*
X12911666Y-28723166D01*
X13208000Y-29061833D01*
X13081000Y-29061833D01*
X12996333Y-29104166D01*
X12954000Y-29146500D01*
X12911666Y-29231166D01*
X12911666Y-29442833D01*
X12954000Y-29527500D01*
X12996333Y-29569833D01*
X13081000Y-29612166D01*
X13335000Y-29612166D01*
X13419666Y-29569833D01*
X13462000Y-29527500D01*
X18923000Y-30204833D02*
X18796000Y-30247166D01*
X18584333Y-30247166D01*
X18499666Y-30204833D01*
X18457333Y-30162500D01*
X18415000Y-30077833D01*
X18415000Y-29993166D01*
X18457333Y-29908500D01*
X18499666Y-29866166D01*
X18584333Y-29823833D01*
X18753666Y-29781500D01*
X18838333Y-29739166D01*
X18880666Y-29696833D01*
X18923000Y-29612166D01*
X18923000Y-29527500D01*
X18880666Y-29442833D01*
X18838333Y-29400500D01*
X18753666Y-29358166D01*
X18542000Y-29358166D01*
X18415000Y-29400500D01*
X17526000Y-30162500D02*
X17568333Y-30204833D01*
X17695333Y-30247166D01*
X17780000Y-30247166D01*
X17907000Y-30204833D01*
X17991666Y-30120166D01*
X18034000Y-30035500D01*
X18076333Y-29866166D01*
X18076333Y-29739166D01*
X18034000Y-29569833D01*
X17991666Y-29485166D01*
X17907000Y-29400500D01*
X17780000Y-29358166D01*
X17695333Y-29358166D01*
X17568333Y-29400500D01*
X17526000Y-29442833D01*
X17145000Y-30247166D02*
X17145000Y-29358166D01*
X16637000Y-30247166D02*
X17018000Y-29739166D01*
X16637000Y-29358166D02*
X17145000Y-29866166D01*
X22436666Y-30162500D02*
X22479000Y-30204833D01*
X22606000Y-30247166D01*
X22690666Y-30247166D01*
X22817666Y-30204833D01*
X22902333Y-30120166D01*
X22944666Y-30035500D01*
X22987000Y-29866166D01*
X22987000Y-29739166D01*
X22944666Y-29569833D01*
X22902333Y-29485166D01*
X22817666Y-29400500D01*
X22690666Y-29358166D01*
X22606000Y-29358166D01*
X22479000Y-29400500D01*
X22436666Y-29442833D01*
X21886333Y-29358166D02*
X21717000Y-29358166D01*
X21632333Y-29400500D01*
X21547666Y-29485166D01*
X21505333Y-29654500D01*
X21505333Y-29950833D01*
X21547666Y-30120166D01*
X21632333Y-30204833D01*
X21717000Y-30247166D01*
X21886333Y-30247166D01*
X21971000Y-30204833D01*
X22055666Y-30120166D01*
X22098000Y-29950833D01*
X22098000Y-29654500D01*
X22055666Y-29485166D01*
X21971000Y-29400500D01*
X21886333Y-29358166D01*
X21124333Y-30247166D02*
X21124333Y-29358166D01*
X20785666Y-29358166D01*
X20701000Y-29400500D01*
X20658666Y-29442833D01*
X20616333Y-29527500D01*
X20616333Y-29654500D01*
X20658666Y-29739166D01*
X20701000Y-29781500D01*
X20785666Y-29823833D01*
X21124333Y-29823833D01*
X20235333Y-30247166D02*
X20235333Y-29358166D01*
X26246666Y-30162500D02*
X26289000Y-30204833D01*
X26416000Y-30247166D01*
X26500666Y-30247166D01*
X26627666Y-30204833D01*
X26712333Y-30120166D01*
X26754666Y-30035500D01*
X26797000Y-29866166D01*
X26797000Y-29739166D01*
X26754666Y-29569833D01*
X26712333Y-29485166D01*
X26627666Y-29400500D01*
X26500666Y-29358166D01*
X26416000Y-29358166D01*
X26289000Y-29400500D01*
X26246666Y-29442833D01*
X25865666Y-30247166D02*
X25865666Y-29358166D01*
X25442333Y-30247166D02*
X25442333Y-29358166D01*
X25103666Y-29358166D01*
X25019000Y-29400500D01*
X24976666Y-29442833D01*
X24934333Y-29527500D01*
X24934333Y-29654500D01*
X24976666Y-29739166D01*
X25019000Y-29781500D01*
X25103666Y-29823833D01*
X25442333Y-29823833D01*
X24384000Y-29358166D02*
X24214666Y-29358166D01*
X24130000Y-29400500D01*
X24045333Y-29485166D01*
X24003000Y-29654500D01*
X24003000Y-29950833D01*
X24045333Y-30120166D01*
X24130000Y-30204833D01*
X24214666Y-30247166D01*
X24384000Y-30247166D01*
X24468666Y-30204833D01*
X24553333Y-30120166D01*
X24595666Y-29950833D01*
X24595666Y-29654500D01*
X24553333Y-29485166D01*
X24468666Y-29400500D01*
X24384000Y-29358166D01*
X18430119Y-28197023D02*
X18339404Y-28227261D01*
X18188214Y-28227261D01*
X18127738Y-28197023D01*
X18097500Y-28166785D01*
X18067261Y-28106309D01*
X18067261Y-28045833D01*
X18097500Y-27985357D01*
X18127738Y-27955119D01*
X18188214Y-27924880D01*
X18309166Y-27894642D01*
X18369642Y-27864404D01*
X18399880Y-27834166D01*
X18430119Y-27773690D01*
X18430119Y-27713214D01*
X18399880Y-27652738D01*
X18369642Y-27622500D01*
X18309166Y-27592261D01*
X18157976Y-27592261D01*
X18067261Y-27622500D01*
X17795119Y-28227261D02*
X17795119Y-27592261D01*
X17553214Y-27592261D01*
X17492738Y-27622500D01*
X17462500Y-27652738D01*
X17432261Y-27713214D01*
X17432261Y-27803928D01*
X17462500Y-27864404D01*
X17492738Y-27894642D01*
X17553214Y-27924880D01*
X17795119Y-27924880D01*
X17160119Y-28227261D02*
X17160119Y-27592261D01*
X22240119Y-28197023D02*
X22149404Y-28227261D01*
X21998214Y-28227261D01*
X21937738Y-28197023D01*
X21907500Y-28166785D01*
X21877261Y-28106309D01*
X21877261Y-28045833D01*
X21907500Y-27985357D01*
X21937738Y-27955119D01*
X21998214Y-27924880D01*
X22119166Y-27894642D01*
X22179642Y-27864404D01*
X22209880Y-27834166D01*
X22240119Y-27773690D01*
X22240119Y-27713214D01*
X22209880Y-27652738D01*
X22179642Y-27622500D01*
X22119166Y-27592261D01*
X21967976Y-27592261D01*
X21877261Y-27622500D01*
X21605119Y-28227261D02*
X21605119Y-27592261D01*
X21363214Y-27592261D01*
X21302738Y-27622500D01*
X21272500Y-27652738D01*
X21242261Y-27713214D01*
X21242261Y-27803928D01*
X21272500Y-27864404D01*
X21302738Y-27894642D01*
X21363214Y-27924880D01*
X21605119Y-27924880D01*
X20970119Y-28227261D02*
X20970119Y-27592261D01*
X26050119Y-28197023D02*
X25959404Y-28227261D01*
X25808214Y-28227261D01*
X25747738Y-28197023D01*
X25717500Y-28166785D01*
X25687261Y-28106309D01*
X25687261Y-28045833D01*
X25717500Y-27985357D01*
X25747738Y-27955119D01*
X25808214Y-27924880D01*
X25929166Y-27894642D01*
X25989642Y-27864404D01*
X26019880Y-27834166D01*
X26050119Y-27773690D01*
X26050119Y-27713214D01*
X26019880Y-27652738D01*
X25989642Y-27622500D01*
X25929166Y-27592261D01*
X25777976Y-27592261D01*
X25687261Y-27622500D01*
X25415119Y-28227261D02*
X25415119Y-27592261D01*
X25173214Y-27592261D01*
X25112738Y-27622500D01*
X25082500Y-27652738D01*
X25052261Y-27713214D01*
X25052261Y-27803928D01*
X25082500Y-27864404D01*
X25112738Y-27894642D01*
X25173214Y-27924880D01*
X25415119Y-27924880D01*
X24780119Y-28227261D02*
X24780119Y-27592261D01*
X29887333Y-28765500D02*
X29972000Y-28723166D01*
X30099000Y-28723166D01*
X30226000Y-28765500D01*
X30310666Y-28850166D01*
X30353000Y-28934833D01*
X30395333Y-29104166D01*
X30395333Y-29231166D01*
X30353000Y-29400500D01*
X30310666Y-29485166D01*
X30226000Y-29569833D01*
X30099000Y-29612166D01*
X30014333Y-29612166D01*
X29887333Y-29569833D01*
X29845000Y-29527500D01*
X29845000Y-29231166D01*
X30014333Y-29231166D01*
X29464000Y-29612166D02*
X29464000Y-28723166D01*
X28956000Y-29612166D01*
X28956000Y-28723166D01*
X28532666Y-29612166D02*
X28532666Y-28723166D01*
X28321000Y-28723166D01*
X28194000Y-28765500D01*
X28109333Y-28850166D01*
X28067000Y-28934833D01*
X28024666Y-29104166D01*
X28024666Y-29231166D01*
X28067000Y-29400500D01*
X28109333Y-29485166D01*
X28194000Y-29569833D01*
X28321000Y-29612166D01*
X28532666Y-29612166D01*
D11*
X635000Y-31115000D02*
X31115000Y-31115000D01*
X29210000Y-27305000D02*
X31115000Y-27305000D01*
X31115000Y-27305000D02*
X31115000Y-34925000D01*
X27305000Y-27305000D02*
X27305000Y-34925000D01*
X23495000Y-27305000D02*
X23495000Y-34925000D01*
X19685000Y-27305000D02*
X19685000Y-34925000D01*
X15875000Y-27305000D02*
X15875000Y-34925000D01*
X12065000Y-27305000D02*
X12065000Y-34925000D01*
X8255000Y-27305000D02*
X8255000Y-34925000D01*
X4445000Y-27305000D02*
X4445000Y-34925000D01*
X635000Y-34925000D02*
X635000Y-27305000D01*
X31115000Y-34925000D02*
X635000Y-34925000D01*
X635000Y-27305000D02*
X29210000Y-27305000D01*
D12*
X25548166Y-37892566D02*
X24659166Y-37892566D01*
X24743833Y-38273566D02*
X24701500Y-38315900D01*
X24659166Y-38400566D01*
X24659166Y-38612233D01*
X24701500Y-38696900D01*
X24743833Y-38739233D01*
X24828500Y-38781566D01*
X24913166Y-38781566D01*
X25040166Y-38739233D01*
X25548166Y-38231233D01*
X25548166Y-38781566D01*
X25463500Y-39670566D02*
X25505833Y-39628233D01*
X25548166Y-39501233D01*
X25548166Y-39416566D01*
X25505833Y-39289566D01*
X25421166Y-39204900D01*
X25336500Y-39162566D01*
X25167166Y-39120233D01*
X25040166Y-39120233D01*
X24870833Y-39162566D01*
X24786166Y-39204900D01*
X24701500Y-39289566D01*
X24659166Y-39416566D01*
X24659166Y-39501233D01*
X24701500Y-39628233D01*
X24743833Y-39670566D01*
X25548166Y-42820166D02*
X24659166Y-42820166D01*
X25294166Y-43116500D01*
X24659166Y-43412833D01*
X25548166Y-43412833D01*
X25548166Y-43836166D02*
X24659166Y-43836166D01*
X25505833Y-44217166D02*
X25548166Y-44344166D01*
X25548166Y-44555833D01*
X25505833Y-44640500D01*
X25463500Y-44682833D01*
X25378833Y-44725166D01*
X25294166Y-44725166D01*
X25209500Y-44682833D01*
X25167166Y-44640500D01*
X25124833Y-44555833D01*
X25082500Y-44386500D01*
X25040166Y-44301833D01*
X24997833Y-44259500D01*
X24913166Y-44217166D01*
X24828500Y-44217166D01*
X24743833Y-44259500D01*
X24701500Y-44301833D01*
X24659166Y-44386500D01*
X24659166Y-44598166D01*
X24701500Y-44725166D01*
X25463500Y-45614166D02*
X25505833Y-45571833D01*
X25548166Y-45444833D01*
X25548166Y-45360166D01*
X25505833Y-45233166D01*
X25421166Y-45148500D01*
X25336500Y-45106166D01*
X25167166Y-45063833D01*
X25040166Y-45063833D01*
X24870833Y-45106166D01*
X24786166Y-45148500D01*
X24701500Y-45233166D01*
X24659166Y-45360166D01*
X24659166Y-45444833D01*
X24701500Y-45571833D01*
X24743833Y-45614166D01*
D10*
X27584400Y-41050633D02*
X27542066Y-41008300D01*
X27457400Y-40965966D01*
X27245733Y-40965966D01*
X27161066Y-41008300D01*
X27118733Y-41050633D01*
X27076400Y-41135300D01*
X27076400Y-41219966D01*
X27118733Y-41346966D01*
X27626733Y-41854966D01*
X27076400Y-41854966D01*
X45228933Y-41753366D02*
X45736933Y-41753366D01*
X45482933Y-41753366D02*
X45482933Y-40864366D01*
X45567600Y-40991366D01*
X45652266Y-41076033D01*
X45736933Y-41118366D01*
X44466933Y-40864366D02*
X44636266Y-40864366D01*
X44720933Y-40906700D01*
X44763266Y-40949033D01*
X44847933Y-41076033D01*
X44890266Y-41245366D01*
X44890266Y-41584033D01*
X44847933Y-41668700D01*
X44805600Y-41711033D01*
X44720933Y-41753366D01*
X44551600Y-41753366D01*
X44466933Y-41711033D01*
X44424600Y-41668700D01*
X44382266Y-41584033D01*
X44382266Y-41372366D01*
X44424600Y-41287700D01*
X44466933Y-41245366D01*
X44551600Y-41203033D01*
X44720933Y-41203033D01*
X44805600Y-41245366D01*
X44847933Y-41287700D01*
X44890266Y-41372366D01*
X45127333Y-48001766D02*
X45635333Y-48001766D01*
X45381333Y-48001766D02*
X45381333Y-47112766D01*
X45466000Y-47239766D01*
X45550666Y-47324433D01*
X45635333Y-47366766D01*
X44323000Y-47112766D02*
X44746333Y-47112766D01*
X44788666Y-47536100D01*
X44746333Y-47493766D01*
X44661666Y-47451433D01*
X44450000Y-47451433D01*
X44365333Y-47493766D01*
X44323000Y-47536100D01*
X44280666Y-47620766D01*
X44280666Y-47832433D01*
X44323000Y-47917100D01*
X44365333Y-47959433D01*
X44450000Y-48001766D01*
X44661666Y-48001766D01*
X44746333Y-47959433D01*
X44788666Y-47917100D01*
D12*
X27076400Y-48052566D02*
X27584400Y-48052566D01*
X27330400Y-48052566D02*
X27330400Y-47163566D01*
X27415066Y-47290566D01*
X27499733Y-47375233D01*
X27584400Y-47417566D01*
D10*
X33963428Y-25636764D02*
X33999714Y-25564192D01*
X33999714Y-25419050D01*
X33963428Y-25346478D01*
X33927142Y-25310192D01*
X33854571Y-25273907D01*
X33636857Y-25273907D01*
X33564285Y-25310192D01*
X33528000Y-25346478D01*
X33491714Y-25419050D01*
X33491714Y-25564192D01*
X33528000Y-25636764D01*
X33491714Y-26289907D02*
X33999714Y-26289907D01*
X33491714Y-25963335D02*
X33890857Y-25963335D01*
X33963428Y-25999621D01*
X33999714Y-26072192D01*
X33999714Y-26181050D01*
X33963428Y-26253621D01*
X33927142Y-26289907D01*
X33491714Y-26543907D02*
X33491714Y-26834192D01*
X33237714Y-26652764D02*
X33890857Y-26652764D01*
X33963428Y-26689050D01*
X33999714Y-26761621D01*
X33999714Y-26834192D01*
X33491714Y-27559907D02*
X33491714Y-27850192D01*
X33237714Y-27668764D02*
X33890857Y-27668764D01*
X33963428Y-27705050D01*
X33999714Y-27777621D01*
X33999714Y-27850192D01*
X33999714Y-28213050D02*
X33963428Y-28140478D01*
X33927142Y-28104192D01*
X33854571Y-28067907D01*
X33636857Y-28067907D01*
X33564285Y-28104192D01*
X33528000Y-28140478D01*
X33491714Y-28213050D01*
X33491714Y-28321907D01*
X33528000Y-28394478D01*
X33564285Y-28430764D01*
X33636857Y-28467050D01*
X33854571Y-28467050D01*
X33927142Y-28430764D01*
X33963428Y-28394478D01*
X33999714Y-28321907D01*
X33999714Y-28213050D01*
X33999714Y-29700764D02*
X33237714Y-29700764D01*
X33963428Y-29700764D02*
X33999714Y-29628192D01*
X33999714Y-29483050D01*
X33963428Y-29410478D01*
X33927142Y-29374192D01*
X33854571Y-29337907D01*
X33636857Y-29337907D01*
X33564285Y-29374192D01*
X33528000Y-29410478D01*
X33491714Y-29483050D01*
X33491714Y-29628192D01*
X33528000Y-29700764D01*
X33999714Y-30063621D02*
X33491714Y-30063621D01*
X33237714Y-30063621D02*
X33274000Y-30027335D01*
X33310285Y-30063621D01*
X33274000Y-30099907D01*
X33237714Y-30063621D01*
X33310285Y-30063621D01*
X33963428Y-30390192D02*
X33999714Y-30462764D01*
X33999714Y-30607907D01*
X33963428Y-30680478D01*
X33890857Y-30716764D01*
X33854571Y-30716764D01*
X33782000Y-30680478D01*
X33745714Y-30607907D01*
X33745714Y-30499050D01*
X33709428Y-30426478D01*
X33636857Y-30390192D01*
X33600571Y-30390192D01*
X33528000Y-30426478D01*
X33491714Y-30499050D01*
X33491714Y-30607907D01*
X33528000Y-30680478D01*
X33999714Y-31369907D02*
X33600571Y-31369907D01*
X33528000Y-31333621D01*
X33491714Y-31261050D01*
X33491714Y-31115907D01*
X33528000Y-31043335D01*
X33963428Y-31369907D02*
X33999714Y-31297335D01*
X33999714Y-31115907D01*
X33963428Y-31043335D01*
X33890857Y-31007050D01*
X33818285Y-31007050D01*
X33745714Y-31043335D01*
X33709428Y-31115907D01*
X33709428Y-31297335D01*
X33673142Y-31369907D01*
X33999714Y-31732764D02*
X33237714Y-31732764D01*
X33528000Y-31732764D02*
X33491714Y-31805335D01*
X33491714Y-31950478D01*
X33528000Y-32023050D01*
X33564285Y-32059335D01*
X33636857Y-32095621D01*
X33854571Y-32095621D01*
X33927142Y-32059335D01*
X33963428Y-32023050D01*
X33999714Y-31950478D01*
X33999714Y-31805335D01*
X33963428Y-31732764D01*
X33999714Y-32531050D02*
X33963428Y-32458478D01*
X33890857Y-32422192D01*
X33237714Y-32422192D01*
X33963428Y-33111621D02*
X33999714Y-33039050D01*
X33999714Y-32893907D01*
X33963428Y-32821335D01*
X33890857Y-32785050D01*
X33600571Y-32785050D01*
X33528000Y-32821335D01*
X33491714Y-32893907D01*
X33491714Y-33039050D01*
X33528000Y-33111621D01*
X33600571Y-33147907D01*
X33673142Y-33147907D01*
X33745714Y-32785050D01*
X35269714Y-26870478D02*
X34507714Y-26870478D01*
X34580285Y-27197050D02*
X34544000Y-27233335D01*
X34507714Y-27305907D01*
X34507714Y-27487335D01*
X34544000Y-27559907D01*
X34580285Y-27596192D01*
X34652857Y-27632478D01*
X34725428Y-27632478D01*
X34834285Y-27596192D01*
X35269714Y-27160764D01*
X35269714Y-27632478D01*
X35197142Y-28394478D02*
X35233428Y-28358192D01*
X35269714Y-28249335D01*
X35269714Y-28176764D01*
X35233428Y-28067907D01*
X35160857Y-27995335D01*
X35088285Y-27959050D01*
X34943142Y-27922764D01*
X34834285Y-27922764D01*
X34689142Y-27959050D01*
X34616571Y-27995335D01*
X34544000Y-28067907D01*
X34507714Y-28176764D01*
X34507714Y-28249335D01*
X34544000Y-28358192D01*
X34580285Y-28394478D01*
X34761714Y-29301621D02*
X35523714Y-29301621D01*
X34798000Y-29301621D02*
X34761714Y-29374192D01*
X34761714Y-29519335D01*
X34798000Y-29591907D01*
X34834285Y-29628192D01*
X34906857Y-29664478D01*
X35124571Y-29664478D01*
X35197142Y-29628192D01*
X35233428Y-29591907D01*
X35269714Y-29519335D01*
X35269714Y-29374192D01*
X35233428Y-29301621D01*
X34761714Y-30317621D02*
X35269714Y-30317621D01*
X34761714Y-29991050D02*
X35160857Y-29991050D01*
X35233428Y-30027335D01*
X35269714Y-30099907D01*
X35269714Y-30208764D01*
X35233428Y-30281335D01*
X35197142Y-30317621D01*
X35269714Y-30789335D02*
X35233428Y-30716764D01*
X35160857Y-30680478D01*
X34507714Y-30680478D01*
X35269714Y-31188478D02*
X35233428Y-31115907D01*
X35160857Y-31079621D01*
X34507714Y-31079621D01*
X34761714Y-31805335D02*
X35269714Y-31805335D01*
X34761714Y-31478764D02*
X35160857Y-31478764D01*
X35233428Y-31515050D01*
X35269714Y-31587621D01*
X35269714Y-31696478D01*
X35233428Y-31769050D01*
X35197142Y-31805335D01*
X34761714Y-32168192D02*
X35523714Y-32168192D01*
X34798000Y-32168192D02*
X34761714Y-32240764D01*
X34761714Y-32385907D01*
X34798000Y-32458478D01*
X34834285Y-32494764D01*
X34906857Y-32531050D01*
X35124571Y-32531050D01*
X35197142Y-32494764D01*
X35233428Y-32458478D01*
X35269714Y-32385907D01*
X35269714Y-32240764D01*
X35233428Y-32168192D01*
X35233428Y-32821335D02*
X35269714Y-32893907D01*
X35269714Y-33039050D01*
X35233428Y-33111621D01*
X35160857Y-33147907D01*
X35124571Y-33147907D01*
X35052000Y-33111621D01*
X35015714Y-33039050D01*
X35015714Y-32930192D01*
X34979428Y-32857621D01*
X34906857Y-32821335D01*
X34870571Y-32821335D01*
X34798000Y-32857621D01*
X34761714Y-32930192D01*
X34761714Y-33039050D01*
X34798000Y-33111621D01*
D12*
X26417330Y-15382723D02*
X26538282Y-15322247D01*
X26598759Y-15201295D01*
X26598759Y-14112723D01*
X25389235Y-14536057D02*
X25389235Y-15382723D01*
X25933520Y-14536057D02*
X25933520Y-15201295D01*
X25873044Y-15322247D01*
X25752092Y-15382723D01*
X25570663Y-15382723D01*
X25449711Y-15322247D01*
X25389235Y-15261771D01*
X24784473Y-14536057D02*
X24784473Y-15382723D01*
X24784473Y-14657009D02*
X24723997Y-14596533D01*
X24603044Y-14536057D01*
X24421616Y-14536057D01*
X24300663Y-14596533D01*
X24240187Y-14717485D01*
X24240187Y-15382723D01*
X23393520Y-14112723D02*
X23151616Y-14112723D01*
X23030663Y-14173200D01*
X22909711Y-14294152D01*
X22849235Y-14536057D01*
X22849235Y-14959390D01*
X22909711Y-15201295D01*
X23030663Y-15322247D01*
X23151616Y-15382723D01*
X23393520Y-15382723D01*
X23514473Y-15322247D01*
X23635425Y-15201295D01*
X23695901Y-14959390D01*
X23695901Y-14536057D01*
X23635425Y-14294152D01*
X23514473Y-14173200D01*
X23393520Y-14112723D01*
X22304949Y-14536057D02*
X22304949Y-15806057D01*
X22304949Y-14596533D02*
X22183997Y-14536057D01*
X21942092Y-14536057D01*
X21821139Y-14596533D01*
X21760663Y-14657009D01*
X21700187Y-14777961D01*
X21700187Y-15140819D01*
X21760663Y-15261771D01*
X21821139Y-15322247D01*
X21942092Y-15382723D01*
X22183997Y-15382723D01*
X22304949Y-15322247D01*
X21337330Y-14536057D02*
X20853520Y-14536057D01*
X21155901Y-14112723D02*
X21155901Y-15201295D01*
X21095425Y-15322247D01*
X20974473Y-15382723D01*
X20853520Y-15382723D01*
X20430187Y-15382723D02*
X20430187Y-14536057D01*
X20430187Y-14112723D02*
X20490663Y-14173200D01*
X20430187Y-14233676D01*
X20369711Y-14173200D01*
X20430187Y-14112723D01*
X20430187Y-14233676D01*
X19281139Y-15322247D02*
X19402092Y-15382723D01*
X19643997Y-15382723D01*
X19764949Y-15322247D01*
X19825425Y-15261771D01*
X19885901Y-15140819D01*
X19885901Y-14777961D01*
X19825425Y-14657009D01*
X19764949Y-14596533D01*
X19643997Y-14536057D01*
X19402092Y-14536057D01*
X19281139Y-14596533D01*
X18797330Y-15322247D02*
X18676378Y-15382723D01*
X18434473Y-15382723D01*
X18313520Y-15322247D01*
X18253044Y-15201295D01*
X18253044Y-15140819D01*
X18313520Y-15019866D01*
X18434473Y-14959390D01*
X18615901Y-14959390D01*
X18736854Y-14898914D01*
X18797330Y-14777961D01*
X18797330Y-14717485D01*
X18736854Y-14596533D01*
X18615901Y-14536057D01*
X18434473Y-14536057D01*
X18313520Y-14596533D01*
X26598759Y-17440123D02*
X26598759Y-16593457D01*
X26598759Y-16714409D02*
X26538282Y-16653933D01*
X26417330Y-16593457D01*
X26235901Y-16593457D01*
X26114949Y-16653933D01*
X26054473Y-16774885D01*
X26054473Y-17440123D01*
X26054473Y-16774885D02*
X25993997Y-16653933D01*
X25873044Y-16593457D01*
X25691616Y-16593457D01*
X25570663Y-16653933D01*
X25510187Y-16774885D01*
X25510187Y-17440123D01*
X24905425Y-17440123D02*
X24905425Y-16593457D01*
X24905425Y-16714409D02*
X24844949Y-16653933D01*
X24723997Y-16593457D01*
X24542568Y-16593457D01*
X24421616Y-16653933D01*
X24361140Y-16774885D01*
X24361140Y-17440123D01*
X24361140Y-16774885D02*
X24300663Y-16653933D01*
X24179711Y-16593457D01*
X23998282Y-16593457D01*
X23877330Y-16653933D01*
X23816854Y-16774885D01*
X23816854Y-17440123D01*
X23272568Y-17379647D02*
X23091140Y-17440123D01*
X22788759Y-17440123D01*
X22667806Y-17379647D01*
X22607330Y-17319171D01*
X22546854Y-17198219D01*
X22546854Y-17077266D01*
X22607330Y-16956314D01*
X22667806Y-16895838D01*
X22788759Y-16835361D01*
X23030663Y-16774885D01*
X23151616Y-16714409D01*
X23212092Y-16653933D01*
X23272568Y-16532980D01*
X23272568Y-16412028D01*
X23212092Y-16291076D01*
X23151616Y-16230600D01*
X23030663Y-16170123D01*
X22728282Y-16170123D01*
X22546854Y-16230600D01*
X22183997Y-16593457D02*
X21700187Y-16593457D01*
X22002568Y-16170123D02*
X22002568Y-17258695D01*
X21942092Y-17379647D01*
X21821140Y-17440123D01*
X21700187Y-17440123D01*
X20793044Y-17379647D02*
X20913997Y-17440123D01*
X21155901Y-17440123D01*
X21276854Y-17379647D01*
X21337330Y-17258695D01*
X21337330Y-16774885D01*
X21276854Y-16653933D01*
X21155901Y-16593457D01*
X20913997Y-16593457D01*
X20793044Y-16653933D01*
X20732568Y-16774885D01*
X20732568Y-16895838D01*
X21337330Y-17016790D01*
X20188282Y-16593457D02*
X20188282Y-17863457D01*
X20188282Y-16653933D02*
X20067330Y-16593457D01*
X19825425Y-16593457D01*
X19704473Y-16653933D01*
X19643997Y-16714409D01*
X19583520Y-16835361D01*
X19583520Y-17198219D01*
X19643997Y-17319171D01*
X19704473Y-17379647D01*
X19825425Y-17440123D01*
X20067330Y-17440123D01*
X20188282Y-17379647D01*
X18192568Y-16593457D02*
X17890187Y-17440123D01*
X17587806Y-16593457D01*
X16438759Y-17440123D02*
X17164473Y-17440123D01*
X16801616Y-17440123D02*
X16801616Y-16170123D01*
X16922568Y-16351552D01*
X17043520Y-16472504D01*
X17164473Y-16532980D01*
X15894473Y-17319171D02*
X15833997Y-17379647D01*
X15894473Y-17440123D01*
X15954949Y-17379647D01*
X15894473Y-17319171D01*
X15894473Y-17440123D01*
X15047806Y-16170123D02*
X14926854Y-16170123D01*
X14805901Y-16230600D01*
X14745425Y-16291076D01*
X14684949Y-16412028D01*
X14624473Y-16653933D01*
X14624473Y-16956314D01*
X14684949Y-17198219D01*
X14745425Y-17319171D01*
X14805901Y-17379647D01*
X14926854Y-17440123D01*
X15047806Y-17440123D01*
X15168759Y-17379647D01*
X15229235Y-17319171D01*
X15289711Y-17198219D01*
X15350187Y-16956314D01*
X15350187Y-16653933D01*
X15289711Y-16412028D01*
X15229235Y-16291076D01*
X15168759Y-16230600D01*
X15047806Y-16170123D01*
X26659235Y-18348476D02*
X26598759Y-18288000D01*
X26477806Y-18227523D01*
X26175425Y-18227523D01*
X26054473Y-18288000D01*
X25993997Y-18348476D01*
X25933520Y-18469428D01*
X25933520Y-18590380D01*
X25993997Y-18771809D01*
X26719711Y-19497523D01*
X25933520Y-19497523D01*
X25147330Y-18227523D02*
X25026378Y-18227523D01*
X24905425Y-18288000D01*
X24844949Y-18348476D01*
X24784473Y-18469428D01*
X24723997Y-18711333D01*
X24723997Y-19013714D01*
X24784473Y-19255619D01*
X24844949Y-19376571D01*
X24905425Y-19437047D01*
X25026378Y-19497523D01*
X25147330Y-19497523D01*
X25268282Y-19437047D01*
X25328759Y-19376571D01*
X25389235Y-19255619D01*
X25449711Y-19013714D01*
X25449711Y-18711333D01*
X25389235Y-18469428D01*
X25328759Y-18348476D01*
X25268282Y-18288000D01*
X25147330Y-18227523D01*
X24240187Y-18348476D02*
X24179711Y-18288000D01*
X24058759Y-18227523D01*
X23756378Y-18227523D01*
X23635425Y-18288000D01*
X23574949Y-18348476D01*
X23514473Y-18469428D01*
X23514473Y-18590380D01*
X23574949Y-18771809D01*
X24300663Y-19497523D01*
X23514473Y-19497523D01*
X22728282Y-18227523D02*
X22607330Y-18227523D01*
X22486378Y-18288000D01*
X22425901Y-18348476D01*
X22365425Y-18469428D01*
X22304949Y-18711333D01*
X22304949Y-19013714D01*
X22365425Y-19255619D01*
X22425901Y-19376571D01*
X22486378Y-19437047D01*
X22607330Y-19497523D01*
X22728282Y-19497523D01*
X22849235Y-19437047D01*
X22909711Y-19376571D01*
X22970187Y-19255619D01*
X23030663Y-19013714D01*
X23030663Y-18711333D01*
X22970187Y-18469428D01*
X22909711Y-18348476D01*
X22849235Y-18288000D01*
X22728282Y-18227523D01*
X21760663Y-19013714D02*
X20793044Y-19013714D01*
X19523044Y-19497523D02*
X20248759Y-19497523D01*
X19885901Y-19497523D02*
X19885901Y-18227523D01*
X20006854Y-18408952D01*
X20127806Y-18529904D01*
X20248759Y-18590380D01*
X19039235Y-18348476D02*
X18978759Y-18288000D01*
X18857806Y-18227523D01*
X18555425Y-18227523D01*
X18434473Y-18288000D01*
X18373997Y-18348476D01*
X18313520Y-18469428D01*
X18313520Y-18590380D01*
X18373997Y-18771809D01*
X19099711Y-19497523D01*
X18313520Y-19497523D01*
X49889833Y-6286500D02*
X49762833Y-6328833D01*
X49720500Y-6371166D01*
X49678166Y-6455833D01*
X49678166Y-6582833D01*
X49720500Y-6667500D01*
X49762833Y-6709833D01*
X49847500Y-6752166D01*
X50186166Y-6752166D01*
X50186166Y-5863166D01*
X49889833Y-5863166D01*
X49805166Y-5905500D01*
X49762833Y-5947833D01*
X49720500Y-6032500D01*
X49720500Y-6117166D01*
X49762833Y-6201833D01*
X49805166Y-6244166D01*
X49889833Y-6286500D01*
X50186166Y-6286500D01*
X49339500Y-5947833D02*
X49297166Y-5905500D01*
X49212500Y-5863166D01*
X49000833Y-5863166D01*
X48916166Y-5905500D01*
X48873833Y-5947833D01*
X48831500Y-6032500D01*
X48831500Y-6117166D01*
X48873833Y-6244166D01*
X49381833Y-6752166D01*
X48831500Y-6752166D01*
X57785000Y-6498166D02*
X57361666Y-6498166D01*
X57869666Y-6752166D02*
X57573333Y-5863166D01*
X57277000Y-6752166D01*
X57023000Y-5947833D02*
X56980666Y-5905500D01*
X56896000Y-5863166D01*
X56684333Y-5863166D01*
X56599666Y-5905500D01*
X56557333Y-5947833D01*
X56515000Y-6032500D01*
X56515000Y-6117166D01*
X56557333Y-6244166D01*
X57065333Y-6752166D01*
X56515000Y-6752166D01*
X55245000Y-6498166D02*
X54821666Y-6498166D01*
X55329666Y-6752166D02*
X55033333Y-5863166D01*
X54737000Y-6752166D01*
X53975000Y-6752166D02*
X54483000Y-6752166D01*
X54229000Y-6752166D02*
X54229000Y-5863166D01*
X54313666Y-5990166D01*
X54398333Y-6074833D01*
X54483000Y-6117166D01*
X52429833Y-6286500D02*
X52302833Y-6328833D01*
X52260500Y-6371166D01*
X52218166Y-6455833D01*
X52218166Y-6582833D01*
X52260500Y-6667500D01*
X52302833Y-6709833D01*
X52387500Y-6752166D01*
X52726166Y-6752166D01*
X52726166Y-5863166D01*
X52429833Y-5863166D01*
X52345166Y-5905500D01*
X52302833Y-5947833D01*
X52260500Y-6032500D01*
X52260500Y-6117166D01*
X52302833Y-6201833D01*
X52345166Y-6244166D01*
X52429833Y-6286500D01*
X52726166Y-6286500D01*
X51371500Y-6752166D02*
X51879500Y-6752166D01*
X51625500Y-6752166D02*
X51625500Y-5863166D01*
X51710166Y-5990166D01*
X51794833Y-6074833D01*
X51879500Y-6117166D01*
X61319833Y-6286500D02*
X61192833Y-6328833D01*
X61150500Y-6371166D01*
X61108166Y-6455833D01*
X61108166Y-6582833D01*
X61150500Y-6667500D01*
X61192833Y-6709833D01*
X61277500Y-6752166D01*
X61616166Y-6752166D01*
X61616166Y-5863166D01*
X61319833Y-5863166D01*
X61235166Y-5905500D01*
X61192833Y-5947833D01*
X61150500Y-6032500D01*
X61150500Y-6117166D01*
X61192833Y-6201833D01*
X61235166Y-6244166D01*
X61319833Y-6286500D01*
X61616166Y-6286500D01*
X60769500Y-5947833D02*
X60727166Y-5905500D01*
X60642500Y-5863166D01*
X60430833Y-5863166D01*
X60346166Y-5905500D01*
X60303833Y-5947833D01*
X60261500Y-6032500D01*
X60261500Y-6117166D01*
X60303833Y-6244166D01*
X60811833Y-6752166D01*
X60261500Y-6752166D01*
X69215000Y-6498166D02*
X68791666Y-6498166D01*
X69299666Y-6752166D02*
X69003333Y-5863166D01*
X68707000Y-6752166D01*
X68453000Y-5947833D02*
X68410666Y-5905500D01*
X68326000Y-5863166D01*
X68114333Y-5863166D01*
X68029666Y-5905500D01*
X67987333Y-5947833D01*
X67945000Y-6032500D01*
X67945000Y-6117166D01*
X67987333Y-6244166D01*
X68495333Y-6752166D01*
X67945000Y-6752166D01*
X66675000Y-6498166D02*
X66251666Y-6498166D01*
X66759666Y-6752166D02*
X66463333Y-5863166D01*
X66167000Y-6752166D01*
X65405000Y-6752166D02*
X65913000Y-6752166D01*
X65659000Y-6752166D02*
X65659000Y-5863166D01*
X65743666Y-5990166D01*
X65828333Y-6074833D01*
X65913000Y-6117166D01*
X63859833Y-6286500D02*
X63732833Y-6328833D01*
X63690500Y-6371166D01*
X63648166Y-6455833D01*
X63648166Y-6582833D01*
X63690500Y-6667500D01*
X63732833Y-6709833D01*
X63817500Y-6752166D01*
X64156166Y-6752166D01*
X64156166Y-5863166D01*
X63859833Y-5863166D01*
X63775166Y-5905500D01*
X63732833Y-5947833D01*
X63690500Y-6032500D01*
X63690500Y-6117166D01*
X63732833Y-6201833D01*
X63775166Y-6244166D01*
X63859833Y-6286500D01*
X64156166Y-6286500D01*
X62801500Y-6752166D02*
X63309500Y-6752166D01*
X63055500Y-6752166D02*
X63055500Y-5863166D01*
X63140166Y-5990166D01*
X63224833Y-6074833D01*
X63309500Y-6117166D01*
X68939833Y-42227500D02*
X68812833Y-42269833D01*
X68770500Y-42312166D01*
X68728166Y-42396833D01*
X68728166Y-42523833D01*
X68770500Y-42608500D01*
X68812833Y-42650833D01*
X68897500Y-42693166D01*
X69236166Y-42693166D01*
X69236166Y-41804166D01*
X68939833Y-41804166D01*
X68855166Y-41846500D01*
X68812833Y-41888833D01*
X68770500Y-41973500D01*
X68770500Y-42058166D01*
X68812833Y-42142833D01*
X68855166Y-42185166D01*
X68939833Y-42227500D01*
X69236166Y-42227500D01*
X68389500Y-41888833D02*
X68347166Y-41846500D01*
X68262500Y-41804166D01*
X68050833Y-41804166D01*
X67966166Y-41846500D01*
X67923833Y-41888833D01*
X67881500Y-41973500D01*
X67881500Y-42058166D01*
X67923833Y-42185166D01*
X68431833Y-42693166D01*
X67881500Y-42693166D01*
X61595000Y-42439166D02*
X61171666Y-42439166D01*
X61679666Y-42693166D02*
X61383333Y-41804166D01*
X61087000Y-42693166D01*
X60833000Y-41888833D02*
X60790666Y-41846500D01*
X60706000Y-41804166D01*
X60494333Y-41804166D01*
X60409666Y-41846500D01*
X60367333Y-41888833D01*
X60325000Y-41973500D01*
X60325000Y-42058166D01*
X60367333Y-42185166D01*
X60875333Y-42693166D01*
X60325000Y-42693166D01*
X64135000Y-42439166D02*
X63711666Y-42439166D01*
X64219666Y-42693166D02*
X63923333Y-41804166D01*
X63627000Y-42693166D01*
X62865000Y-42693166D02*
X63373000Y-42693166D01*
X63119000Y-42693166D02*
X63119000Y-41804166D01*
X63203666Y-41931166D01*
X63288333Y-42015833D01*
X63373000Y-42058166D01*
X66399833Y-42227500D02*
X66272833Y-42269833D01*
X66230500Y-42312166D01*
X66188166Y-42396833D01*
X66188166Y-42523833D01*
X66230500Y-42608500D01*
X66272833Y-42650833D01*
X66357500Y-42693166D01*
X66696166Y-42693166D01*
X66696166Y-41804166D01*
X66399833Y-41804166D01*
X66315166Y-41846500D01*
X66272833Y-41888833D01*
X66230500Y-41973500D01*
X66230500Y-42058166D01*
X66272833Y-42142833D01*
X66315166Y-42185166D01*
X66399833Y-42227500D01*
X66696166Y-42227500D01*
X65341500Y-42693166D02*
X65849500Y-42693166D01*
X65595500Y-42693166D02*
X65595500Y-41804166D01*
X65680166Y-41931166D01*
X65764833Y-42015833D01*
X65849500Y-42058166D01*
X57509833Y-42227500D02*
X57382833Y-42269833D01*
X57340500Y-42312166D01*
X57298166Y-42396833D01*
X57298166Y-42523833D01*
X57340500Y-42608500D01*
X57382833Y-42650833D01*
X57467500Y-42693166D01*
X57806166Y-42693166D01*
X57806166Y-41804166D01*
X57509833Y-41804166D01*
X57425166Y-41846500D01*
X57382833Y-41888833D01*
X57340500Y-41973500D01*
X57340500Y-42058166D01*
X57382833Y-42142833D01*
X57425166Y-42185166D01*
X57509833Y-42227500D01*
X57806166Y-42227500D01*
X56959500Y-41888833D02*
X56917166Y-41846500D01*
X56832500Y-41804166D01*
X56620833Y-41804166D01*
X56536166Y-41846500D01*
X56493833Y-41888833D01*
X56451500Y-41973500D01*
X56451500Y-42058166D01*
X56493833Y-42185166D01*
X57001833Y-42693166D01*
X56451500Y-42693166D01*
X54969833Y-42227500D02*
X54842833Y-42269833D01*
X54800500Y-42312166D01*
X54758166Y-42396833D01*
X54758166Y-42523833D01*
X54800500Y-42608500D01*
X54842833Y-42650833D01*
X54927500Y-42693166D01*
X55266166Y-42693166D01*
X55266166Y-41804166D01*
X54969833Y-41804166D01*
X54885166Y-41846500D01*
X54842833Y-41888833D01*
X54800500Y-41973500D01*
X54800500Y-42058166D01*
X54842833Y-42142833D01*
X54885166Y-42185166D01*
X54969833Y-42227500D01*
X55266166Y-42227500D01*
X53911500Y-42693166D02*
X54419500Y-42693166D01*
X54165500Y-42693166D02*
X54165500Y-41804166D01*
X54250166Y-41931166D01*
X54334833Y-42015833D01*
X54419500Y-42058166D01*
X50165000Y-42439166D02*
X49741666Y-42439166D01*
X50249666Y-42693166D02*
X49953333Y-41804166D01*
X49657000Y-42693166D01*
X49403000Y-41888833D02*
X49360666Y-41846500D01*
X49276000Y-41804166D01*
X49064333Y-41804166D01*
X48979666Y-41846500D01*
X48937333Y-41888833D01*
X48895000Y-41973500D01*
X48895000Y-42058166D01*
X48937333Y-42185166D01*
X49445333Y-42693166D01*
X48895000Y-42693166D01*
X52705000Y-42439166D02*
X52281666Y-42439166D01*
X52789666Y-42693166D02*
X52493333Y-41804166D01*
X52197000Y-42693166D01*
X51435000Y-42693166D02*
X51943000Y-42693166D01*
X51689000Y-42693166D02*
X51689000Y-41804166D01*
X51773666Y-41931166D01*
X51858333Y-42015833D01*
X51943000Y-42058166D01*
D13*
%TO.C,G\u002A\u002A\u002A*%
G36*
X30079726Y-13521880D02*
G01*
X29967078Y-13526510D01*
X29867630Y-13533558D01*
X29793739Y-13542065D01*
X29538475Y-13590779D01*
X29298359Y-13659013D01*
X29073855Y-13746431D01*
X28865428Y-13852697D01*
X28673543Y-13977473D01*
X28498665Y-14120422D01*
X28341259Y-14281208D01*
X28201790Y-14459492D01*
X28080723Y-14654939D01*
X27984454Y-14853212D01*
X27903770Y-15071638D01*
X27841409Y-15305427D01*
X27797777Y-15551940D01*
X27773280Y-15808538D01*
X27768321Y-16072580D01*
X27774263Y-16223268D01*
X27779725Y-16306200D01*
X27785990Y-16388847D01*
X27792485Y-16464408D01*
X27798637Y-16526083D01*
X27802372Y-16556905D01*
X27816648Y-16660960D01*
X27756248Y-16728140D01*
X27654134Y-16859489D01*
X27575465Y-17000434D01*
X27520116Y-17151301D01*
X27487963Y-17312413D01*
X27478790Y-17456150D01*
X27479832Y-17520087D01*
X27483423Y-17580916D01*
X27488941Y-17630310D01*
X27493447Y-17653000D01*
X27548301Y-17806494D01*
X27625888Y-17952749D01*
X27723963Y-18089137D01*
X27840281Y-18213030D01*
X27972598Y-18321801D01*
X28118668Y-18412823D01*
X28161125Y-18434479D01*
X28278360Y-18491510D01*
X28299689Y-18559173D01*
X28319543Y-18612746D01*
X28349163Y-18681029D01*
X28385131Y-18757021D01*
X28424029Y-18833722D01*
X28462442Y-18904130D01*
X28492762Y-18954750D01*
X28616536Y-19126795D01*
X28762198Y-19290411D01*
X28927022Y-19443424D01*
X29108280Y-19583663D01*
X29303242Y-19708954D01*
X29509182Y-19817125D01*
X29654500Y-19879952D01*
X29832727Y-19942630D01*
X30000229Y-19985641D01*
X30155864Y-20008811D01*
X30298494Y-20011964D01*
X30417351Y-19997013D01*
X30582959Y-19954486D01*
X30756305Y-19895554D01*
X30928968Y-19823413D01*
X31092529Y-19741256D01*
X31094816Y-19739994D01*
X31304388Y-19611627D01*
X31495869Y-19468580D01*
X31668260Y-19311966D01*
X31820561Y-19142897D01*
X31951773Y-18962487D01*
X32060896Y-18771849D01*
X32146931Y-18572096D01*
X32149082Y-18566147D01*
X32167017Y-18517991D01*
X32181713Y-18487511D01*
X32198286Y-18468398D01*
X32221856Y-18454340D01*
X32249475Y-18442376D01*
X32339278Y-18397204D01*
X32436477Y-18334635D01*
X32535537Y-18259130D01*
X32630921Y-18175151D01*
X32717093Y-18087163D01*
X32772975Y-18020408D01*
X32861292Y-17888076D01*
X32924562Y-17752533D01*
X32963029Y-17612942D01*
X32976937Y-17468464D01*
X32969711Y-17341850D01*
X32939105Y-17175232D01*
X32890457Y-17023106D01*
X32824464Y-16887122D01*
X32741824Y-16768929D01*
X32713956Y-16737259D01*
X32639740Y-16657306D01*
X32657805Y-16536302D01*
X31722516Y-16536302D01*
X31708345Y-16722193D01*
X31671434Y-16902240D01*
X31613052Y-17074747D01*
X31534469Y-17238022D01*
X31436955Y-17390371D01*
X31321781Y-17530101D01*
X31190215Y-17655516D01*
X31043529Y-17764925D01*
X30882992Y-17856632D01*
X30709873Y-17928945D01*
X30525444Y-17980169D01*
X30480995Y-17988892D01*
X30393705Y-18000063D01*
X30291208Y-18005870D01*
X30183124Y-18006297D01*
X30079076Y-18001329D01*
X29988686Y-17990952D01*
X29981018Y-17989660D01*
X29790729Y-17944111D01*
X29611279Y-17876500D01*
X29444140Y-17788251D01*
X29290787Y-17680789D01*
X29152693Y-17555538D01*
X29031330Y-17413922D01*
X28928172Y-17257366D01*
X28844692Y-17087293D01*
X28782363Y-16905129D01*
X28759281Y-16808450D01*
X28742394Y-16703161D01*
X28732925Y-16592277D01*
X28730715Y-16481291D01*
X28735608Y-16375695D01*
X28747445Y-16280981D01*
X28766070Y-16202640D01*
X28777548Y-16172072D01*
X28816895Y-16112263D01*
X28872207Y-16068254D01*
X28938289Y-16041793D01*
X29009946Y-16034628D01*
X29081985Y-16048506D01*
X29109690Y-16060315D01*
X29154415Y-16093070D01*
X29196112Y-16140997D01*
X29226990Y-16194317D01*
X29235489Y-16218227D01*
X29242235Y-16259287D01*
X29241586Y-16310067D01*
X29234286Y-16372680D01*
X29224022Y-16526027D01*
X29237374Y-16675189D01*
X29272660Y-16818228D01*
X29328196Y-16953209D01*
X29402298Y-17078195D01*
X29493284Y-17191251D01*
X29599470Y-17290441D01*
X29719172Y-17373828D01*
X29850708Y-17439476D01*
X29992393Y-17485449D01*
X30142545Y-17509811D01*
X30226001Y-17513300D01*
X30381008Y-17501464D01*
X30527403Y-17467271D01*
X30663783Y-17412689D01*
X30788744Y-17339689D01*
X30900882Y-17250238D01*
X30998795Y-17146307D01*
X31081078Y-17029865D01*
X31146329Y-16902881D01*
X31193143Y-16767324D01*
X31220118Y-16625164D01*
X31225850Y-16478371D01*
X31208936Y-16328913D01*
X31170971Y-16187283D01*
X31107547Y-16041542D01*
X31024407Y-15910812D01*
X30923174Y-15796326D01*
X30805468Y-15699316D01*
X30672911Y-15621014D01*
X30527125Y-15562654D01*
X30369732Y-15525465D01*
X30286325Y-15515120D01*
X30226000Y-15509820D01*
X30226000Y-15756968D01*
X30225468Y-15832720D01*
X30223984Y-15898649D01*
X30221717Y-15950989D01*
X30218839Y-15985973D01*
X30215518Y-15999836D01*
X30215044Y-15999883D01*
X30200861Y-15990803D01*
X30169313Y-15968404D01*
X30122793Y-15934493D01*
X30063696Y-15890876D01*
X29994415Y-15839362D01*
X29917342Y-15781757D01*
X29834871Y-15719869D01*
X29749395Y-15655506D01*
X29663309Y-15590474D01*
X29579004Y-15526580D01*
X29498875Y-15465633D01*
X29425314Y-15409440D01*
X29360716Y-15359807D01*
X29307473Y-15318542D01*
X29267978Y-15287452D01*
X29244626Y-15268345D01*
X29239149Y-15262941D01*
X29249526Y-15253792D01*
X29278282Y-15230951D01*
X29323442Y-15195924D01*
X29383035Y-15150217D01*
X29455088Y-15095338D01*
X29537627Y-15032794D01*
X29628681Y-14964090D01*
X29726277Y-14890735D01*
X29733875Y-14885035D01*
X30226000Y-14515938D01*
X30226000Y-15008225D01*
X30265688Y-15016162D01*
X30306124Y-15021552D01*
X30351602Y-15024074D01*
X30355768Y-15024100D01*
X30390472Y-15026670D01*
X30441453Y-15033562D01*
X30500205Y-15043541D01*
X30530077Y-15049352D01*
X30715096Y-15099743D01*
X30890156Y-15172791D01*
X31053466Y-15267104D01*
X31203234Y-15381289D01*
X31337670Y-15513951D01*
X31454982Y-15663699D01*
X31553379Y-15829138D01*
X31566551Y-15855537D01*
X31631278Y-16004736D01*
X31677083Y-16149921D01*
X31706712Y-16300322D01*
X31712675Y-16346260D01*
X31722516Y-16536302D01*
X32657805Y-16536302D01*
X32657846Y-16536028D01*
X32684429Y-16304369D01*
X32696344Y-16068174D01*
X32693826Y-15832482D01*
X32677111Y-15602332D01*
X32646435Y-15382761D01*
X32602034Y-15178808D01*
X32592773Y-15144750D01*
X32516485Y-14917078D01*
X32420075Y-14704585D01*
X32304138Y-14507757D01*
X32169269Y-14327080D01*
X32016065Y-14163038D01*
X31845122Y-14016119D01*
X31657035Y-13886806D01*
X31452400Y-13775587D01*
X31231813Y-13682946D01*
X30995870Y-13609370D01*
X30745167Y-13555344D01*
X30619700Y-13536491D01*
X30535881Y-13528391D01*
X30433652Y-13522923D01*
X30319335Y-13520044D01*
X30199252Y-13519710D01*
X30079726Y-13521880D01*
G37*
X30079726Y-13521880D02*
X29967078Y-13526510D01*
X29867630Y-13533558D01*
X29793739Y-13542065D01*
X29538475Y-13590779D01*
X29298359Y-13659013D01*
X29073855Y-13746431D01*
X28865428Y-13852697D01*
X28673543Y-13977473D01*
X28498665Y-14120422D01*
X28341259Y-14281208D01*
X28201790Y-14459492D01*
X28080723Y-14654939D01*
X27984454Y-14853212D01*
X27903770Y-15071638D01*
X27841409Y-15305427D01*
X27797777Y-15551940D01*
X27773280Y-15808538D01*
X27768321Y-16072580D01*
X27774263Y-16223268D01*
X27779725Y-16306200D01*
X27785990Y-16388847D01*
X27792485Y-16464408D01*
X27798637Y-16526083D01*
X27802372Y-16556905D01*
X27816648Y-16660960D01*
X27756248Y-16728140D01*
X27654134Y-16859489D01*
X27575465Y-17000434D01*
X27520116Y-17151301D01*
X27487963Y-17312413D01*
X27478790Y-17456150D01*
X27479832Y-17520087D01*
X27483423Y-17580916D01*
X27488941Y-17630310D01*
X27493447Y-17653000D01*
X27548301Y-17806494D01*
X27625888Y-17952749D01*
X27723963Y-18089137D01*
X27840281Y-18213030D01*
X27972598Y-18321801D01*
X28118668Y-18412823D01*
X28161125Y-18434479D01*
X28278360Y-18491510D01*
X28299689Y-18559173D01*
X28319543Y-18612746D01*
X28349163Y-18681029D01*
X28385131Y-18757021D01*
X28424029Y-18833722D01*
X28462442Y-18904130D01*
X28492762Y-18954750D01*
X28616536Y-19126795D01*
X28762198Y-19290411D01*
X28927022Y-19443424D01*
X29108280Y-19583663D01*
X29303242Y-19708954D01*
X29509182Y-19817125D01*
X29654500Y-19879952D01*
X29832727Y-19942630D01*
X30000229Y-19985641D01*
X30155864Y-20008811D01*
X30298494Y-20011964D01*
X30417351Y-19997013D01*
X30582959Y-19954486D01*
X30756305Y-19895554D01*
X30928968Y-19823413D01*
X31092529Y-19741256D01*
X31094816Y-19739994D01*
X31304388Y-19611627D01*
X31495869Y-19468580D01*
X31668260Y-19311966D01*
X31820561Y-19142897D01*
X31951773Y-18962487D01*
X32060896Y-18771849D01*
X32146931Y-18572096D01*
X32149082Y-18566147D01*
X32167017Y-18517991D01*
X32181713Y-18487511D01*
X32198286Y-18468398D01*
X32221856Y-18454340D01*
X32249475Y-18442376D01*
X32339278Y-18397204D01*
X32436477Y-18334635D01*
X32535537Y-18259130D01*
X32630921Y-18175151D01*
X32717093Y-18087163D01*
X32772975Y-18020408D01*
X32861292Y-17888076D01*
X32924562Y-17752533D01*
X32963029Y-17612942D01*
X32976937Y-17468464D01*
X32969711Y-17341850D01*
X32939105Y-17175232D01*
X32890457Y-17023106D01*
X32824464Y-16887122D01*
X32741824Y-16768929D01*
X32713956Y-16737259D01*
X32639740Y-16657306D01*
X32657805Y-16536302D01*
X31722516Y-16536302D01*
X31708345Y-16722193D01*
X31671434Y-16902240D01*
X31613052Y-17074747D01*
X31534469Y-17238022D01*
X31436955Y-17390371D01*
X31321781Y-17530101D01*
X31190215Y-17655516D01*
X31043529Y-17764925D01*
X30882992Y-17856632D01*
X30709873Y-17928945D01*
X30525444Y-17980169D01*
X30480995Y-17988892D01*
X30393705Y-18000063D01*
X30291208Y-18005870D01*
X30183124Y-18006297D01*
X30079076Y-18001329D01*
X29988686Y-17990952D01*
X29981018Y-17989660D01*
X29790729Y-17944111D01*
X29611279Y-17876500D01*
X29444140Y-17788251D01*
X29290787Y-17680789D01*
X29152693Y-17555538D01*
X29031330Y-17413922D01*
X28928172Y-17257366D01*
X28844692Y-17087293D01*
X28782363Y-16905129D01*
X28759281Y-16808450D01*
X28742394Y-16703161D01*
X28732925Y-16592277D01*
X28730715Y-16481291D01*
X28735608Y-16375695D01*
X28747445Y-16280981D01*
X28766070Y-16202640D01*
X28777548Y-16172072D01*
X28816895Y-16112263D01*
X28872207Y-16068254D01*
X28938289Y-16041793D01*
X29009946Y-16034628D01*
X29081985Y-16048506D01*
X29109690Y-16060315D01*
X29154415Y-16093070D01*
X29196112Y-16140997D01*
X29226990Y-16194317D01*
X29235489Y-16218227D01*
X29242235Y-16259287D01*
X29241586Y-16310067D01*
X29234286Y-16372680D01*
X29224022Y-16526027D01*
X29237374Y-16675189D01*
X29272660Y-16818228D01*
X29328196Y-16953209D01*
X29402298Y-17078195D01*
X29493284Y-17191251D01*
X29599470Y-17290441D01*
X29719172Y-17373828D01*
X29850708Y-17439476D01*
X29992393Y-17485449D01*
X30142545Y-17509811D01*
X30226001Y-17513300D01*
X30381008Y-17501464D01*
X30527403Y-17467271D01*
X30663783Y-17412689D01*
X30788744Y-17339689D01*
X30900882Y-17250238D01*
X30998795Y-17146307D01*
X31081078Y-17029865D01*
X31146329Y-16902881D01*
X31193143Y-16767324D01*
X31220118Y-16625164D01*
X31225850Y-16478371D01*
X31208936Y-16328913D01*
X31170971Y-16187283D01*
X31107547Y-16041542D01*
X31024407Y-15910812D01*
X30923174Y-15796326D01*
X30805468Y-15699316D01*
X30672911Y-15621014D01*
X30527125Y-15562654D01*
X30369732Y-15525465D01*
X30286325Y-15515120D01*
X30226000Y-15509820D01*
X30226000Y-15756968D01*
X30225468Y-15832720D01*
X30223984Y-15898649D01*
X30221717Y-15950989D01*
X30218839Y-15985973D01*
X30215518Y-15999836D01*
X30215044Y-15999883D01*
X30200861Y-15990803D01*
X30169313Y-15968404D01*
X30122793Y-15934493D01*
X30063696Y-15890876D01*
X29994415Y-15839362D01*
X29917342Y-15781757D01*
X29834871Y-15719869D01*
X29749395Y-15655506D01*
X29663309Y-15590474D01*
X29579004Y-15526580D01*
X29498875Y-15465633D01*
X29425314Y-15409440D01*
X29360716Y-15359807D01*
X29307473Y-15318542D01*
X29267978Y-15287452D01*
X29244626Y-15268345D01*
X29239149Y-15262941D01*
X29249526Y-15253792D01*
X29278282Y-15230951D01*
X29323442Y-15195924D01*
X29383035Y-15150217D01*
X29455088Y-15095338D01*
X29537627Y-15032794D01*
X29628681Y-14964090D01*
X29726277Y-14890735D01*
X29733875Y-14885035D01*
X30226000Y-14515938D01*
X30226000Y-15008225D01*
X30265688Y-15016162D01*
X30306124Y-15021552D01*
X30351602Y-15024074D01*
X30355768Y-15024100D01*
X30390472Y-15026670D01*
X30441453Y-15033562D01*
X30500205Y-15043541D01*
X30530077Y-15049352D01*
X30715096Y-15099743D01*
X30890156Y-15172791D01*
X31053466Y-15267104D01*
X31203234Y-15381289D01*
X31337670Y-15513951D01*
X31454982Y-15663699D01*
X31553379Y-15829138D01*
X31566551Y-15855537D01*
X31631278Y-16004736D01*
X31677083Y-16149921D01*
X31706712Y-16300322D01*
X31712675Y-16346260D01*
X31722516Y-16536302D01*
X32657805Y-16536302D01*
X32657846Y-16536028D01*
X32684429Y-16304369D01*
X32696344Y-16068174D01*
X32693826Y-15832482D01*
X32677111Y-15602332D01*
X32646435Y-15382761D01*
X32602034Y-15178808D01*
X32592773Y-15144750D01*
X32516485Y-14917078D01*
X32420075Y-14704585D01*
X32304138Y-14507757D01*
X32169269Y-14327080D01*
X32016065Y-14163038D01*
X31845122Y-14016119D01*
X31657035Y-13886806D01*
X31452400Y-13775587D01*
X31231813Y-13682946D01*
X30995870Y-13609370D01*
X30745167Y-13555344D01*
X30619700Y-13536491D01*
X30535881Y-13528391D01*
X30433652Y-13522923D01*
X30319335Y-13520044D01*
X30199252Y-13519710D01*
X30079726Y-13521880D01*
D11*
%TO.C,C7*%
X54400000Y-15875000D02*
X53260000Y-15875000D01*
X41880000Y-15875000D02*
X43020000Y-15875000D01*
X46020000Y-13505000D02*
X53260000Y-13505000D01*
X45270000Y-14255000D02*
X46020000Y-13505000D01*
X44520000Y-13505000D02*
X45270000Y-14255000D01*
X43020000Y-13505000D02*
X44520000Y-13505000D01*
X46020000Y-18245000D02*
X53260000Y-18245000D01*
X45270000Y-17495000D02*
X46020000Y-18245000D01*
X44520000Y-18245000D02*
X45270000Y-17495000D01*
X43020000Y-18245000D02*
X44520000Y-18245000D01*
X53260000Y-18245000D02*
X53260000Y-13505000D01*
X43020000Y-18245000D02*
X43020000Y-13505000D01*
X42020000Y-18825000D02*
X42020000Y-17325000D01*
X41270000Y-18075000D02*
X42770000Y-18075000D01*
%TO.C,C6*%
X75990000Y-15875000D02*
X74850000Y-15875000D01*
X63470000Y-15875000D02*
X64610000Y-15875000D01*
X67610000Y-13505000D02*
X74850000Y-13505000D01*
X66860000Y-14255000D02*
X67610000Y-13505000D01*
X66110000Y-13505000D02*
X66860000Y-14255000D01*
X64610000Y-13505000D02*
X66110000Y-13505000D01*
X67610000Y-18245000D02*
X74850000Y-18245000D01*
X66860000Y-17495000D02*
X67610000Y-18245000D01*
X66110000Y-18245000D02*
X66860000Y-17495000D01*
X64610000Y-18245000D02*
X66110000Y-18245000D01*
X74850000Y-18245000D02*
X74850000Y-13505000D01*
X64610000Y-18245000D02*
X64610000Y-13505000D01*
X63610000Y-18825000D02*
X63610000Y-17325000D01*
X62860000Y-18075000D02*
X64360000Y-18075000D01*
%TO.C,C5*%
X63710000Y-32385000D02*
X64850000Y-32385000D01*
X76230000Y-32385000D02*
X75090000Y-32385000D01*
X72090000Y-34755000D02*
X64850000Y-34755000D01*
X72840000Y-34005000D02*
X72090000Y-34755000D01*
X73590000Y-34755000D02*
X72840000Y-34005000D01*
X75090000Y-34755000D02*
X73590000Y-34755000D01*
X72090000Y-30015000D02*
X64850000Y-30015000D01*
X72840000Y-30765000D02*
X72090000Y-30015000D01*
X73590000Y-30015000D02*
X72840000Y-30765000D01*
X75090000Y-30015000D02*
X73590000Y-30015000D01*
X64850000Y-30015000D02*
X64850000Y-34755000D01*
X75090000Y-30015000D02*
X75090000Y-34755000D01*
X76090000Y-29435000D02*
X76090000Y-30935000D01*
X76840000Y-30185000D02*
X75340000Y-30185000D01*
%TO.C,C4*%
X42120000Y-32385000D02*
X43260000Y-32385000D01*
X54640000Y-32385000D02*
X53500000Y-32385000D01*
X50500000Y-34755000D02*
X43260000Y-34755000D01*
X51250000Y-34005000D02*
X50500000Y-34755000D01*
X52000000Y-34755000D02*
X51250000Y-34005000D01*
X53500000Y-34755000D02*
X52000000Y-34755000D01*
X50500000Y-30015000D02*
X43260000Y-30015000D01*
X51250000Y-30765000D02*
X50500000Y-30015000D01*
X52000000Y-30015000D02*
X51250000Y-30765000D01*
X53500000Y-30015000D02*
X52000000Y-30015000D01*
X43260000Y-30015000D02*
X43260000Y-34755000D01*
X53500000Y-30015000D02*
X53500000Y-34755000D01*
X54500000Y-29435000D02*
X54500000Y-30935000D01*
X55250000Y-30185000D02*
X53750000Y-30185000D01*
%TO.C,JP1*%
X34837600Y-33798000D02*
X33437600Y-33798000D01*
X32737600Y-34498000D02*
X32737600Y-35098000D01*
X33437600Y-35798000D02*
X34837600Y-35798000D01*
X35537600Y-35098000D02*
X35537600Y-34498000D01*
X35537600Y-34498000D02*
G75*
G03*
X34837600Y-33798000I-700000J0D01*
G01*
X34837600Y-35798000D02*
G75*
G03*
X35537600Y-35098000I0J700000D01*
G01*
X32737600Y-35098000D02*
G75*
G03*
X33437600Y-35798000I700000J0D01*
G01*
X33437600Y-33798000D02*
G75*
G03*
X32737600Y-34498000I0J-700000D01*
G01*
%TO.C,JP2*%
X9788400Y-12118800D02*
X9788400Y-9318800D01*
X9088400Y-8668800D02*
X8488400Y-8668800D01*
X7788400Y-9318800D02*
X7788400Y-12118800D01*
X8488400Y-12768800D02*
X9088400Y-12768800D01*
X7588400Y-11918800D02*
X7288400Y-12218800D01*
X7288400Y-12218800D02*
X7288400Y-11618800D01*
X7588400Y-11918800D02*
X7288400Y-11618800D01*
X9088400Y-12768800D02*
G75*
G03*
X9788400Y-12068800I0J700000D01*
G01*
X7788400Y-12068800D02*
G75*
G03*
X8488400Y-12768800I700000J0D01*
G01*
X8488400Y-8668800D02*
G75*
G03*
X7788400Y-9368800I0J-700000D01*
G01*
X9788400Y-9368800D02*
G75*
G03*
X9088400Y-8668800I-700000J0D01*
G01*
%TO.C,C7*%
D14*
X48306666Y-19602142D02*
X48354285Y-19649761D01*
X48497142Y-19697380D01*
X48592380Y-19697380D01*
X48735238Y-19649761D01*
X48830476Y-19554523D01*
X48878095Y-19459285D01*
X48925714Y-19268809D01*
X48925714Y-19125952D01*
X48878095Y-18935476D01*
X48830476Y-18840238D01*
X48735238Y-18745000D01*
X48592380Y-18697380D01*
X48497142Y-18697380D01*
X48354285Y-18745000D01*
X48306666Y-18792619D01*
X47973333Y-18697380D02*
X47306666Y-18697380D01*
X47735238Y-19697380D01*
%TO.C,C6*%
X69896666Y-19602142D02*
X69944285Y-19649761D01*
X70087142Y-19697380D01*
X70182380Y-19697380D01*
X70325238Y-19649761D01*
X70420476Y-19554523D01*
X70468095Y-19459285D01*
X70515714Y-19268809D01*
X70515714Y-19125952D01*
X70468095Y-18935476D01*
X70420476Y-18840238D01*
X70325238Y-18745000D01*
X70182380Y-18697380D01*
X70087142Y-18697380D01*
X69944285Y-18745000D01*
X69896666Y-18792619D01*
X69039523Y-18697380D02*
X69230000Y-18697380D01*
X69325238Y-18745000D01*
X69372857Y-18792619D01*
X69468095Y-18935476D01*
X69515714Y-19125952D01*
X69515714Y-19506904D01*
X69468095Y-19602142D01*
X69420476Y-19649761D01*
X69325238Y-19697380D01*
X69134761Y-19697380D01*
X69039523Y-19649761D01*
X68991904Y-19602142D01*
X68944285Y-19506904D01*
X68944285Y-19268809D01*
X68991904Y-19173571D01*
X69039523Y-19125952D01*
X69134761Y-19078333D01*
X69325238Y-19078333D01*
X69420476Y-19125952D01*
X69468095Y-19173571D01*
X69515714Y-19268809D01*
%TO.C,C5*%
X70136666Y-29372142D02*
X70184285Y-29419761D01*
X70327142Y-29467380D01*
X70422380Y-29467380D01*
X70565238Y-29419761D01*
X70660476Y-29324523D01*
X70708095Y-29229285D01*
X70755714Y-29038809D01*
X70755714Y-28895952D01*
X70708095Y-28705476D01*
X70660476Y-28610238D01*
X70565238Y-28515000D01*
X70422380Y-28467380D01*
X70327142Y-28467380D01*
X70184285Y-28515000D01*
X70136666Y-28562619D01*
X69231904Y-28467380D02*
X69708095Y-28467380D01*
X69755714Y-28943571D01*
X69708095Y-28895952D01*
X69612857Y-28848333D01*
X69374761Y-28848333D01*
X69279523Y-28895952D01*
X69231904Y-28943571D01*
X69184285Y-29038809D01*
X69184285Y-29276904D01*
X69231904Y-29372142D01*
X69279523Y-29419761D01*
X69374761Y-29467380D01*
X69612857Y-29467380D01*
X69708095Y-29419761D01*
X69755714Y-29372142D01*
%TO.C,C4*%
X48546666Y-29372142D02*
X48594285Y-29419761D01*
X48737142Y-29467380D01*
X48832380Y-29467380D01*
X48975238Y-29419761D01*
X49070476Y-29324523D01*
X49118095Y-29229285D01*
X49165714Y-29038809D01*
X49165714Y-28895952D01*
X49118095Y-28705476D01*
X49070476Y-28610238D01*
X48975238Y-28515000D01*
X48832380Y-28467380D01*
X48737142Y-28467380D01*
X48594285Y-28515000D01*
X48546666Y-28562619D01*
X47689523Y-28800714D02*
X47689523Y-29467380D01*
X47927619Y-28419761D02*
X48165714Y-29134047D01*
X47546666Y-29134047D01*
%TO.C,JP1*%
X36282380Y-34091666D02*
X36996666Y-34091666D01*
X37139523Y-34044047D01*
X37234761Y-33948809D01*
X37282380Y-33805952D01*
X37282380Y-33710714D01*
X37282380Y-34567857D02*
X36282380Y-34567857D01*
X36282380Y-34948809D01*
X36330000Y-35044047D01*
X36377619Y-35091666D01*
X36472857Y-35139285D01*
X36615714Y-35139285D01*
X36710952Y-35091666D01*
X36758571Y-35044047D01*
X36806190Y-34948809D01*
X36806190Y-34567857D01*
X37282380Y-36091666D02*
X37282380Y-35520238D01*
X37282380Y-35805952D02*
X36282380Y-35805952D01*
X36425238Y-35710714D01*
X36520476Y-35615476D01*
X36568095Y-35520238D01*
%TO.C,JP2*%
D12*
X6117166Y-10181166D02*
X6752166Y-10181166D01*
X6879166Y-10138833D01*
X6963833Y-10054166D01*
X7006166Y-9927166D01*
X7006166Y-9842500D01*
X7006166Y-10604500D02*
X6117166Y-10604500D01*
X6117166Y-10943166D01*
X6159500Y-11027833D01*
X6201833Y-11070166D01*
X6286500Y-11112500D01*
X6413500Y-11112500D01*
X6498166Y-11070166D01*
X6540500Y-11027833D01*
X6582833Y-10943166D01*
X6582833Y-10604500D01*
X6201833Y-11451166D02*
X6159500Y-11493500D01*
X6117166Y-11578166D01*
X6117166Y-11789833D01*
X6159500Y-11874500D01*
X6201833Y-11916833D01*
X6286500Y-11959166D01*
X6371166Y-11959166D01*
X6498166Y-11916833D01*
X7006166Y-11408833D01*
X7006166Y-11959166D01*
%TD*%
M02*
