M48
; DRILL file {KiCad (5.1.8)-1} date 12/25/20 17:54:03
; FORMAT={-:-/ absolute / metric / decimal}
; #@! TF.CreationDate,2020-12-25T17:54:03+01:00
; #@! TF.GenerationSoftware,Kicad,Pcbnew,(5.1.8)-1
; #@! TF.FileFunction,Plated,1,2,PTH
FMAT,2
METRIC
T1C0.400
T2C0.650
T3C0.800
T4C1.000
T5C1.100
T6C3.200
T7C3.800
%
G90
G05
T1
X5.016Y-11.493
X5.029Y-13.868
X5.233Y-21.552
X6.452Y-22.606
X7.428Y-9.887
X7.468Y-14.6
X7.719Y-30.226
X9.464Y-25.276
X9.55Y-24.282
X10.008Y-15.646
X10.16Y-10.719
X11.786Y-30.226
X12.09Y-24.282
X12.09Y-25.298
X13.259Y-21.59
X13.259Y-26.162
X14.376Y-7.366
X15.697Y-13.208
X16.154Y-4.064
X17.145Y-11.786
X17.221Y-23.622
X17.221Y-31.039
X18.186Y-23.622
X18.186Y-31.038
X19.139Y-23.624
X19.152Y-31.039
X20.091Y-23.622
X20.117Y-31.038
X21.844Y-25.451
X22.911Y-21.844
X31.344Y-36.068
X31.363Y-35.103
X31.915Y-26.803
X32.309Y-34.798
X32.868Y-26.822
X33.643Y-29.792
X34.29Y-22.758
X34.595Y-29.769
X35.477Y-23.774
X36.627Y-36.525
X37.084Y-12.446
X37.985Y-31.23
X38.913Y-30.48
X54.67Y-19.653
X57.102Y-19.606
X60.96Y-28.651
X63.5Y-28.607
T2
X17.272Y-1.676
X17.272Y-2.946
X18.542Y-1.676
X18.542Y-2.946
X19.812Y-1.676
X19.812Y-2.946
X21.082Y-1.676
X21.082Y-2.946
X22.352Y-1.676
X22.352Y-2.946
T3
X60.96Y-9.525
X60.96Y-22.225
X63.5Y-9.525
X63.5Y-22.225
X66.04Y-9.525
X66.04Y-22.225
X68.58Y-9.525
X68.58Y-22.225
X71.12Y-9.525
X71.12Y-22.225
X73.66Y-9.525
X73.66Y-22.225
X76.2Y-9.525
X76.2Y-22.225
X78.74Y-9.525
X78.74Y-22.225
X39.37Y-26.035
X39.37Y-38.735
X41.91Y-26.035
X41.91Y-38.735
X44.45Y-26.035
X44.45Y-38.735
X46.99Y-26.035
X46.99Y-38.735
X49.53Y-26.035
X49.53Y-38.735
X52.07Y-26.035
X52.07Y-38.735
X54.61Y-26.035
X54.61Y-38.735
X57.15Y-26.035
X57.15Y-38.735
X39.37Y-9.525
X39.37Y-22.225
X41.91Y-9.525
X41.91Y-22.225
X44.45Y-9.525
X44.45Y-22.225
X46.99Y-9.525
X46.99Y-22.225
X49.53Y-9.525
X49.53Y-22.225
X52.07Y-9.525
X52.07Y-22.225
X54.61Y-9.525
X54.61Y-22.225
X57.15Y-9.525
X57.15Y-22.225
X60.96Y-26.035
X60.96Y-38.735
X63.5Y-26.035
X63.5Y-38.735
X66.04Y-26.035
X66.04Y-38.735
X68.58Y-26.035
X68.58Y-38.735
X71.12Y-26.035
X71.12Y-38.735
X73.66Y-26.035
X73.66Y-38.735
X76.2Y-26.035
X76.2Y-38.735
X78.74Y-26.035
X78.74Y-38.735
T4
X40.64Y-15.875
X55.64Y-15.875
X27.305Y-43.18
X27.305Y-45.72
X29.845Y-43.18
X29.845Y-45.72
X32.385Y-43.18
X32.385Y-45.72
X34.925Y-43.18
X34.925Y-45.72
X37.465Y-43.18
X37.465Y-45.72
X40.005Y-43.18
X40.005Y-45.72
X42.545Y-43.18
X42.545Y-45.72
X45.085Y-43.18
X45.085Y-45.72
X40.88Y-32.385
X55.88Y-32.385
X62.47Y-32.385
X77.47Y-32.385
X62.23Y-15.875
X77.23Y-15.875
X27.305Y-38.735
X29.845Y-38.735
X32.385Y-38.735
X34.925Y-38.735
T5
X49.53Y-44.45
X52.07Y-44.45
X54.61Y-44.45
X57.15Y-44.45
X60.96Y-3.81
X63.5Y-3.81
X66.04Y-3.81
X68.58Y-3.81
X9.55Y-3.708
X12.09Y-3.708
X27.94Y-3.81
X30.48Y-3.81
X60.96Y-44.45
X63.5Y-44.45
X66.04Y-44.45
X68.58Y-44.45
X49.53Y-3.81
X52.07Y-3.81
X54.61Y-3.81
X57.15Y-3.81
T6
X77.5Y-3.5
X3.5Y-3.5
X3.302Y-45.5
X77.47Y-45.5
T7
X9.754Y-45.5
T2
G00X2.65Y-7.93
M15
G01X1.35Y-7.93
M16
G05
G00X2.65Y-16.57
M15
G01X1.35Y-16.57
M16
G05
G00X6.325Y-7.93
M15
G01X5.325Y-7.93
M16
G05
G00X6.325Y-16.57
M15
G01X5.325Y-16.57
M16
G05
T0
M30
