%TF.GenerationSoftware,KiCad,Pcbnew,(5.1.8)-1*%
%TF.CreationDate,2020-12-25T17:53:49+01:00*%
%TF.ProjectId,mmStep,6d6d5374-6570-42e6-9b69-6361645f7063,rev?*%
%TF.SameCoordinates,Original*%
%TF.FileFunction,Soldermask,Bot*%
%TF.FilePolarity,Negative*%
%FSLAX46Y46*%
G04 Gerber Fmt 4.6, Leading zero omitted, Abs format (unit mm)*
G04 Created by KiCad (PCBNEW (5.1.8)-1) date 2020-12-25 17:53:49*
%MOMM*%
%LPD*%
G01*
G04 APERTURE LIST*
%ADD10O,1.600000X1.600000*%
%ADD11R,1.600000X1.600000*%
%ADD12C,5.600000*%
%ADD13O,2.000000X2.000000*%
%ADD14R,2.000000X2.000000*%
%ADD15C,6.200000*%
%ADD16C,1.600000*%
%ADD17C,1.100000*%
%ADD18C,0.100000*%
%ADD19O,1.700000X1.700000*%
%ADD20R,1.700000X1.700000*%
%ADD21C,2.200000*%
%ADD22R,2.200000X2.200000*%
%ADD23O,2.400000X1.200000*%
%ADD24O,2.316000X1.158000*%
%ADD25C,0.630000*%
%ADD26C,0.600000*%
%ADD27O,1.000000X1.000000*%
%ADD28R,1.000000X1.000000*%
%ADD29R,1.500000X1.000000*%
G04 APERTURE END LIST*
D10*
%TO.C,A4*%
X57150000Y-22225000D03*
X39370000Y-9525000D03*
X54610000Y-22225000D03*
X41910000Y-9525000D03*
X52070000Y-22225000D03*
X44450000Y-9525000D03*
X49530000Y-22225000D03*
X46990000Y-9525000D03*
X46990000Y-22225000D03*
X49530000Y-9525000D03*
X44450000Y-22225000D03*
X52070000Y-9525000D03*
X41910000Y-22225000D03*
X54610000Y-9525000D03*
X39370000Y-22225000D03*
D11*
X57150000Y-9525000D03*
%TD*%
D10*
%TO.C,A3*%
X78740000Y-22225000D03*
X60960000Y-9525000D03*
X76200000Y-22225000D03*
X63500000Y-9525000D03*
X73660000Y-22225000D03*
X66040000Y-9525000D03*
X71120000Y-22225000D03*
X68580000Y-9525000D03*
X68580000Y-22225000D03*
X71120000Y-9525000D03*
X66040000Y-22225000D03*
X73660000Y-9525000D03*
X63500000Y-22225000D03*
X76200000Y-9525000D03*
X60960000Y-22225000D03*
D11*
X78740000Y-9525000D03*
%TD*%
D10*
%TO.C,A1*%
X39370000Y-26035000D03*
X57150000Y-38735000D03*
X41910000Y-26035000D03*
X54610000Y-38735000D03*
X44450000Y-26035000D03*
X52070000Y-38735000D03*
X46990000Y-26035000D03*
X49530000Y-38735000D03*
X49530000Y-26035000D03*
X46990000Y-38735000D03*
X52070000Y-26035000D03*
X44450000Y-38735000D03*
X54610000Y-26035000D03*
X41910000Y-38735000D03*
X57150000Y-26035000D03*
D11*
X39370000Y-38735000D03*
%TD*%
D10*
%TO.C,A2*%
X60960000Y-26035000D03*
X78740000Y-38735000D03*
X63500000Y-26035000D03*
X76200000Y-38735000D03*
X66040000Y-26035000D03*
X73660000Y-38735000D03*
X68580000Y-26035000D03*
X71120000Y-38735000D03*
X71120000Y-26035000D03*
X68580000Y-38735000D03*
X73660000Y-26035000D03*
X66040000Y-38735000D03*
X76200000Y-26035000D03*
X63500000Y-38735000D03*
X78740000Y-26035000D03*
D11*
X60960000Y-38735000D03*
%TD*%
D12*
%TO.C,REF\u002A\u002A*%
X77470000Y-45500000D03*
%TD*%
D13*
%TO.C,C7*%
X55640000Y-15875000D03*
D14*
X40640000Y-15875000D03*
%TD*%
D13*
%TO.C,C6*%
X77230000Y-15875000D03*
D14*
X62230000Y-15875000D03*
%TD*%
D13*
%TO.C,C5*%
X62470000Y-32385000D03*
D14*
X77470000Y-32385000D03*
%TD*%
D13*
%TO.C,C4*%
X40880000Y-32385000D03*
D14*
X55880000Y-32385000D03*
%TD*%
D15*
%TO.C,J3*%
X9753600Y-45500000D03*
D16*
X23753600Y-25505000D03*
D17*
X3753600Y-25505000D03*
%TD*%
D18*
%TO.C,JP1*%
G36*
X34287600Y-34048000D02*
G01*
X34787600Y-34048000D01*
X34787600Y-34048602D01*
X34812134Y-34048602D01*
X34860965Y-34053412D01*
X34909090Y-34062984D01*
X34956045Y-34077228D01*
X35001378Y-34096005D01*
X35044651Y-34119136D01*
X35085450Y-34146396D01*
X35123379Y-34177524D01*
X35158076Y-34212221D01*
X35189204Y-34250150D01*
X35216464Y-34290949D01*
X35239595Y-34334222D01*
X35258372Y-34379555D01*
X35272616Y-34426510D01*
X35282188Y-34474635D01*
X35286998Y-34523466D01*
X35286998Y-34548000D01*
X35287600Y-34548000D01*
X35287600Y-35048000D01*
X35286998Y-35048000D01*
X35286998Y-35072534D01*
X35282188Y-35121365D01*
X35272616Y-35169490D01*
X35258372Y-35216445D01*
X35239595Y-35261778D01*
X35216464Y-35305051D01*
X35189204Y-35345850D01*
X35158076Y-35383779D01*
X35123379Y-35418476D01*
X35085450Y-35449604D01*
X35044651Y-35476864D01*
X35001378Y-35499995D01*
X34956045Y-35518772D01*
X34909090Y-35533016D01*
X34860965Y-35542588D01*
X34812134Y-35547398D01*
X34787600Y-35547398D01*
X34787600Y-35548000D01*
X34287600Y-35548000D01*
X34287600Y-34048000D01*
G37*
G36*
X33487600Y-35547398D02*
G01*
X33463066Y-35547398D01*
X33414235Y-35542588D01*
X33366110Y-35533016D01*
X33319155Y-35518772D01*
X33273822Y-35499995D01*
X33230549Y-35476864D01*
X33189750Y-35449604D01*
X33151821Y-35418476D01*
X33117124Y-35383779D01*
X33085996Y-35345850D01*
X33058736Y-35305051D01*
X33035605Y-35261778D01*
X33016828Y-35216445D01*
X33002584Y-35169490D01*
X32993012Y-35121365D01*
X32988202Y-35072534D01*
X32988202Y-35048000D01*
X32987600Y-35048000D01*
X32987600Y-34548000D01*
X32988202Y-34548000D01*
X32988202Y-34523466D01*
X32993012Y-34474635D01*
X33002584Y-34426510D01*
X33016828Y-34379555D01*
X33035605Y-34334222D01*
X33058736Y-34290949D01*
X33085996Y-34250150D01*
X33117124Y-34212221D01*
X33151821Y-34177524D01*
X33189750Y-34146396D01*
X33230549Y-34119136D01*
X33273822Y-34096005D01*
X33319155Y-34077228D01*
X33366110Y-34062984D01*
X33414235Y-34053412D01*
X33463066Y-34048602D01*
X33487600Y-34048602D01*
X33487600Y-34048000D01*
X33987600Y-34048000D01*
X33987600Y-35548000D01*
X33487600Y-35548000D01*
X33487600Y-35547398D01*
G37*
%TD*%
D19*
%TO.C,J5*%
X34925000Y-38735000D03*
X32385000Y-38735000D03*
X29845000Y-38735000D03*
D20*
X27305000Y-38735000D03*
%TD*%
D19*
%TO.C,J1*%
X45085000Y-43180000D03*
X45085000Y-45720000D03*
X42545000Y-43180000D03*
X42545000Y-45720000D03*
X40005000Y-43180000D03*
X40005000Y-45720000D03*
X37465000Y-43180000D03*
X37465000Y-45720000D03*
X34925000Y-43180000D03*
X34925000Y-45720000D03*
X32385000Y-43180000D03*
X32385000Y-45720000D03*
X29845000Y-43180000D03*
X29845000Y-45720000D03*
X27305000Y-43180000D03*
D20*
X27305000Y-45720000D03*
%TD*%
D17*
%TO.C,J11*%
X27940000Y-1270000D03*
D21*
X27940000Y-3810000D03*
D17*
X30480000Y-1270000D03*
D22*
X30480000Y-3810000D03*
%TD*%
D21*
%TO.C,J9*%
X60960000Y-3810000D03*
X63500000Y-3810000D03*
X66040000Y-3810000D03*
D22*
X68580000Y-3810000D03*
%TD*%
D21*
%TO.C,J10*%
X49530000Y-3810000D03*
X52070000Y-3810000D03*
X54610000Y-3810000D03*
D22*
X57150000Y-3810000D03*
%TD*%
D21*
%TO.C,J8*%
X57150000Y-44450000D03*
X54610000Y-44450000D03*
X52070000Y-44450000D03*
D22*
X49530000Y-44450000D03*
%TD*%
D21*
%TO.C,J7*%
X68580000Y-44450000D03*
X66040000Y-44450000D03*
X63500000Y-44450000D03*
D22*
X60960000Y-44450000D03*
%TD*%
D23*
%TO.C,J2*%
X2000000Y-16570000D03*
X2000000Y-7930000D03*
D24*
X5825000Y-16570000D03*
X5825000Y-7930000D03*
D25*
X5100000Y-9250000D03*
X5100000Y-15250000D03*
D26*
X5100000Y-15250000D03*
%TD*%
D12*
%TO.C,REF\u002A\u002A*%
X3500000Y-3500000D03*
%TD*%
%TO.C,REF\u002A\u002A*%
X77500000Y-3500000D03*
%TD*%
%TO.C,REF\u002A\u002A*%
X3302000Y-45500000D03*
%TD*%
D27*
%TO.C,J4*%
X22352000Y-1676400D03*
X22352000Y-2946400D03*
X21082000Y-1676400D03*
X21082000Y-2946400D03*
X19812000Y-1676400D03*
X19812000Y-2946400D03*
X18542000Y-1676400D03*
X18542000Y-2946400D03*
X17272000Y-1676400D03*
D28*
X17272000Y-2946400D03*
%TD*%
D17*
%TO.C,J6*%
X9550400Y-1168400D03*
D21*
X9550400Y-3708400D03*
D17*
X12090400Y-1168400D03*
D22*
X12090400Y-3708400D03*
%TD*%
D18*
%TO.C,JP2*%
G36*
X9538400Y-11468800D02*
G01*
X9538400Y-12018800D01*
X9537798Y-12018800D01*
X9537798Y-12043334D01*
X9532988Y-12092165D01*
X9523416Y-12140290D01*
X9509172Y-12187245D01*
X9490395Y-12232578D01*
X9467264Y-12275851D01*
X9440004Y-12316650D01*
X9408876Y-12354579D01*
X9374179Y-12389276D01*
X9336250Y-12420404D01*
X9295451Y-12447664D01*
X9252178Y-12470795D01*
X9206845Y-12489572D01*
X9159890Y-12503816D01*
X9111765Y-12513388D01*
X9062934Y-12518198D01*
X9038400Y-12518198D01*
X9038400Y-12518800D01*
X8538400Y-12518800D01*
X8538400Y-12518198D01*
X8513866Y-12518198D01*
X8465035Y-12513388D01*
X8416910Y-12503816D01*
X8369955Y-12489572D01*
X8324622Y-12470795D01*
X8281349Y-12447664D01*
X8240550Y-12420404D01*
X8202621Y-12389276D01*
X8167924Y-12354579D01*
X8136796Y-12316650D01*
X8109536Y-12275851D01*
X8086405Y-12232578D01*
X8067628Y-12187245D01*
X8053384Y-12140290D01*
X8043812Y-12092165D01*
X8039002Y-12043334D01*
X8039002Y-12018800D01*
X8038400Y-12018800D01*
X8038400Y-11468800D01*
X9538400Y-11468800D01*
G37*
D29*
X8788400Y-10718800D03*
D18*
G36*
X8039002Y-9418800D02*
G01*
X8039002Y-9394266D01*
X8043812Y-9345435D01*
X8053384Y-9297310D01*
X8067628Y-9250355D01*
X8086405Y-9205022D01*
X8109536Y-9161749D01*
X8136796Y-9120950D01*
X8167924Y-9083021D01*
X8202621Y-9048324D01*
X8240550Y-9017196D01*
X8281349Y-8989936D01*
X8324622Y-8966805D01*
X8369955Y-8948028D01*
X8416910Y-8933784D01*
X8465035Y-8924212D01*
X8513866Y-8919402D01*
X8538400Y-8919402D01*
X8538400Y-8918800D01*
X9038400Y-8918800D01*
X9038400Y-8919402D01*
X9062934Y-8919402D01*
X9111765Y-8924212D01*
X9159890Y-8933784D01*
X9206845Y-8948028D01*
X9252178Y-8966805D01*
X9295451Y-8989936D01*
X9336250Y-9017196D01*
X9374179Y-9048324D01*
X9408876Y-9083021D01*
X9440004Y-9120950D01*
X9467264Y-9161749D01*
X9490395Y-9205022D01*
X9509172Y-9250355D01*
X9523416Y-9297310D01*
X9532988Y-9345435D01*
X9537798Y-9394266D01*
X9537798Y-9418800D01*
X9538400Y-9418800D01*
X9538400Y-9968800D01*
X8038400Y-9968800D01*
X8038400Y-9418800D01*
X8039002Y-9418800D01*
G37*
%TD*%
M02*
